<svg width="1041" height="810" viewBox="0 0 1041 810" fill="none" xmlns="http://www.w3.org/2000/svg">
<g filter="url(#filter0_f_817_37)">
<circle cx="506.232" cy="334.274" r="93.9502" fill="url(#paint0_linear_817_37)"/>
<path d="M988.852 369.024C988.852 206.965 857.477 75.5898 695.418 75.5898C682.331 75.5898 669.443 76.4467 656.809 78.1073L793.23 645.76C907.198 605.478 988.852 496.786 988.852 369.024Z" fill="url(#paint1_linear_817_37)"/>
<mask id="mask0_817_37" style="mask-type:alpha" maskUnits="userSpaceOnUse" x="68" y="-48" width="773" height="891">
<path d="M226.477 821.916L226.856 821.836L227.229 821.733L234.665 819.676L247.193 816.211L243.604 803.718C237.583 782.762 230.858 752.766 230.858 731.506C230.858 638.512 286.406 558.7 365.686 524.075L365.941 523.964L366.191 523.841C371.085 521.447 377.632 518.497 384.759 515.286C389.325 513.228 394.129 511.064 398.889 508.869C404.801 506.143 410.571 503.401 415.284 500.934C417.636 499.702 419.871 498.463 421.797 497.267C423.516 496.199 425.772 494.694 427.593 492.853C432.571 487.82 434.439 481.449 435.046 476.155C435.662 470.785 435.14 465.293 434.209 460.447C432.417 451.112 428.506 441.24 424.325 435.603C422.697 433.408 420.112 428.037 416.161 419.087C415.595 417.806 415.011 416.476 414.41 415.105C411.149 407.677 407.371 399.071 403.225 390.787C395.551 375.454 391.218 358.105 391.218 339.689C391.218 277.019 441.43 226.457 503.072 226.457C564.715 226.457 614.926 277.019 614.926 339.689C614.926 367.456 605.07 392.844 588.716 412.527L588.537 412.743L588.367 412.967L551.196 461.902C548.159 465.114 544.969 469.56 543.296 475.543C541.48 482.039 541.779 489.177 544.307 496.844C545.754 501.232 548.473 505.288 551.067 508.616C553.803 512.125 557.144 515.751 560.691 519.323C567.709 526.39 576.356 534.062 584.397 541.195L584.589 541.365C592.556 548.433 599.862 554.923 605.287 560.408C618.509 573.775 632.442 594.412 637.731 603.091L637.899 603.366L638.08 603.633C662.806 639.976 677.288 684.006 677.288 731.506C677.288 751.455 674.734 770.781 669.946 789.177L668.481 794.805L671.737 799.623C675.336 804.951 679.322 809.628 683.77 813.433L683.882 813.529L683.996 813.622C697.913 824.987 716.61 829.765 738.284 829.765C752.466 829.765 766.445 828.204 780.204 825.081C794.512 822.347 807.166 817.932 817.848 811.55L826.019 806.668L823.745 797.426L622.672 -19.6235L620.824 -27.1309L613.329 -29.0255C603.891 -31.4111 591.758 -32.9468 577.264 -33.8089C562.97 -34.6589 550.643 -35.0926 540.329 -35.0926C529.609 -35.0926 517.078 -34.6596 502.772 -33.8089L502.76 -33.8082L502.749 -33.8075C488.725 -32.9481 476.402 -31.6476 465.851 -29.8695L459.035 -28.7209L456.228 -22.404L91.641 798.197L85.9124 811.091L99.277 815.613L105.55 817.736L105.601 817.753L105.652 817.77C125.027 824.148 146.369 827.242 169.543 827.242C179.473 827.242 189.211 826.806 198.756 825.93C208.737 825.052 217.988 823.723 226.477 821.916Z" fill="#15C3A1" stroke="white" stroke-width="25.7398"/>
</mask>
<g mask="url(#mask0_817_37)">
<ellipse cx="172.752" cy="639.145" rx="190.475" ry="190.475" transform="rotate(-161.146 172.752 639.145)" fill="url(#paint2_linear_817_37)"/>
</g>
<path d="M971.713 275.107C1024.69 422.388 948.33 584.701 801.153 637.643M468.829 858.382C375.813 891.841 273.265 843.508 239.782 750.426M52.5304 290.112C15.2331 186.426 68.9924 72.1581 172.605 34.887M319.061 56.4102L319.352 56.5489L319.649 56.6752C339.699 65.2052 383.339 83.9602 399.248 91.4583C400.454 92.0267 401.732 92.6411 403.073 93.2853C403.173 93.3336 403.274 93.382 403.375 93.4306L252.032 434.069C250.285 433.43 248.539 432.793 246.796 432.157C226.807 424.86 207.298 417.739 191.672 410.374C177.034 403.474 154.277 387.822 136.573 374.721L128.228 385.998L136.573 374.721C130.434 370.177 125.091 366.083 121.166 362.99C97.3793 342.843 78.3898 316.374 67.0627 284.885C32.6489 189.215 82.2554 83.7998 177.833 49.4192C225.851 32.1461 276.315 36.0747 319.061 56.4102ZM237.235 461.554C237.978 461.826 238.72 462.096 239.46 462.366L91.8609 794.578L84.9866 810.05L101.024 815.477L107.297 817.6L107.358 817.621L107.419 817.641C127.094 824.117 148.713 827.242 172.115 827.242C182.119 827.242 191.934 826.803 201.559 825.919C211.623 825.034 220.978 823.692 229.585 821.86L230.039 821.763L230.487 821.639L237.923 819.583L252.957 815.424L248.952 801.487C298.04 871.643 389.654 903.275 474.056 872.914C511.141 859.574 541.712 836.09 563.722 806.713C571.404 797.299 588.909 773.067 601.467 746.374C607.183 734.224 622.645 719.331 641.251 705.799C652.841 697.37 664.342 690.397 673.158 685.722C675.865 699.692 677.285 714.138 677.285 728.932C677.285 748.66 674.759 767.769 670.026 785.954L668.268 792.708L672.175 798.49C675.874 803.965 680.008 808.828 684.668 812.815L684.802 812.93L684.939 813.042C699.478 824.914 718.837 829.764 740.855 829.764C755.214 829.764 769.37 828.186 783.304 825.026C797.813 822.25 810.752 817.75 821.74 811.185L831.545 805.327L828.815 794.237L794.814 656.075C798.679 654.858 802.535 653.558 806.38 652.175C961.593 596.343 1042.11 425.177 986.246 269.88C969.983 224.669 943.929 185.75 911.326 154.693C893.086 136.623 845.89 95.4857 803.454 77.7587C751.641 56.1146 703.699 52.0017 645.433 49.0724L627.743 -22.8128L625.526 -31.8216L616.531 -34.0952C606.869 -36.5376 594.554 -38.0862 579.988 -38.9525C565.662 -39.8045 553.282 -40.2408 542.901 -40.2408C532.115 -40.2408 519.53 -39.8053 505.191 -38.9525L505.177 -38.9517L505.163 -38.9508C491.078 -38.0878 478.661 -36.7793 467.995 -34.982L459.816 -33.6036L456.448 -26.0234L415.923 65.1883C414.788 64.6438 413.624 64.0878 412.416 63.5185C395.933 55.7495 352.017 36.8804 332.033 28.3769C282.222 4.77333 223.348 0.221155 167.378 20.3547C55.7293 60.5163 -2.18279 183.637 37.9982 295.34C51.2416 332.156 73.5165 363.176 101.43 386.752C106.888 391.362 112.561 395.687 118.423 399.714C135.967 412.688 160.833 429.985 178.503 438.314C195.524 446.336 216.96 454.157 237.235 461.554ZM331.846 545.056C333.647 544.121 335.135 542.968 336.356 541.745C346.763 534.883 357.774 528.888 369.288 523.86L369.594 523.726L369.894 523.579C374.759 521.199 381.234 518.281 388.324 515.087C392.896 513.027 397.723 510.852 402.539 508.632C408.46 505.902 414.277 503.139 419.049 500.64C421.43 499.393 423.727 498.122 425.727 496.879C427.479 495.791 429.951 494.155 431.995 492.089C437.523 486.499 439.53 479.496 440.175 473.874C440.831 468.162 440.27 462.392 439.309 457.387C437.469 447.806 433.444 437.535 428.964 431.495C427.547 429.585 425.086 424.531 421.087 415.473C420.525 414.201 419.944 412.876 419.344 411.509C416.084 404.083 412.276 395.408 408.098 387.061C400.6 372.078 396.364 355.122 396.364 337.115C396.364 275.84 445.45 226.457 505.644 226.457C565.838 226.457 614.924 275.84 614.924 337.115C614.924 364.262 605.29 389.072 589.308 408.308L589.092 408.568L588.888 408.836L551.8 457.662C548.595 461.075 545.187 465.844 543.388 472.276C541.414 479.34 541.773 487.004 544.434 495.075C546.02 499.885 548.954 504.219 551.609 507.624C554.432 511.246 557.853 514.954 561.436 518.562C568.511 525.687 577.208 533.403 585.223 540.513L585.452 540.717C593.44 547.803 600.675 554.232 606.028 559.643C619.043 572.802 632.856 593.243 638.104 601.856L638.306 602.187L638.524 602.507C649.525 618.676 658.472 636.382 664.986 655.24C653.343 660.866 637.849 670.081 623.084 680.819C603.998 694.7 582.811 713.471 573.518 733.224C562.188 757.308 546.012 779.607 539.619 787.394L539.393 787.67L539.18 787.956C520.666 812.76 494.929 832.581 463.601 843.85C378.621 874.419 284.914 830.264 254.315 745.199C243.495 715.121 242.016 684.004 248.363 654.965C263.775 604.198 292.07 572.86 330.32 545.869C330.826 545.596 331.335 545.325 331.846 545.056ZM795.925 623.111C793.094 624.129 790.258 625.097 787.417 626.014L653.144 80.4053C706.498 83.3137 747.569 87.8883 791.548 106.26C828.362 121.638 872.194 159.382 889.688 176.735L889.802 176.848L889.918 176.959C919.17 204.794 942.563 239.696 957.181 280.335C1007.28 419.599 935.067 573.059 795.925 623.111Z" stroke="white" stroke-width="30.8878"/>
</g>
<defs>
<filter id="filter0_f_817_37" x="-25" y="-94" width="1075.33" height="1029" filterUnits="userSpaceOnUse" color-interpolation-filters="sRGB">
<feFlood flood-opacity="0" result="BackgroundImageFix"/>
<feBlend mode="normal" in="SourceGraphic" in2="BackgroundImageFix" result="shape"/>
<feGaussianBlur stdDeviation="5" result="effect1_foregroundBlur_817_37"/>
</filter>
<linearGradient id="paint0_linear_817_37" x1="534.545" y1="246.759" x2="489.501" y2="410.207" gradientUnits="userSpaceOnUse">
<stop stop-color="#15C3A1"/>
<stop offset="1" stop-color="white" stop-opacity="0"/>
</linearGradient>
<linearGradient id="paint1_linear_817_37" x1="870.449" y1="152.809" x2="564.145" y2="587.812" gradientUnits="userSpaceOnUse">
<stop stop-color="#15C3A1"/>
<stop offset="1" stop-color="white" stop-opacity="0"/>
</linearGradient>
<linearGradient id="paint2_linear_817_37" x1="152.513" y1="456.868" x2="68.7775" y2="805.053" gradientUnits="userSpaceOnUse">
<stop stop-color="#15C3A1"/>
<stop offset="1" stop-color="white" stop-opacity="0"/>
</linearGradient>
</defs>
</svg>
