<svg width="1222" height="208" viewBox="0 0 1222 208" fill="none" xmlns="http://www.w3.org/2000/svg">
<rect width="1222" height="208" rx="21" fill="#FCFCFC"/>
<path d="M49 72L30 104.5L49 136.5" stroke="#DDDDDD" stroke-width="3" stroke-linecap="round"/>
<path d="M1173 72L1192 104.752L1173 137" stroke="#DDDDDD" stroke-width="3" stroke-linecap="round"/>
<path d="M98.78 44.295H100.85V43.095H98.345V44.235C98.345 45.055 98.295 45.915 98.195 46.815H100.85V45.555H98.78V44.295ZM98.015 48.105C97.725 49.745 97.26 51.225 96.62 52.545L95.465 51.51C96.415 49.62 96.895 47.195 96.905 44.235V39.195H108.38V43.095H106.295V44.295H108.545V45.555H106.295V46.815H109.055V48.105H107.555L108.425 48.96C107.965 49.52 107.46 49.985 106.91 50.355C107.68 50.795 108.555 51.11 109.535 51.3L108.86 52.65C106.17 51.95 104.245 50.435 103.085 48.105H101.225V50.955C102.135 50.725 102.925 50.47 103.595 50.19L103.865 51.495C102.655 51.915 101.215 52.275 99.545 52.575L99.155 51.33C99.605 51.15 99.83 50.825 99.83 50.355V48.105H98.015ZM104.525 48.105C104.875 48.645 105.295 49.13 105.785 49.56C106.365 49.21 106.89 48.725 107.36 48.105H104.525ZM104.915 43.095H102.215V44.295H104.915V43.095ZM102.215 46.815H104.915V45.555H102.215V46.815ZM106.94 40.5H98.345V41.82H106.94V40.5ZM121.61 44.115V49.575H120.215V45.405H114.62V49.59H113.21V44.115H121.61ZM116.57 46.245H117.965V47.295C117.955 47.465 117.93 47.685 117.89 47.955H119.15V50.385C119.15 50.795 119.36 51 119.78 51H122.03C122.26 51 122.44 50.92 122.57 50.76C122.7 50.59 122.795 50.045 122.855 49.125L124.16 49.56C124.06 50.88 123.855 51.675 123.545 51.945C123.275 52.185 122.855 52.305 122.285 52.305H119.36C118.31 52.305 117.785 51.765 117.785 50.685V48.465C117.545 49.375 117.085 50.15 116.405 50.79C115.455 51.59 113.91 52.21 111.77 52.65L110.96 51.39C113.09 50.98 114.545 50.47 115.325 49.86C116.085 49.2 116.5 48.345 116.57 47.295V46.245ZM114.575 38.715H115.985V43.635H114.575V38.715ZM111.635 39.33H113.015V43.17H111.635V39.33ZM119.225 41.025C118.755 41.895 118.215 42.61 117.605 43.17L116.54 42.18C117.54 41.16 118.265 39.965 118.715 38.595L120.08 38.955L119.81 39.72H123.98V41.025H119.225ZM120.575 41.265C121.405 41.735 122.19 42.315 122.93 43.005L122.045 44.01C121.365 43.3 120.58 42.66 119.69 42.09L120.575 41.265ZM128.78 44.295H130.85V43.095H128.345V44.235C128.345 45.055 128.295 45.915 128.195 46.815H130.85V45.555H128.78V44.295ZM128.015 48.105C127.725 49.745 127.26 51.225 126.62 52.545L125.465 51.51C126.415 49.62 126.895 47.195 126.905 44.235V39.195H138.38V43.095H136.295V44.295H138.545V45.555H136.295V46.815H139.055V48.105H137.555L138.425 48.96C137.965 49.52 137.46 49.985 136.91 50.355C137.68 50.795 138.555 51.11 139.535 51.3L138.86 52.65C136.17 51.95 134.245 50.435 133.085 48.105H131.225V50.955C132.135 50.725 132.925 50.47 133.595 50.19L133.865 51.495C132.655 51.915 131.215 52.275 129.545 52.575L129.155 51.33C129.605 51.15 129.83 50.825 129.83 50.355V48.105H128.015ZM134.525 48.105C134.875 48.645 135.295 49.13 135.785 49.56C136.365 49.21 136.89 48.725 137.36 48.105H134.525ZM134.915 43.095H132.215V44.295H134.915V43.095ZM132.215 46.815H134.915V45.555H132.215V46.815ZM136.94 40.5H128.345V41.82H136.94V40.5ZM144.74 52.365L144.44 50.985C145.11 51.035 145.69 51.06 146.18 51.06C146.6 51.06 146.81 50.865 146.81 50.475V44.595H141.065V43.185H153.935V44.595H148.265V50.835C148.265 51.855 147.735 52.365 146.675 52.365H144.74ZM144.635 46.365C144.025 48.425 143.16 50.21 142.04 51.72L140.795 50.955C141.935 49.425 142.745 47.79 143.225 46.05L144.635 46.365ZM151.52 45.87C152.53 47.48 153.405 49.195 154.145 51.015L152.84 51.6C152.04 49.59 151.17 47.825 150.23 46.305L151.52 45.87ZM142.445 39.405H152.6V40.785H142.445V39.405ZM157.52 38.895C158.48 39.635 159.295 40.37 159.965 41.1L158.99 42.09C158.41 41.4 157.59 40.65 156.53 39.84L157.52 38.895ZM155.615 43.2H158.975V49.545C159.395 49.195 159.895 48.745 160.475 48.195L160.865 49.695C159.875 50.615 158.84 51.42 157.76 52.11L157.22 50.82C157.47 50.6 157.595 50.335 157.595 50.025V44.565H155.615V43.2ZM160.97 44.985H168.245V46.29C167.815 47.62 167.095 48.765 166.085 49.725C167.065 50.365 168.225 50.925 169.565 51.405L168.8 52.635C167.35 52.055 166.095 51.375 165.035 50.595C163.875 51.425 162.43 52.1 160.7 52.62L159.905 51.42C161.505 50.95 162.84 50.36 163.91 49.65C162.88 48.65 162.185 47.555 161.825 46.365H160.97V44.985ZM163.16 46.365C163.5 47.275 164.09 48.105 164.93 48.855C165.75 48.105 166.375 47.275 166.805 46.365H163.16ZM162.02 39.195H167.33V42.345C167.33 42.685 167.515 42.855 167.885 42.855H169.205V44.16H167.51C166.45 44.16 165.92 43.66 165.92 42.66V40.53H163.43V40.98C163.43 42.54 162.64 43.75 161.06 44.61L160.115 43.515C161.385 42.945 162.02 42.15 162.02 41.13V39.195ZM175.325 43.08H179.255V38.685H180.725V43.08H184.445V44.49H180.725V52.575H179.255V44.49H175.325V43.08ZM172.595 38.82C173.585 39.57 174.41 40.31 175.07 41.04L174.095 42.03C173.475 41.3 172.645 40.555 171.605 39.795L172.595 38.82ZM170.615 43.17H174.08V49.56C174.49 49.23 174.99 48.785 175.58 48.225L175.955 49.68C174.985 50.59 173.955 51.395 172.865 52.095L172.325 50.82C172.585 50.61 172.715 50.355 172.715 50.055V44.535H170.615V43.17Z" fill="#010101"/>
<path d="M134.142 95.089C133.328 94.297 132.661 93.4757 132.14 92.625C131.502 93.6003 130.659 94.4143 129.61 95.067L129.17 94.352C130.27 93.714 131.117 92.889 131.711 91.877C131.242 90.9823 130.882 90.0143 130.633 88.973C130.428 89.3763 130.182 89.7613 129.896 90.128L129.423 89.534C130.2 88.412 130.728 86.9013 131.007 85.002L131.788 85.134C131.707 85.6473 131.601 86.168 131.469 86.696H134.296V87.455H133.614C133.563 89.1857 133.211 90.678 132.558 91.932C133.115 92.878 133.805 93.6993 134.626 94.396L134.142 95.089ZM131.249 87.455L131.139 87.763L131.029 88.06C131.293 89.1893 131.652 90.2087 132.107 91.118C132.576 90.0473 132.833 88.8263 132.877 87.455H131.249ZM125.133 86.058H126.574V85.079H127.333V86.058H128.51V86.762H127.333V87.884H127.971C128.543 87.158 129.045 86.3623 129.478 85.497L130.094 85.816C129.691 86.5787 129.273 87.268 128.84 87.884H129.654V88.621H128.279C127.964 88.995 127.663 89.325 127.377 89.611H129.247V90.183C128.873 90.623 128.433 91.063 127.927 91.503V92.042C128.609 91.9393 129.262 91.8037 129.885 91.635V92.372C129.313 92.526 128.66 92.6543 127.927 92.757V94.033C127.927 94.671 127.615 94.99 126.992 94.99H125.892L125.694 94.275C126.156 94.3117 126.486 94.33 126.684 94.33C126.999 94.33 127.157 94.1613 127.157 93.824V92.867C126.343 92.9623 125.536 93.0467 124.737 93.12L124.627 92.361C125.426 92.3243 126.27 92.2547 127.157 92.152V91.349C127.568 91.041 127.953 90.6963 128.312 90.315H126.607C126.028 90.7917 125.459 91.184 124.902 91.492L124.407 90.931C124.73 90.7477 125.06 90.5423 125.397 90.315H125.144V89.611H126.31C126.669 89.3103 127.014 88.9803 127.344 88.621H124.616V87.884H126.574V86.762H125.133V86.058ZM145.142 87.246V89.71H144.361V88.005H136.628V89.71H135.858V87.246H142.161C142.638 86.5493 143.056 85.783 143.415 84.947L144.218 85.244C143.837 86.0287 143.437 86.696 143.019 87.246H145.142ZM137.541 88.94H143.47V89.644C142.722 90.1207 141.912 90.5717 141.039 90.997V91.558H145.23V92.306H141.039V94.165C141.039 94.759 140.724 95.056 140.093 95.056H138.707L138.52 94.33C138.769 94.3373 138.975 94.341 139.136 94.341C139.378 94.3483 139.605 94.352 139.818 94.352C140.097 94.352 140.236 94.198 140.236 93.89V92.306H135.781V91.558H140.236V90.645C141.16 90.2417 141.86 89.908 142.337 89.644H137.541V88.94ZM137.42 85.112C137.853 85.6913 138.23 86.267 138.553 86.839L137.871 87.18C137.49 86.5273 137.101 85.9553 136.705 85.464L137.42 85.112ZM140.082 84.903C140.463 85.475 140.812 86.08 141.127 86.718L140.423 87.07C140.093 86.388 139.741 85.783 139.367 85.255L140.082 84.903ZM151.467 89.523C151.02 90.7697 150.158 91.811 148.882 92.647L148.354 91.998C149.586 91.184 150.4 90.1683 150.796 88.951C150.921 88.5183 151.02 88.0527 151.093 87.554H147.958V95.089H147.155V86.784H151.181C151.24 86.1827 151.269 85.5813 151.269 84.98H152.072C152.072 85.5373 152.046 86.1387 151.995 86.784H155.856V93.868C155.856 94.6087 155.5 94.979 154.789 94.979H153.062L152.842 94.187L154.525 94.231C154.877 94.231 155.053 94.0513 155.053 93.692V87.554H151.907C151.848 88.016 151.779 88.4083 151.698 88.731C152.82 89.787 153.781 90.8503 154.58 91.921L153.986 92.526C153.363 91.602 152.523 90.601 151.467 89.523ZM162.632 84.958C162.749 85.2073 162.874 85.5337 163.006 85.937H166.999V87.895H166.229V86.674H158.771V87.95H158.001V85.937H162.181C162.056 85.651 161.924 85.3723 161.785 85.101L162.632 84.958ZM162.819 88.478C163.706 89.5853 165.243 90.557 167.428 91.393L166.999 92.042C166.559 91.866 166.152 91.69 165.778 91.514V95.111H165.019V94.649H160.102V95.111H159.332V91.47C158.936 91.6607 158.481 91.855 157.968 92.053L157.55 91.404C159.567 90.656 161.121 89.6807 162.214 88.478H162.819ZM160.102 93.923H165.019V92.163H160.102V93.923ZM165.657 91.459C164.315 90.799 163.266 90.0363 162.511 89.171C161.638 90.0877 160.586 90.8503 159.354 91.459H165.657ZM163.787 87.136C165.129 87.8327 166.244 88.5147 167.131 89.182L166.581 89.721C165.789 89.0683 164.689 88.3717 163.281 87.631L163.787 87.136ZM161.708 87.598C160.769 88.412 159.622 89.127 158.265 89.743L157.792 89.127C159.134 88.555 160.263 87.8877 161.18 87.125L161.708 87.598ZM170.2 85.387H176.888V89.204H170.2V85.387ZM176.107 88.533V87.631H170.981V88.533H176.107ZM170.981 86.982H176.107V86.069H170.981V86.982ZM173.225 90.744H168.638V90.018H178.373V90.744H174.028V91.987H177.196V92.691H174.028V94.154C174.644 94.2053 175.275 94.231 175.92 94.231C176.873 94.231 177.673 94.22 178.318 94.198L178.098 94.946C177.739 94.946 177.365 94.9423 176.976 94.935C176.705 94.935 176.371 94.9313 175.975 94.924C174.171 94.924 172.939 94.7847 172.279 94.506C171.707 94.2493 171.205 93.7617 170.772 93.043C170.347 93.8423 169.8 94.517 169.133 95.067L168.616 94.418C169.628 93.604 170.317 92.5077 170.684 91.129L171.432 91.261C171.315 91.701 171.19 92.086 171.058 92.416C171.513 93.1787 172.033 93.6663 172.62 93.879C172.833 93.945 173.034 93.9963 173.225 94.033V90.744ZM189.142 87.246V89.71H188.361V88.005H180.628V89.71H179.858V87.246H186.161C186.638 86.5493 187.056 85.783 187.415 84.947L188.218 85.244C187.837 86.0287 187.437 86.696 187.019 87.246H189.142ZM181.541 88.94H187.47V89.644C186.722 90.1207 185.912 90.5717 185.039 90.997V91.558H189.23V92.306H185.039V94.165C185.039 94.759 184.724 95.056 184.093 95.056H182.707L182.52 94.33C182.769 94.3373 182.975 94.341 183.136 94.341C183.378 94.3483 183.605 94.352 183.818 94.352C184.097 94.352 184.236 94.198 184.236 93.89V92.306H179.781V91.558H184.236V90.645C185.16 90.2417 185.86 89.908 186.337 89.644H181.541V88.94ZM181.42 85.112C181.853 85.6913 182.23 86.267 182.553 86.839L181.871 87.18C181.49 86.5273 181.101 85.9553 180.705 85.464L181.42 85.112ZM184.082 84.903C184.463 85.475 184.812 86.08 185.127 86.718L184.423 87.07C184.093 86.388 183.741 85.783 183.367 85.255L184.082 84.903ZM197.249 90.887C195.672 91.8697 193.744 92.7313 191.463 93.472L191.144 92.746C193.432 92.042 195.401 91.184 197.051 90.172L197.249 90.887ZM192.673 87.543C193.575 88.2177 194.345 88.907 194.983 89.611L194.444 90.161C193.872 89.501 193.098 88.8043 192.123 88.071L192.673 87.543ZM195.687 94.275C196.494 94.2897 197.099 94.297 197.502 94.297C197.832 94.297 198.081 94.1467 198.25 93.846C198.411 93.538 198.51 92.8047 198.547 91.646C198.562 91.2353 198.58 89.5047 198.602 86.454H191.419V85.695H199.405C199.346 89.391 199.299 91.5543 199.262 92.185C199.218 93.2703 199.086 94.011 198.866 94.407C198.661 94.803 198.261 95.001 197.667 95.001C197.198 95.001 196.611 95.012 195.907 95.034L195.687 94.275ZM203.805 89.193H205.411V88.082H203.332V89.16C203.332 89.754 203.295 90.381 203.222 91.041H205.411V89.897H203.805V89.193ZM203.112 91.767C202.892 92.999 202.529 94.11 202.023 95.1L201.385 94.528C202.14 93.1347 202.522 91.3453 202.529 89.16V85.442H210.691V88.082H209.162V89.193H210.889V89.897H209.162V91.041H211.252V91.767H207.721C207.992 92.2437 208.348 92.68 208.788 93.076C209.294 92.8047 209.767 92.3903 210.207 91.833L210.757 92.372C210.346 92.8707 209.895 93.2593 209.404 93.538C210.035 93.9413 210.768 94.231 211.604 94.407L211.219 95.155C209.195 94.649 207.765 93.5197 206.929 91.767H205.433V94.165C206.093 94.0037 206.713 93.802 207.292 93.56L207.446 94.286C206.632 94.5867 205.642 94.8543 204.476 95.089L204.256 94.396C204.52 94.2933 204.652 94.11 204.652 93.846V91.767H203.112ZM208.392 88.082H206.17V89.193H208.392V88.082ZM206.17 91.041H208.392V89.897H206.17V91.041ZM209.899 86.168H203.332V87.367H209.899V86.168ZM220.371 89.05V92.966H219.59V89.776H215.245V92.988H214.453V89.05H220.371ZM216.939 90.48H217.72V91.239C217.676 92.3097 217.302 93.164 216.598 93.802C215.901 94.3887 214.768 94.847 213.199 95.177L212.748 94.473C214.31 94.165 215.403 93.7653 216.026 93.274C216.591 92.7533 216.895 92.075 216.939 91.239V90.48ZM218.853 94.924C218.171 94.924 217.83 94.5757 217.83 93.879V91.767H218.589V93.714C218.589 94.0367 218.754 94.198 219.084 94.198H220.844C221.071 94.198 221.24 94.1357 221.35 94.011C221.482 93.857 221.57 93.4207 221.614 92.702L222.34 92.933C222.274 93.8643 222.127 94.44 221.9 94.66C221.702 94.836 221.398 94.924 220.987 94.924H218.853ZM215.465 85.013H216.246V88.588H215.465V85.013ZM213.309 85.475H214.068V88.313H213.309V85.475ZM218.677 86.564C218.325 87.2387 217.911 87.796 217.434 88.236L216.84 87.686C217.588 86.9453 218.145 86.025 218.512 84.925L219.271 85.123C219.183 85.3723 219.095 85.6143 219.007 85.849H222.252V86.564H218.677ZM219.656 86.905C220.294 87.279 220.888 87.73 221.438 88.258L220.954 88.819C220.389 88.2543 219.792 87.7703 219.161 87.367L219.656 86.905ZM226.267 86.278H224.375V85.497H230.931V86.014C230.733 86.916 230.528 87.741 230.315 88.489H232.537V88.951C232.214 90.4543 231.521 91.723 230.458 92.757C231.316 93.3877 232.295 93.9413 233.395 94.418L232.878 95.122C231.683 94.5793 230.671 93.9707 229.842 93.296C228.896 94.0513 227.701 94.6747 226.256 95.166L225.794 94.429C227.165 93.967 228.298 93.4023 229.193 92.735C228.166 91.7597 227.407 90.6743 226.916 89.479C226.549 91.9283 225.607 93.791 224.089 95.067L223.484 94.528C225.31 93.0247 226.238 90.612 226.267 87.29V86.278ZM229.798 92.229C230.744 91.3637 231.382 90.3553 231.712 89.204H229.325C229.567 88.478 229.813 87.5027 230.062 86.278H227.081V87.543L227.07 87.807C227.466 89.5303 228.375 91.0043 229.798 92.229ZM236.805 89.193H238.411V88.082H236.332V89.16C236.332 89.754 236.295 90.381 236.222 91.041H238.411V89.897H236.805V89.193ZM236.112 91.767C235.892 92.999 235.529 94.11 235.023 95.1L234.385 94.528C235.14 93.1347 235.522 91.3453 235.529 89.16V85.442H243.691V88.082H242.162V89.193H243.889V89.897H242.162V91.041H244.252V91.767H240.721C240.992 92.2437 241.348 92.68 241.788 93.076C242.294 92.8047 242.767 92.3903 243.207 91.833L243.757 92.372C243.346 92.8707 242.895 93.2593 242.404 93.538C243.035 93.9413 243.768 94.231 244.604 94.407L244.219 95.155C242.195 94.649 240.765 93.5197 239.929 91.767H238.433V94.165C239.093 94.0037 239.713 93.802 240.292 93.56L240.446 94.286C239.632 94.5867 238.642 94.8543 237.476 95.089L237.256 94.396C237.52 94.2933 237.652 94.11 237.652 93.846V91.767H236.112ZM241.392 88.082H239.17V89.193H241.392V88.082ZM239.17 91.041H241.392V89.897H239.17V91.041ZM242.899 86.168H236.332V87.367H242.899V86.168ZM248.498 94.968L248.333 94.198C248.949 94.2273 249.385 94.242 249.642 94.242C249.972 94.242 250.137 94.0843 250.137 93.769V89.193H245.814V88.412H255.186V89.193H250.94V93.967C250.94 94.6343 250.599 94.968 249.917 94.968H248.498ZM248.289 90.568C247.82 92.1007 247.174 93.4097 246.353 94.495L245.66 94.066C246.511 92.966 247.127 91.745 247.508 90.403L248.289 90.568ZM253.316 90.293C254.093 91.525 254.746 92.7863 255.274 94.077L254.548 94.407C253.961 92.955 253.312 91.6643 252.601 90.535L253.316 90.293ZM246.826 85.618H254.207V86.388H246.826V85.618ZM257.727 85.178C258.453 85.7427 259.065 86.3 259.564 86.85L259.025 87.4C258.563 86.85 257.947 86.2817 257.177 85.695L257.727 85.178ZM256.495 88.401H258.794V93.285C259.249 92.9037 259.674 92.526 260.07 92.152L260.29 92.988C259.615 93.6187 258.882 94.1943 258.09 94.715L257.782 94.011C257.943 93.8497 258.024 93.6847 258.024 93.516V89.16H256.495V88.401ZM260.4 89.688H265.636V90.414C265.284 91.4553 264.708 92.3463 263.909 93.087C264.642 93.593 265.555 94.0477 266.648 94.451L266.219 95.133C265.038 94.6563 264.078 94.132 263.337 93.56C262.479 94.2053 261.394 94.7297 260.081 95.133L259.641 94.462C260.866 94.0953 261.889 93.6223 262.71 93.043C261.881 92.2803 261.313 91.4187 261.005 90.458H260.4V89.688ZM261.753 90.458C262.039 91.2573 262.545 91.9687 263.271 92.592C263.982 91.9687 264.51 91.2573 264.855 90.458H261.753ZM261.247 85.442H264.943V87.818C264.943 88.0967 265.086 88.236 265.372 88.236H266.384V88.962H265.174C264.499 88.962 264.162 88.6357 264.162 87.983V86.19H262.028V86.575C262.028 87.7337 261.463 88.6357 260.334 89.281L259.806 88.676C260.767 88.1993 261.247 87.5283 261.247 86.663V85.442ZM270.938 88.313H273.919V85.002H274.733V88.313H277.56V89.105H274.733V95.122H273.919V89.105H270.938V88.313ZM268.782 85.123C269.537 85.6877 270.164 86.2523 270.663 86.817L270.124 87.367C269.669 86.8317 269.039 86.2633 268.232 85.662L268.782 85.123ZM267.495 88.379H269.871V93.274C270.384 92.8413 270.817 92.46 271.169 92.13L271.367 92.944C270.707 93.582 269.974 94.1687 269.167 94.704L268.859 93.989C269.028 93.857 269.112 93.703 269.112 93.527V89.138H267.495V88.379ZM288.032 85.662V95.1H287.262V94.418H283.654V95.111H282.895V85.662H288.032ZM283.654 93.67H287.262V91.723H283.654V93.67ZM283.654 90.986H287.262V89.039H283.654V90.986ZM283.654 88.302H287.262V86.41H283.654V88.302ZM280.959 95.089H280.178V89.512C279.804 90.5753 279.324 91.5287 278.737 92.372L278.429 91.591C279.228 90.535 279.804 89.314 280.156 87.928H278.627V87.169H280.178V85.024H280.959V87.169H282.378V87.928H280.959V88.511C281.45 89.0243 281.956 89.6147 282.477 90.282L282.048 90.92C281.615 90.2527 281.252 89.7283 280.959 89.347V95.089ZM292.41 85.057C292.865 85.651 293.283 86.2743 293.664 86.927L292.949 87.29C292.546 86.5713 292.124 85.9443 291.684 85.409L292.41 85.057ZM297.305 85.167C297.041 85.9663 296.711 86.6777 296.315 87.301H298.581V88.071H294.907V88.588C294.885 89.1967 294.834 89.7063 294.753 90.117H299.219V90.887H295.215C295.758 92.3757 297.18 93.5307 299.483 94.352L299.021 95.089C296.608 94.1137 295.105 92.7863 294.511 91.107C294.298 91.745 294.02 92.295 293.675 92.757C292.92 93.7323 291.699 94.4877 290.012 95.023L289.583 94.33C291.27 93.7873 292.443 93.076 293.103 92.196C293.374 91.7927 293.583 91.3563 293.73 90.887H289.781V90.117H293.928C294.031 89.633 294.086 89.1233 294.093 88.588V88.071H290.408V87.301H295.435C295.838 86.685 296.209 85.904 296.546 84.958L297.305 85.167ZM310.01 86.179V94.594H309.24V93.89H307.084V94.616H306.325V86.179H310.01ZM307.084 93.153H309.24V86.916H307.084V93.153ZM302.167 87.246C301.896 87.84 301.588 88.39 301.243 88.896L300.55 88.456C301.269 87.4147 301.793 86.256 302.123 84.98L302.904 85.145C302.765 85.6363 302.622 86.0837 302.475 86.487H305.654V87.246H304.048C304.033 88.0453 303.989 88.775 303.916 89.435H305.753V90.194H303.806C303.733 90.5753 303.674 90.854 303.63 91.03C304.356 91.7707 305.075 92.581 305.786 93.461L305.313 94.187C304.572 93.1457 303.942 92.3353 303.421 91.756C302.966 92.988 302.16 94.022 301.001 94.858L300.484 94.22C301.65 93.3693 302.42 92.3023 302.794 91.019C302.875 90.689 302.937 90.414 302.981 90.194H300.682V89.435H303.091C303.172 88.8043 303.219 88.0747 303.234 87.246H302.167ZM315.796 85.673H320.856V90.81H315.796V85.673ZM320.064 90.04V86.432H316.588V90.04H320.064ZM312.804 85.123C313.493 85.651 314.106 86.2083 314.641 86.795L314.102 87.345C313.655 86.817 313.039 86.256 312.254 85.662L312.804 85.123ZM311.484 88.379H313.838V93.23C314.131 92.9733 314.509 92.614 314.971 92.152L315.18 92.988C314.549 93.6187 313.875 94.1833 313.156 94.682L312.848 93.978C313.002 93.846 313.079 93.692 313.079 93.516V89.138H311.484V88.379ZM317.677 91.811C317.127 93.087 316.478 94.2017 315.73 95.155L315.037 94.649C315.8 93.769 316.445 92.7093 316.973 91.47L317.677 91.811ZM319.613 91.437C320.493 92.6763 321.16 93.7433 321.615 94.638L320.933 95.111C320.442 94.1063 319.789 93.0173 318.975 91.844L319.613 91.437ZM324.002 92.702C324.53 92.702 324.794 93.0577 324.794 93.769C324.794 94.715 324.38 95.4153 323.551 95.87L323.254 95.397C323.826 95.023 324.134 94.55 324.178 93.978C324.119 93.9927 324.061 94 324.002 94C323.819 94 323.657 93.9413 323.518 93.824C323.393 93.7067 323.331 93.5527 323.331 93.362C323.331 93.142 323.393 92.9807 323.518 92.878C323.643 92.7607 323.804 92.702 324.002 92.702ZM336.333 84.892C336.714 85.464 337.063 86.069 337.378 86.707L336.663 87.059C336.333 86.377 335.981 85.772 335.607 85.244L336.333 84.892ZM340.007 87.851H337.18V88.918C337.173 89.468 337.14 89.974 337.081 90.436H340.007V87.851ZM340.007 91.195H336.971C336.846 91.855 336.663 92.4417 336.421 92.955C335.959 93.8937 335.207 94.6197 334.166 95.133L333.704 94.407C334.701 93.8937 335.398 93.2117 335.794 92.361C335.948 91.987 336.065 91.5983 336.146 91.195H333.605V90.436H336.267C336.326 89.996 336.362 89.49 336.377 88.918V87.851H334.056V87.092H339.611C340.007 86.4467 340.366 85.7133 340.689 84.892L341.536 85.2C341.221 85.926 340.88 86.5567 340.513 87.092H342.977V87.851H340.821V90.436H343.406V91.195H340.821V95.045H340.007V91.195ZM345.408 85.189C346.178 85.783 346.801 86.3513 347.278 86.894L346.706 87.455C346.273 86.927 345.661 86.344 344.869 85.706L345.408 85.189ZM351.799 94.902C351.432 94.902 350.787 94.8947 349.863 94.88C349.166 94.8727 348.598 94.8067 348.158 94.682C347.74 94.55 347.355 94.2823 347.003 93.879C346.864 93.6957 346.724 93.604 346.585 93.604C346.328 93.604 345.896 94.11 345.287 95.122L344.693 94.583C345.28 93.659 345.797 93.098 346.244 92.9V89.556H344.671V88.83H346.981V92.944C347.062 93.0027 347.15 93.087 347.245 93.197C347.516 93.5197 347.799 93.7507 348.092 93.89C348.422 94.044 348.91 94.132 349.555 94.154C350.318 94.1687 351.029 94.176 351.689 94.176C352.026 94.176 352.554 94.1687 353.273 94.154C353.874 94.1393 354.285 94.1247 354.505 94.11L354.318 94.902H351.799ZM348.037 86.751H349.335V85.002H350.094V86.751H351.832V85.013H352.602V86.751H353.999V87.488H352.602V89.677H354.351V90.425H352.602V93.582H351.832V90.425H349.874C349.588 91.745 349.02 92.724 348.169 93.362L347.696 92.724C348.393 92.2253 348.862 91.459 349.104 90.425H347.652V89.677H349.247C349.306 89.2297 349.335 88.7897 349.335 88.357V87.488H348.037V86.751ZM350.094 87.488V88.181C350.094 88.687 350.065 89.1857 350.006 89.677H351.832V87.488H350.094ZM359.675 85.717H364.944V86.498H359.675V85.717ZM359.378 88.511H365.428V89.292H363.646V94.011C363.646 94.7077 363.283 95.056 362.557 95.056H360.962L360.797 94.275C361.369 94.3117 361.864 94.33 362.282 94.33C362.656 94.33 362.843 94.1577 362.843 93.813V89.292H359.378V88.511ZM358.652 85.442C358.036 86.6593 357.046 87.7373 355.682 88.676L355.451 87.884C356.588 87.0773 357.416 86.1533 357.937 85.112L358.652 85.442ZM359.169 87.95C358.839 88.5953 358.439 89.182 357.97 89.71V95.1H357.189V90.513C356.705 90.9457 356.225 91.327 355.748 91.657L355.517 90.865C356.859 89.919 357.838 88.8373 358.454 87.62L359.169 87.95ZM366.726 85.717H369.256V85.013H370.059V85.717H372.941V85.013H373.744V85.717H376.274V86.432H373.744V87.257H372.941V86.432H370.059V87.213H369.256V86.432H366.726V85.717ZM367.595 87.07C368.321 87.4953 368.937 87.9243 369.443 88.357L368.893 88.896C368.431 88.478 367.815 88.0417 367.045 87.587L367.595 87.07ZM367.177 89.303C367.962 89.7357 368.6 90.15 369.091 90.546L368.541 91.096C368.116 90.7293 367.481 90.304 366.638 89.82L367.177 89.303ZM368.904 91.954C368.435 93.0393 367.925 94.0403 367.375 94.957L366.594 94.627C367.21 93.681 367.753 92.702 368.222 91.69L368.904 91.954ZM375.229 91.789V95.122H374.492V94.638H371.016V95.122H370.279V91.855C370.103 91.9137 369.846 91.9943 369.509 92.097L369.047 91.481C370.257 91.151 371.287 90.7623 372.138 90.315C371.676 89.9703 371.28 89.5963 370.95 89.193C370.525 89.5743 370.088 89.9007 369.641 90.172L369.19 89.578C370.4 88.874 371.221 88.0087 371.654 86.982L372.391 87.114C372.281 87.3927 372.167 87.631 372.05 87.829H375.295V88.39C374.862 89.1087 374.254 89.7467 373.469 90.304C374.371 90.7587 375.416 91.1033 376.604 91.338L376.153 91.987C374.84 91.701 373.718 91.2867 372.787 90.744C372.083 91.14 371.309 91.4883 370.466 91.789H375.229ZM371.412 88.709C371.786 89.1563 372.252 89.5597 372.809 89.919C373.462 89.501 373.99 89.0317 374.393 88.511H371.577C371.511 88.577 371.456 88.643 371.412 88.709ZM371.016 93.945H374.492V92.482H371.016V93.945ZM134.12 100.883C134.12 103.23 134.065 104.656 133.955 105.162C133.852 105.653 133.431 105.899 132.69 105.899H132.503L132.261 105.107H132.58C132.712 105.114 132.804 105.118 132.855 105.118C133.082 105.118 133.222 104.986 133.273 104.722C133.324 104.436 133.35 103.501 133.35 101.917L131.821 102.368V106.735H131.062V102.588L129.665 103.006V107.604C129.665 107.971 129.841 108.154 130.193 108.154H133.02C133.255 108.154 133.42 108.077 133.515 107.923C133.64 107.747 133.724 107.201 133.768 106.284L134.505 106.515C134.424 107.659 134.278 108.348 134.065 108.583C133.867 108.796 133.57 108.902 133.174 108.902H129.951C129.247 108.902 128.895 108.521 128.895 107.758V103.237L128.103 103.468V102.687L128.895 102.445V100.135H129.665V102.214L131.062 101.796V99.013H131.821V101.565L134.12 100.883ZM128.125 106.581C127.076 107.05 125.914 107.454 124.638 107.791L124.44 106.999C124.887 106.904 125.368 106.786 125.881 106.647V102.753H124.583V101.983H125.881V99.057H126.673V101.983H127.905V102.753H126.673V106.383C127.172 106.207 127.656 106.009 128.125 105.789V106.581ZM144.988 100.157V102.357H144.185V100.894H136.815V102.412H136.012V100.157H140.192C140.038 99.7243 139.88 99.3503 139.719 99.035L140.555 98.903C140.687 99.2183 140.826 99.6363 140.973 100.157H144.988ZM137.365 103.006C138.208 103.336 138.96 103.725 139.62 104.172L139.213 104.799C138.48 104.271 137.732 103.868 136.969 103.589L137.365 103.006ZM138.025 101.334C138.795 101.627 139.528 102.005 140.225 102.467L139.829 103.094C139.088 102.566 138.359 102.166 137.64 101.895L138.025 101.334ZM141.358 101.455H142.161V102.676C142.124 103.637 141.967 104.48 141.688 105.206H145.274V105.943H141.347C141.259 106.104 141.142 106.284 140.995 106.482C142.506 107.025 143.914 107.692 145.219 108.484L144.779 109.166C143.378 108.279 141.959 107.567 140.522 107.032C139.635 107.897 138.245 108.587 136.353 109.1L135.924 108.429C137.955 107.886 139.367 107.175 140.159 106.295L140.291 106.119L140.412 105.943H135.693V105.206H140.819C141.142 104.487 141.321 103.644 141.358 102.676V101.455ZM147.012 99.464H150.279V102.896H149.256V104.689H150.455V105.426H149.256V107.472C149.718 107.34 150.158 107.208 150.576 107.076V107.868C149.403 108.257 148.079 108.605 146.605 108.913L146.374 108.154L146.649 108.099L146.924 108.044V104.062H147.628V107.89C147.745 107.868 147.896 107.831 148.079 107.78L148.508 107.681V102.896H147.012V99.464ZM149.542 102.181V100.19H147.76V102.181H149.542ZM155.812 101.675L153.205 102.016C153.212 102.507 153.242 103.021 153.293 103.556L156.098 103.105L156.219 103.831L153.37 104.282C153.392 104.524 153.425 104.755 153.469 104.975C153.572 105.481 153.693 105.932 153.832 106.328C154.404 105.8 154.903 105.228 155.328 104.612L155.944 105.019C155.387 105.804 154.782 106.478 154.129 107.043C154.166 107.124 154.228 107.237 154.316 107.384C154.675 107.919 154.998 108.187 155.284 108.187C155.541 108.187 155.757 107.622 155.933 106.493L156.604 106.944C156.318 108.301 155.907 108.979 155.372 108.979C154.837 108.957 154.334 108.627 153.865 107.989C153.74 107.813 153.634 107.648 153.546 107.494C152.739 108.073 151.885 108.495 150.983 108.759L150.521 108.132C151.54 107.824 152.439 107.384 153.216 106.812C153.033 106.35 152.882 105.866 152.765 105.36C152.677 104.964 152.618 104.645 152.589 104.403L150.84 104.689L150.73 103.963L152.501 103.677C152.45 103.178 152.417 102.661 152.402 102.126L150.884 102.324L150.774 101.609L152.391 101.4V99.013H153.194V101.29L155.702 100.949L155.812 101.675ZM154.371 98.969C154.906 99.5043 155.328 99.9773 155.636 100.388L155.042 100.806C154.741 100.381 154.316 99.8967 153.766 99.354L154.371 98.969ZM159.75 106.438C160.139 106.438 160.476 106.57 160.762 106.834C161.041 107.098 161.18 107.428 161.18 107.824C161.18 108.213 161.041 108.539 160.762 108.803C160.476 109.067 160.139 109.199 159.75 109.199C159.354 109.199 159.017 109.071 158.738 108.814C158.459 108.557 158.32 108.227 158.32 107.824C158.32 107.421 158.459 107.091 158.738 106.834C159.017 106.57 159.354 106.438 159.75 106.438ZM159.75 107.01C159.515 107.01 159.321 107.091 159.167 107.252C158.998 107.399 158.914 107.589 158.914 107.824C158.914 108.051 158.998 108.238 159.167 108.385C159.328 108.546 159.523 108.627 159.75 108.627C159.963 108.627 160.157 108.546 160.333 108.385C160.502 108.231 160.586 108.044 160.586 107.824C160.586 107.597 160.502 107.406 160.333 107.252C160.172 107.091 159.977 107.01 159.75 107.01ZM189.274 102.379V104.469H188.636V104.931C188.262 105.811 187.653 106.577 186.81 107.23C187.58 107.685 188.504 108.066 189.582 108.374L189.12 109.078C187.903 108.711 186.902 108.257 186.117 107.714C185.244 108.249 184.141 108.697 182.806 109.056L182.388 108.319C183.62 108.026 184.639 107.655 185.446 107.208C184.698 106.57 184.163 105.826 183.84 104.975H183.389V104.469H182.861V102.379H187.14C187.536 101.741 187.881 101.037 188.174 100.267L188.911 100.542C188.596 101.275 188.277 101.888 187.954 102.379H189.274ZM184.61 104.975C184.94 105.65 185.45 106.251 186.139 106.779C186.865 106.258 187.422 105.657 187.811 104.975H184.61ZM183.62 104.249H188.504V103.138H183.62V104.249ZM185.897 100.41C186.205 100.938 186.447 101.422 186.623 101.862L185.963 102.104C185.772 101.605 185.523 101.099 185.215 100.586L185.897 100.41ZM183.972 100.454C184.287 100.989 184.526 101.462 184.687 101.873L184.027 102.115C183.829 101.616 183.583 101.125 183.29 100.641L183.972 100.454ZM189.208 99.728C187.639 100.029 185.574 100.179 183.015 100.179L182.784 99.464C185.211 99.464 187.228 99.332 188.834 99.068L189.208 99.728ZM179.814 108.979L179.649 108.22C179.964 108.257 180.247 108.275 180.496 108.275C180.687 108.275 180.782 108.183 180.782 108V105.228C180.371 105.389 180.001 105.521 179.671 105.624L179.484 104.843C179.887 104.74 180.32 104.605 180.782 104.436V101.796H179.561V101.037H180.782V99.024H181.563V101.037H182.586V101.796H181.563V104.106C181.702 104.04 181.867 103.959 182.058 103.864L182.542 103.6V104.403C182.241 104.564 181.915 104.729 181.563 104.898V108.187C181.563 108.715 181.299 108.979 180.771 108.979H179.814ZM194.378 99.442H199.801V103.644H197.447V104.667H200.351V105.404H198.173C198.664 106.365 199.482 107.23 200.626 108L200.12 108.627C198.903 107.659 198.045 106.585 197.546 105.404H197.447V109.067H196.71V105.404H196.611C196.076 106.717 195.185 107.798 193.938 108.649L193.531 107.978C194.66 107.296 195.482 106.438 195.995 105.404H193.828V104.667H196.71V103.644H194.378V99.442ZM199.075 102.973V101.884H197.447V102.973H199.075ZM196.71 102.973V101.884H195.104V102.973H196.71ZM195.104 101.235H196.71V100.135H195.104V101.235ZM197.447 100.135V101.235H199.075V100.135H197.447ZM191.793 99.134C192.49 99.662 193.098 100.216 193.619 100.795L193.08 101.334C192.64 100.813 192.024 100.26 191.232 99.673L191.793 99.134ZM190.462 102.379H192.761V107.087C193.047 106.83 193.381 106.511 193.762 106.13L193.971 106.944C193.384 107.531 192.75 108.07 192.068 108.561L191.76 107.857C191.914 107.725 191.991 107.571 191.991 107.395V103.138H190.462V102.379ZM206.896 99.035C206.896 99.8637 206.87 100.678 206.819 101.477C207.435 104.469 209.026 106.753 211.593 108.33L211.076 109.023C208.825 107.549 207.31 105.569 206.533 103.083C205.873 105.474 204.318 107.457 201.869 109.034L201.385 108.33C204.406 106.475 205.968 103.959 206.071 100.784C206.086 99.7867 206.093 99.2037 206.093 99.035H206.896ZM219.238 101.455C219.165 101.719 219.113 101.913 219.084 102.038C219.355 103.285 219.715 104.381 220.162 105.327C220.587 104.212 220.822 102.922 220.866 101.455H219.238ZM219.799 106.141C219.366 105.276 219.003 104.304 218.71 103.226C218.519 103.71 218.303 104.161 218.061 104.579L217.566 103.974C218.219 102.735 218.655 101.074 218.875 98.991L219.645 99.123C219.594 99.5777 219.513 100.102 219.403 100.696H222.307V101.455H221.592C221.548 103.288 221.222 104.858 220.613 106.163C221.192 107.131 221.871 107.875 222.648 108.396L222.197 109.067C221.442 108.539 220.785 107.817 220.228 106.9C219.693 107.78 219.011 108.517 218.182 109.111L217.764 108.44C218.622 107.846 219.3 107.08 219.799 106.141ZM215.344 104.205L215.234 104.513L215.124 104.81H217.412V105.481C217.17 106.2 216.77 106.823 216.213 107.351C216.734 107.571 217.229 107.813 217.698 108.077L217.269 108.715C216.763 108.414 216.206 108.128 215.597 107.857C214.856 108.363 213.94 108.77 212.847 109.078L212.462 108.396C213.379 108.154 214.149 107.853 214.772 107.494L214.409 107.34L214.024 107.186C213.738 107.069 213.478 106.966 213.243 106.878C213.551 106.372 213.8 105.921 213.991 105.525H212.704V104.81H214.321L214.453 104.458L214.574 104.117L215.344 104.205ZM215.454 107.032C216.004 106.585 216.407 106.082 216.664 105.525H214.805C214.622 105.899 214.424 106.247 214.211 106.57C214.651 106.724 215.065 106.878 215.454 107.032ZM213.573 99.255C213.859 99.7023 214.094 100.153 214.277 100.608L213.661 100.894C213.434 100.373 213.184 99.9003 212.913 99.475L213.573 99.255ZM217.522 99.486C217.295 99.9847 217.012 100.461 216.675 100.916L216.081 100.597C216.433 100.098 216.704 99.6253 216.895 99.178L217.522 99.486ZM212.737 101.125H214.882V99.024H215.619V101.125H217.621V101.818H215.619V101.939C216.22 102.24 216.829 102.577 217.445 102.951L217.038 103.567C216.488 103.127 216.015 102.775 215.619 102.511V103.941H214.882V101.851C214.523 102.709 213.866 103.461 212.913 104.106L212.528 103.468C213.379 102.969 213.969 102.419 214.299 101.818H212.737V101.125ZM225.002 106.702C225.53 106.702 225.794 107.058 225.794 107.769C225.794 108.715 225.38 109.415 224.551 109.87L224.254 109.397C224.826 109.023 225.134 108.55 225.178 107.978C225.119 107.993 225.061 108 225.002 108C224.819 108 224.657 107.941 224.518 107.824C224.393 107.707 224.331 107.553 224.331 107.362C224.331 107.142 224.393 106.981 224.518 106.878C224.643 106.761 224.804 106.702 225.002 106.702ZM237.377 99.992C238.14 99.992 238.748 100.183 239.203 100.564C239.658 100.953 239.885 101.473 239.885 102.126C239.885 103.013 239.456 103.6 238.598 103.886C239.067 104.033 239.419 104.256 239.654 104.557C239.918 104.865 240.05 105.25 240.05 105.712C240.05 106.423 239.801 107.006 239.302 107.461C238.796 107.923 238.136 108.154 237.322 108.154C236.589 108.154 235.98 107.963 235.496 107.582C234.939 107.12 234.627 106.449 234.561 105.569H235.474C235.496 106.185 235.701 106.654 236.09 106.977C236.427 107.248 236.838 107.384 237.322 107.384C237.879 107.384 238.33 107.223 238.675 106.9C238.99 106.585 239.148 106.2 239.148 105.745C239.148 105.276 238.994 104.909 238.686 104.645C238.385 104.388 237.96 104.26 237.41 104.26H236.772V103.556H237.377C237.898 103.556 238.297 103.439 238.576 103.204C238.855 102.962 238.994 102.621 238.994 102.181C238.994 101.748 238.858 101.407 238.587 101.158C238.308 100.901 237.909 100.773 237.388 100.773C236.853 100.773 236.442 100.912 236.156 101.191C235.855 101.47 235.676 101.877 235.617 102.412H234.726C234.792 101.657 235.071 101.063 235.562 100.63C236.017 100.205 236.622 99.992 237.377 99.992ZM243.896 99.992C244.834 99.992 245.542 100.406 246.019 101.235C246.437 101.939 246.646 102.885 246.646 104.073C246.646 105.261 246.437 106.207 246.019 106.911C245.535 107.74 244.827 108.154 243.896 108.154C242.957 108.154 242.249 107.74 241.773 106.911C241.355 106.207 241.146 105.261 241.146 104.073C241.146 102.885 241.355 101.939 241.773 101.235C242.242 100.406 242.95 99.992 243.896 99.992ZM243.896 100.762C243.192 100.762 242.686 101.14 242.378 101.895C242.158 102.423 242.048 103.149 242.048 104.073C242.048 104.982 242.158 105.708 242.378 106.251C242.686 107.006 243.192 107.384 243.896 107.384C244.6 107.384 245.106 107.006 245.414 106.251C245.641 105.694 245.755 104.968 245.755 104.073C245.755 103.164 245.641 102.438 245.414 101.895C245.106 101.14 244.6 100.762 243.896 100.762ZM253.087 99.035C253.087 99.8637 253.062 100.678 253.01 101.477C253.626 104.469 255.218 106.753 257.784 108.33L257.267 109.023C255.016 107.549 253.502 105.569 252.724 103.083C252.064 105.474 250.51 107.457 248.06 109.034L247.576 108.33C250.598 106.475 252.16 103.959 252.262 100.784C252.277 99.7867 252.284 99.2037 252.284 99.035H253.087ZM268.311 98.903C267.864 99.6437 267.516 100.403 267.266 101.18C266.944 102.126 266.782 103.079 266.782 104.04C266.782 105.001 266.944 105.954 267.266 106.9C267.516 107.67 267.864 108.429 268.311 109.177H267.541C267.065 108.48 266.687 107.725 266.408 106.911C266.086 105.987 265.924 105.034 265.924 104.051C265.924 103.054 266.086 102.093 266.408 101.169C266.687 100.348 267.065 99.5923 267.541 98.903H268.311ZM270.115 99.453H273.492V100.091C273.177 101.044 272.781 102.075 272.304 103.182C273.016 104.157 273.393 105.037 273.437 105.822C273.437 106.291 273.324 106.632 273.096 106.845C272.788 107.094 272.238 107.226 271.446 107.241L271.182 106.438C271.417 106.467 271.56 106.482 271.611 106.482C272.022 106.46 272.297 106.405 272.436 106.317C272.576 106.214 272.645 106.049 272.645 105.822C272.645 105.067 272.26 104.227 271.49 103.303C272.018 102.144 272.422 101.114 272.7 100.212H270.885V109.111H270.115V99.453ZM274.79 102.203V103.446H278.035V102.203H274.79ZM278.035 101.477V100.212H274.79V101.477H278.035ZM274.79 104.172V107.934C275.436 107.743 276.092 107.494 276.759 107.186L276.935 107.923C276.136 108.268 275.142 108.598 273.954 108.913L273.767 108.231C273.929 108.172 274.009 108.088 274.009 107.978V99.464H278.805V104.172H276.77C276.902 104.839 277.126 105.441 277.441 105.976C277.984 105.675 278.497 105.232 278.981 104.645L279.498 105.162C278.985 105.763 278.42 106.222 277.804 106.537C278.318 107.241 278.985 107.835 279.806 108.319L279.366 109.012C277.533 107.839 276.429 106.225 276.055 104.172H274.79ZM287.011 98.991H287.781V100.399H289.948V101.147H287.781V102.687H290.355V103.457H288.54V106.394C288.54 106.57 288.647 106.658 288.859 106.658H289.266C289.435 106.658 289.574 106.625 289.684 106.559C289.824 106.471 289.915 106.053 289.959 105.305L290.652 105.536C290.564 106.438 290.436 106.966 290.267 107.12C290.106 107.281 289.824 107.362 289.42 107.362H288.617C288.346 107.362 288.144 107.285 288.012 107.131C287.873 106.984 287.803 106.797 287.803 106.57V103.457H286.714C286.685 104.198 286.579 104.843 286.395 105.393C286.102 106.229 285.438 106.915 284.404 107.45L283.898 106.823C284.778 106.398 285.361 105.851 285.647 105.184C285.823 104.722 285.933 104.146 285.977 103.457H284.272V102.687H287.011V101.147H285.24C285.035 101.572 284.819 101.954 284.591 102.291L283.92 101.862C284.485 101.063 284.896 100.157 285.152 99.145L285.911 99.299C285.779 99.7537 285.662 100.12 285.559 100.399H287.011V98.991ZM281.577 99.189C282.303 99.7537 282.923 100.326 283.436 100.905L282.886 101.455C282.439 100.905 281.823 100.322 281.038 99.706L281.577 99.189ZM288.012 108.902C287.638 108.902 286.982 108.895 286.043 108.88C285.325 108.865 284.745 108.799 284.305 108.682C283.865 108.55 283.473 108.282 283.128 107.879C282.974 107.696 282.831 107.604 282.699 107.604C282.428 107.604 281.992 108.106 281.39 109.111L280.796 108.583C281.383 107.659 281.9 107.098 282.347 106.9V103.556H280.785V102.83H283.084V106.944C283.18 107.017 283.271 107.102 283.359 107.197C283.623 107.512 283.909 107.743 284.217 107.89C284.569 108.044 285.072 108.132 285.724 108.154C286.502 108.169 287.228 108.176 287.902 108.176C288.232 108.176 288.757 108.169 289.475 108.154C290.069 108.139 290.476 108.125 290.696 108.11L290.509 108.902H288.012ZM292.841 98.903C293.303 99.5923 293.681 100.348 293.974 101.169C294.297 102.122 294.458 103.083 294.458 104.051C294.458 105.004 294.297 105.958 293.974 106.911C293.681 107.725 293.303 108.48 292.841 109.177H292.071C292.497 108.466 292.845 107.707 293.116 106.9C293.439 105.917 293.6 104.964 293.6 104.04C293.6 103.116 293.439 102.163 293.116 101.18C292.845 100.359 292.497 99.5997 292.071 98.903H292.841ZM304.941 106.438C305.33 106.438 305.667 106.57 305.953 106.834C306.232 107.098 306.371 107.428 306.371 107.824C306.371 108.213 306.232 108.539 305.953 108.803C305.667 109.067 305.33 109.199 304.941 109.199C304.545 109.199 304.208 109.071 303.929 108.814C303.651 108.557 303.511 108.227 303.511 107.824C303.511 107.421 303.651 107.091 303.929 106.834C304.208 106.57 304.545 106.438 304.941 106.438ZM304.941 107.01C304.707 107.01 304.512 107.091 304.358 107.252C304.19 107.399 304.105 107.589 304.105 107.824C304.105 108.051 304.19 108.238 304.358 108.385C304.52 108.546 304.714 108.627 304.941 108.627C305.154 108.627 305.348 108.546 305.524 108.385C305.693 108.231 305.777 108.044 305.777 107.824C305.777 107.597 305.693 107.406 305.524 107.252C305.363 107.091 305.169 107.01 304.941 107.01ZM334.465 102.379V104.469H333.827V104.931C333.453 105.811 332.845 106.577 332.001 107.23C332.771 107.685 333.695 108.066 334.773 108.374L334.311 109.078C333.094 108.711 332.093 108.257 331.308 107.714C330.436 108.249 329.332 108.697 327.997 109.056L327.579 108.319C328.811 108.026 329.831 107.655 330.637 107.208C329.889 106.57 329.354 105.826 329.031 104.975H328.58V104.469H328.052V102.379H332.331C332.727 101.741 333.072 101.037 333.365 100.267L334.102 100.542C333.787 101.275 333.468 101.888 333.145 102.379H334.465ZM329.801 104.975C330.131 105.65 330.641 106.251 331.33 106.779C332.056 106.258 332.614 105.657 333.002 104.975H329.801ZM328.811 104.249H333.695V103.138H328.811V104.249ZM331.088 100.41C331.396 100.938 331.638 101.422 331.814 101.862L331.154 102.104C330.964 101.605 330.714 101.099 330.406 100.586L331.088 100.41ZM329.163 100.454C329.479 100.989 329.717 101.462 329.878 101.873L329.218 102.115C329.02 101.616 328.775 101.125 328.481 100.641L329.163 100.454ZM334.399 99.728C332.83 100.029 330.766 100.179 328.206 100.179L327.975 99.464C330.403 99.464 332.419 99.332 334.025 99.068L334.399 99.728ZM325.005 108.979L324.84 108.22C325.156 108.257 325.438 108.275 325.687 108.275C325.878 108.275 325.973 108.183 325.973 108V105.228C325.563 105.389 325.192 105.521 324.862 105.624L324.675 104.843C325.079 104.74 325.511 104.605 325.973 104.436V101.796H324.752V101.037H325.973V99.024H326.754V101.037H327.777V101.796H326.754V104.106C326.894 104.04 327.059 103.959 327.249 103.864L327.733 103.6V104.403C327.433 104.564 327.106 104.729 326.754 104.898V108.187C326.754 108.715 326.49 108.979 325.962 108.979H325.005ZM339.569 99.442H344.992V103.644H342.638V104.667H345.542V105.404H343.364C343.856 106.365 344.673 107.23 345.817 108L345.311 108.627C344.094 107.659 343.236 106.585 342.737 105.404H342.638V109.067H341.901V105.404H341.802C341.267 106.717 340.376 107.798 339.129 108.649L338.722 107.978C339.852 107.296 340.673 106.438 341.186 105.404H339.019V104.667H341.901V103.644H339.569V99.442ZM344.266 102.973V101.884H342.638V102.973H344.266ZM341.901 102.973V101.884H340.295V102.973H341.901ZM340.295 101.235H341.901V100.135H340.295V101.235ZM342.638 100.135V101.235H344.266V100.135H342.638ZM336.984 99.134C337.681 99.662 338.29 100.216 338.81 100.795L338.271 101.334C337.831 100.813 337.215 100.26 336.423 99.673L336.984 99.134ZM335.653 102.379H337.952V107.087C338.238 106.83 338.572 106.511 338.953 106.13L339.162 106.944C338.576 107.531 337.941 108.07 337.259 108.561L336.951 107.857C337.105 107.725 337.182 107.571 337.182 107.395V103.138H335.653V102.379ZM354.441 100.476H353.352V99.75H356.564V100.476H355.211V103.545H356.399V104.271H355.211V107.901H356.718V108.638H352.879V107.901H354.441V104.271H353.352V103.545H354.441V100.476ZM351.988 98.958H352.747V103.919C352.718 106.273 351.948 107.989 350.437 109.067L349.854 108.55C351.255 107.589 351.966 106.046 351.988 103.919V98.958ZM348.072 100.575H346.818V99.838H350.052V100.575H348.842V103.358H349.909V104.084H348.842V106.944C349.246 106.79 349.678 106.596 350.14 106.361V107.153C349.172 107.615 348.076 108.018 346.851 108.363L346.664 107.615C347.075 107.52 347.544 107.391 348.072 107.23V104.084H346.917V103.358H348.072V100.575ZM350.514 100.828H351.24V101.884C351.233 103.475 351.006 104.649 350.558 105.404L349.997 104.909C350.335 104.278 350.507 103.27 350.514 101.884V100.828ZM361.019 107.527C360.029 107.93 358.933 108.246 357.73 108.473L357.631 107.703C358.922 107.468 360.051 107.16 361.019 106.779V107.527ZM360.425 99.299C359.861 100.663 359.274 101.763 358.665 102.599C359.281 102.548 359.806 102.485 360.238 102.412C360.319 102.273 360.429 102.078 360.568 101.829L360.744 101.532L360.92 101.224L361.613 101.477C360.557 103.296 359.703 104.568 359.05 105.294C359.828 105.155 360.623 104.96 361.437 104.711V105.426C360.315 105.763 359.197 106.002 358.082 106.141L357.873 105.426C358.013 105.375 358.134 105.301 358.236 105.206C358.676 104.788 359.201 104.095 359.809 103.127C359.391 103.186 358.757 103.266 357.906 103.369L357.708 102.643C357.826 102.599 357.936 102.504 358.038 102.357C358.669 101.367 359.215 100.249 359.677 99.002L360.425 99.299ZM362.68 100.212H361.591V99.464H366.42V99.959C366.244 100.949 366.068 101.796 365.892 102.5H367.289V102.94C367.055 104.465 366.545 105.749 365.76 106.79C366.318 107.391 366.989 107.938 367.773 108.429L367.278 109.089C366.494 108.568 365.83 107.996 365.287 107.373C364.649 108.055 363.843 108.634 362.867 109.111L362.427 108.385C363.351 107.93 364.129 107.373 364.759 106.713C364.092 105.818 363.59 104.81 363.252 103.688C362.922 106.005 362.2 107.795 361.085 109.056L360.502 108.539C361.932 106.933 362.658 104.355 362.68 100.806V100.212ZM365.221 106.163C365.852 105.327 366.277 104.337 366.497 103.193H364.968C365.159 102.54 365.372 101.547 365.606 100.212H363.45V100.806C363.45 101.217 363.439 101.609 363.417 101.983C363.689 103.589 364.29 104.982 365.221 106.163ZM370.215 99.288C370.853 99.948 371.348 100.531 371.7 101.037L371.084 101.466C370.71 100.931 370.219 100.348 369.61 99.717L370.215 99.288ZM374.087 103.93C374.857 104.773 375.466 105.529 375.913 106.196L375.22 106.68C374.744 105.917 374.153 105.133 373.449 104.326L374.087 103.93ZM372.712 99.013H373.493V100.322C373.479 100.813 373.457 101.283 373.427 101.73H377.959C377.959 104.861 377.82 106.863 377.541 107.736C377.255 108.594 376.742 109.023 376.001 109.023C375.591 109.023 375.136 109.008 374.637 108.979L374.428 108.209C374.993 108.253 375.503 108.275 375.957 108.275C376.581 108.231 376.936 107.611 377.024 106.416C377.112 105.213 377.156 103.908 377.156 102.5H373.35C373.174 103.886 372.863 105.048 372.415 105.987C371.763 107.3 370.692 108.323 369.203 109.056L368.752 108.352C370.241 107.597 371.268 106.603 371.832 105.371C372.177 104.557 372.419 103.6 372.558 102.5H369.137V101.73H372.646C372.683 101.268 372.705 100.799 372.712 100.322V99.013ZM129.137 114.531H125.309V113.761H133.79V114.531H129.951V121.813H134.263V122.583H124.726V121.813H129.137V114.531ZM138.905 113.123H139.708V121.868H141.27V113.123H142.073V121.868H145.373V122.638H135.627V121.868H138.905V113.123ZM145.076 115.323C144.636 117.244 144.082 118.92 143.415 120.35L142.7 120.097C143.345 118.792 143.903 117.134 144.372 115.125L145.076 115.323ZM136.573 115.103C137.152 116.614 137.666 118.319 138.113 120.218L137.387 120.405C136.991 118.645 136.496 116.951 135.902 115.323L136.573 115.103ZM147.727 113.178C148.453 113.743 149.065 114.3 149.564 114.85L149.025 115.4C148.563 114.85 147.947 114.282 147.177 113.695L147.727 113.178ZM146.495 116.401H148.794V121.285C149.249 120.904 149.674 120.526 150.07 120.152L150.29 120.988C149.615 121.619 148.882 122.194 148.09 122.715L147.782 122.011C147.943 121.85 148.024 121.685 148.024 121.516V117.16H146.495V116.401ZM150.4 117.688H155.636V118.414C155.284 119.455 154.708 120.346 153.909 121.087C154.642 121.593 155.555 122.048 156.648 122.451L156.219 123.133C155.038 122.656 154.078 122.132 153.337 121.56C152.479 122.205 151.394 122.73 150.081 123.133L149.641 122.462C150.866 122.095 151.889 121.622 152.71 121.043C151.881 120.28 151.313 119.419 151.005 118.458H150.4V117.688ZM151.753 118.458C152.039 119.257 152.545 119.969 153.271 120.592C153.982 119.969 154.51 119.257 154.855 118.458H151.753ZM151.247 113.442H154.943V115.818C154.943 116.097 155.086 116.236 155.372 116.236H156.384V116.962H155.174C154.499 116.962 154.162 116.636 154.162 115.983V114.19H152.028V114.575C152.028 115.734 151.463 116.636 150.334 117.281L149.806 116.676C150.767 116.199 151.247 115.528 151.247 114.663V113.442ZM160.938 116.313H163.919V113.002H164.733V116.313H167.56V117.105H164.733V123.122H163.919V117.105H160.938V116.313ZM158.782 113.123C159.537 113.688 160.164 114.252 160.663 114.817L160.124 115.367C159.669 114.832 159.039 114.263 158.232 113.662L158.782 113.123ZM157.495 116.379H159.871V121.274C160.384 120.841 160.817 120.46 161.169 120.13L161.367 120.944C160.707 121.582 159.974 122.169 159.167 122.704L158.859 121.989C159.028 121.857 159.112 121.703 159.112 121.527V117.138H157.495V116.379ZM169.848 116.291H173.104V115.609H173.896V116.291H177.108V116.995H173.896V118.029H178.362V118.722H176.261V119.789H177.889V120.504H176.261V122.187C176.261 122.796 175.935 123.1 175.282 123.1H173.687L173.522 122.352C174.109 122.389 174.604 122.407 175.007 122.407C175.315 122.407 175.469 122.271 175.469 122V120.504H169.276V119.789H175.469V118.722H168.627V118.029H173.104V116.995H169.848V116.291ZM171.036 120.812C171.674 121.406 172.158 121.923 172.488 122.363L171.872 122.792C171.52 122.323 171.029 121.795 170.398 121.208L171.036 120.812ZM170.178 114.476C169.899 115.004 169.588 115.481 169.243 115.906L168.561 115.477C169.228 114.678 169.712 113.812 170.013 112.881L170.772 113.046C170.669 113.361 170.578 113.614 170.497 113.805H173.302V114.476H171.377C171.678 114.857 171.923 115.213 172.114 115.543L171.399 115.807C171.128 115.294 170.845 114.85 170.552 114.476H170.178ZM174.677 114.454C174.472 114.865 174.237 115.246 173.973 115.598L173.313 115.191C173.856 114.472 174.244 113.699 174.479 112.87L175.227 113.024C175.139 113.288 175.051 113.541 174.963 113.783H178.153V114.454H176.162C176.463 114.835 176.701 115.195 176.877 115.532L176.195 115.796C175.924 115.305 175.634 114.857 175.326 114.454H174.677ZM181.75 120.438C182.139 120.438 182.476 120.57 182.762 120.834C183.041 121.098 183.18 121.428 183.18 121.824C183.18 122.213 183.041 122.539 182.762 122.803C182.476 123.067 182.139 123.199 181.75 123.199C181.354 123.199 181.017 123.071 180.738 122.814C180.459 122.557 180.32 122.227 180.32 121.824C180.32 121.421 180.459 121.091 180.738 120.834C181.017 120.57 181.354 120.438 181.75 120.438ZM181.75 121.01C181.515 121.01 181.321 121.091 181.167 121.252C180.998 121.399 180.914 121.589 180.914 121.824C180.914 122.051 180.998 122.238 181.167 122.385C181.328 122.546 181.523 122.627 181.75 122.627C181.963 122.627 182.157 122.546 182.333 122.385C182.502 122.231 182.586 122.044 182.586 121.824C182.586 121.597 182.502 121.406 182.333 121.252C182.172 121.091 181.977 121.01 181.75 121.01Z" fill="#959595"/>
<path d="M109 91C109 91.55 108.55 92 108 92H99C98.45 92 98 91.55 98 91C98 90.45 98.45 90 99 90H108C108.55 90 109 90.45 109 91ZM98 87C98 87.55 98.45 88 99 88H108C108.55 88 109 87.55 109 87C109 86.45 108.55 86 108 86H99C98.45 86 98 86.45 98 87ZM105 95C105 94.45 104.55 94 104 94H99C98.45 94 98 94.45 98 95C98 95.55 98.45 96 99 96H104C104.55 96 105 95.55 105 95ZM113.01 92.87L113.72 92.16C113.813 92.0673 113.922 91.9937 114.043 91.9436C114.164 91.8934 114.294 91.8676 114.425 91.8676C114.556 91.8676 114.686 91.8934 114.807 91.9436C114.928 91.9937 115.037 92.0673 115.13 92.16L115.84 92.87C116.23 93.26 116.23 93.89 115.84 94.28L115.13 94.99L113.01 92.87ZM112.3 93.58L107.14 98.74C107.05 98.83 107 98.95 107 99.09V100.5C107 100.78 107.22 101 107.5 101H108.91C109.04 101 109.17 100.95 109.26 100.85L114.42 95.69L112.3 93.58Z" fill="#C0C0C0"/>
<path d="M816.54 83.98L818.36 83.64C818.26 82.3 817.56 80.44 815.34 80.44C812.44 80.44 810.96 83.5 810.22 88.62C809.64 92.66 809.38 96.8 813.08 96.8C815.7 96.8 816.98 94.28 817.42 92.04C817.96 89.26 817.16 86.58 814.76 86.58C813.76 86.58 812.92 87.06 812.34 87.8C812.94 83.74 813.98 82.22 815.12 82.22C816.16 82.22 816.46 83.22 816.54 83.98ZM815.5 91.9C815.2 93.42 814.6 95 813.16 95C811.92 95 811.48 93.3 811.82 91.22C812.1 89.56 812.74 88.18 814.08 88.18C815.6 88.18 815.88 89.98 815.5 91.9ZM826.572 92.46L826.832 90.66H825.492L826.892 80.64H825.012C823.232 83.92 820.612 87.92 818.612 90.94L818.412 92.46H823.312L822.712 96.6H824.652L825.232 92.46H826.572ZM823.712 89.66L823.572 90.66H820.692C821.972 88.68 823.492 86.2 824.732 83.96C824.412 85.56 823.972 87.88 823.712 89.66Z" fill="#2C2C2C"/>
<path d="M490.24 136.42L491.808 125.318L490.912 125.248C490.52 125.584 489.792 125.92 489.26 126.004L489.176 127.096C489.54 127.082 489.89 127.026 490.212 126.928L488.882 136.42H490.24ZM494.246 136.42L495.814 125.318L494.918 125.248C494.526 125.584 493.798 125.92 493.266 126.004L493.182 127.096C493.546 127.082 493.896 127.026 494.218 126.928L492.888 136.42H494.246Z" fill="#6D6D6D"/>
<path d="M486.48 57.584V58.048H487.248V60.816L486.504 60.848L486.576 61.344C487.688 61.28 488.624 61.2 489.384 61.112V61.816H489.944V61.04C490.104 61.008 490.264 60.984 490.408 60.96V60.504C490.264 60.528 490.104 60.552 489.944 60.576V58.048H493.536V57.584H486.48ZM487.768 60.792V60.104H489.384V60.648C488.904 60.704 488.36 60.752 487.768 60.792ZM487.768 59.68V59.08H489.384V59.68H487.768ZM487.768 58.648V58.048H489.384V58.648H487.768ZM487.496 54.752V57.056H492.552V54.752H487.496ZM492 56.64H488.048V56.104H492V56.64ZM488.048 55.696V55.184H492V55.696H488.048ZM490.616 59.056C490.776 59.64 491.072 60.16 491.52 60.624C491.176 60.912 490.76 61.152 490.28 61.36L490.576 61.808C491.096 61.584 491.544 61.312 491.912 60.992C492.272 61.288 492.72 61.56 493.248 61.808L493.544 61.328C493.048 61.12 492.632 60.888 492.28 60.624C492.664 60.176 492.936 59.648 493.088 59.032V58.584H490.36V59.056H490.616ZM491.872 60.28C491.504 59.92 491.256 59.512 491.112 59.056H492.568C492.424 59.504 492.192 59.912 491.872 60.28ZM499.472 57.256V60.624H500.032V57.256H501.424V56.704H497.92V55.456C499.048 55.416 500.072 55.272 500.984 55.032L500.712 54.528C499.72 54.8 498.616 54.944 497.384 54.968V57.04C497.344 58.288 497.08 59.264 496.584 59.968L496.984 60.384C497.528 59.6 497.84 58.552 497.904 57.256H499.472ZM495.024 54.576L494.632 54.952C495.192 55.416 495.632 55.856 495.952 56.256L496.368 55.848C496 55.424 495.552 55 495.024 54.576ZM499.672 61.664H501.52L501.664 61.088C501.456 61.104 501.152 61.112 500.76 61.12C500.36 61.12 499.976 61.128 499.592 61.128C498.976 61.128 498.456 61.12 498.04 61.112C497.576 61.096 497.216 61.04 496.976 60.928C496.752 60.816 496.552 60.648 496.36 60.424C496.296 60.352 496.232 60.288 496.168 60.24V57.24H494.488V57.768H495.632V60.2C495.304 60.344 494.928 60.752 494.504 61.424L494.936 61.816C495.376 61.08 495.688 60.712 495.88 60.712C495.976 60.712 496.08 60.776 496.184 60.912C496.432 61.208 496.712 61.408 497.024 61.504C497.344 61.584 497.752 61.632 498.264 61.648C498.768 61.656 499.24 61.664 499.672 61.664ZM505.864 56.232H508.768C508.608 56.856 508.408 57.416 508.16 57.912L508.728 58.072C509 57.408 509.216 56.736 509.384 56.056V55.68H506.024C506.112 55.328 506.184 54.944 506.248 54.528L505.672 54.44C505.48 55.832 505.056 56.928 504.4 57.712L504.88 58.048C505.288 57.584 505.616 56.976 505.864 56.232ZM506.688 56.776C506.672 57.816 506.536 58.68 506.28 59.36C505.92 60.16 505.2 60.832 504.112 61.36L504.488 61.816C505.72 61.208 506.504 60.424 506.848 59.464C506.912 59.288 506.968 59.104 507.016 58.904C507.528 60.056 508.296 61.016 509.336 61.8L509.712 61.36C508.504 60.528 507.664 59.4 507.184 57.976C507.224 57.608 507.248 57.208 507.248 56.776H506.688ZM502.864 54.808L502.4 55.096C503.008 55.704 503.496 56.264 503.856 56.76L504.304 56.44C503.968 55.976 503.488 55.432 502.864 54.808ZM503.84 58.24C503.408 59.28 502.904 60.304 502.312 61.304L502.848 61.544C503.4 60.576 503.896 59.536 504.344 58.432L503.84 58.24ZM510.896 54.944V55.504H512.352V57.344C512.352 57.424 512.344 57.52 512.344 57.624H510.464V58.176H512.312C512.248 58.816 512.136 59.36 511.968 59.824C511.712 60.432 511.256 60.92 510.608 61.288L510.92 61.784C511.624 61.416 512.128 60.896 512.432 60.224C512.672 59.68 512.824 59 512.896 58.176H515.208V61.72H515.792V58.176H517.544V57.624H515.792V55.504H517.128V54.944H510.896ZM512.944 55.504H515.208V57.624H512.936C512.936 57.536 512.944 57.44 512.944 57.344V55.504ZM521.184 54.776V57.832H522.88V58.576H520.784V59.112H522.36C521.984 59.864 521.384 60.488 520.568 60.984L520.864 61.472C521.768 60.856 522.416 60.072 522.808 59.112H522.88V61.776H523.416V59.112H523.488C523.848 59.968 524.472 60.752 525.36 61.456L525.728 61C524.896 60.44 524.304 59.816 523.944 59.112H525.528V58.576H523.416V57.832H525.128V54.776H521.184ZM524.6 57.344H523.416V56.552H524.6V57.344ZM522.88 57.344H521.712V56.552H522.88V57.344ZM521.712 56.08V55.28H522.88V56.08H521.712ZM523.416 55.28H524.6V56.08H523.416V55.28ZM519.304 54.552L518.896 54.944C519.464 55.368 519.912 55.768 520.24 56.152L520.632 55.76C520.272 55.36 519.832 54.952 519.304 54.552ZM518.336 56.912V57.464H519.448V60.56C519.448 60.688 519.392 60.8 519.28 60.896L519.504 61.408C519.992 61.056 520.456 60.664 520.888 60.232L520.736 59.64C520.48 59.896 520.24 60.128 520.008 60.336V56.912H518.336ZM529.232 55.848H527.944C528.104 55.448 528.224 55.008 528.32 54.536L527.744 54.456C527.672 54.936 527.56 55.4 527.4 55.848H526.656V61.536H527.216V60.848H528.672V61.304H529.232V55.848ZM527.216 60.312V58.56H528.672V60.312H527.216ZM527.216 58.04V56.392H528.672V58.04H527.216ZM530.624 57.704L530.16 57.992C530.712 58.648 531.152 59.24 531.48 59.768L531.936 59.448C531.632 58.952 531.2 58.368 530.624 57.704ZM533.368 55.856H530.816C530.96 55.44 531.072 54.992 531.168 54.52L530.6 54.448C530.392 55.584 530.016 56.544 529.456 57.328L529.8 57.784C530.112 57.376 530.376 56.92 530.6 56.416H532.8C532.784 58.72 532.752 60.104 532.704 60.552C532.64 60.96 532.424 61.168 532.048 61.168C531.8 61.168 531.512 61.16 531.176 61.144L531.312 61.672C531.696 61.688 531.968 61.704 532.128 61.704C532.8 61.704 533.168 61.392 533.248 60.784C533.328 60.16 533.368 58.512 533.368 55.856ZM541.376 56.088H539.832C540.136 55.688 540.424 55.208 540.704 54.632L540.12 54.416C539.864 55.016 539.56 55.576 539.208 56.088H534.624V57.88H535.184V56.64H540.808V57.88H541.376V56.088ZM535.848 57.32V57.832H539.336C538.984 58.024 538.48 58.264 537.808 58.56V59.224H534.568V59.768H537.808V60.92C537.808 61.144 537.704 61.256 537.512 61.256C537.168 61.256 536.848 61.248 536.56 61.24L536.696 61.768H537.712C538.16 61.768 538.392 61.552 538.392 61.12V59.768H541.44V59.224H538.392V58.816C539.048 58.496 539.632 58.168 540.16 57.832V57.32H535.848ZM535.76 54.536L535.24 54.792C535.536 55.16 535.816 55.576 536.088 56.04L536.584 55.792C536.328 55.336 536.048 54.92 535.76 54.536ZM537.696 54.384L537.176 54.64C537.448 55.024 537.704 55.464 537.944 55.96L538.456 55.704C538.216 55.224 537.96 54.784 537.696 54.384ZM543.928 56.512H545.848V58.36H543.496V58.92H545.848V60.952H542.528V61.528H549.576V60.952H546.432V58.92H548.904V58.36H546.432V56.512H549.064V55.952H546.432V54.528H545.848V55.952H544.136C544.256 55.592 544.36 55.208 544.448 54.792L543.864 54.688C543.6 56.024 543.088 57.088 542.336 57.872L542.704 58.344C543.2 57.848 543.608 57.24 543.928 56.512ZM553.184 54.776V57.832H554.88V58.576H552.784V59.112H554.36C553.984 59.864 553.384 60.488 552.568 60.984L552.864 61.472C553.768 60.856 554.416 60.072 554.808 59.112H554.88V61.776H555.416V59.112H555.488C555.848 59.968 556.472 60.752 557.36 61.456L557.728 61C556.896 60.44 556.304 59.816 555.944 59.112H557.528V58.576H555.416V57.832H557.128V54.776H553.184ZM556.6 57.344H555.416V56.552H556.6V57.344ZM554.88 57.344H553.712V56.552H554.88V57.344ZM553.712 56.08V55.28H554.88V56.08H553.712ZM555.416 55.28H556.6V56.08H555.416V55.28ZM551.304 54.552L550.896 54.944C551.464 55.368 551.912 55.768 552.24 56.152L552.632 55.76C552.272 55.36 551.832 54.952 551.304 54.552ZM550.336 56.912V57.464H551.448V60.56C551.448 60.688 551.392 60.8 551.28 60.896L551.504 61.408C551.992 61.056 552.456 60.664 552.888 60.232L552.736 59.64C552.48 59.896 552.24 60.128 552.008 60.336V56.912H550.336ZM561.768 54.76V57.072H565.088V54.76H561.768ZM564.528 56.552H562.336V55.272H564.528V56.552ZM561.456 57.816V58.344H563.096V59.368H561.64V59.888H563.096V60.968H561.136V61.512H565.624V60.968H563.688V59.888H565.184V59.368H563.688V58.344H565.432V57.816H561.456ZM558.464 56.656V57.208H559.576C559.32 58.12 558.888 58.928 558.28 59.64L558.528 60.28C558.984 59.648 559.352 58.944 559.632 58.16V61.768H560.184V58.16C560.408 58.456 560.688 58.856 561.008 59.352L561.328 58.872C560.944 58.416 560.56 58 560.184 57.632V57.208H561.216V56.656H560.184V55.4C560.584 55.32 560.968 55.232 561.328 55.128L561.128 54.584C560.36 54.824 559.472 54.992 558.472 55.088L558.584 55.632C558.944 55.592 559.296 55.544 559.632 55.496V56.656H558.464ZM567.424 58.44V61.8H567.984V57.832C568.264 57.48 568.496 57.112 568.688 56.72L568.192 56.496C567.808 57.296 567.184 58.016 566.336 58.648L566.504 59.2C566.84 58.96 567.144 58.704 567.424 58.44ZM568.16 54.456C567.776 55.192 567.16 55.848 566.312 56.424L566.48 56.984C567.48 56.312 568.2 55.544 568.64 54.68L568.16 54.456ZM569.208 54.744V57.296H572.992V54.744H569.208ZM572.44 56.832H569.76V56.24H572.44V56.832ZM569.76 55.8V55.208H572.44V55.8H569.76ZM568.856 57.864V58.368H571.936V59.048H568.568V59.552H571.936V60.952C571.936 61.144 571.824 61.248 571.608 61.248C571.352 61.248 571.088 61.232 570.8 61.208L570.92 61.752H571.808C572.272 61.752 572.504 61.528 572.504 61.088V59.552H573.656V59.048H572.504V58.368H573.472V57.864H568.856ZM569.696 59.792L569.28 60.088C569.696 60.504 570.04 60.904 570.304 61.272L570.744 60.968C570.504 60.624 570.152 60.232 569.696 59.792ZM576.888 54.632C576.568 55.24 576.216 55.76 575.832 56.208C575.392 56.712 574.896 57.12 574.352 57.432L574.664 57.936C575.328 57.488 575.864 57.032 576.264 56.568C576.64 56.144 577.016 55.6 577.392 54.936L576.888 54.632ZM577.152 58.2C576.984 58.952 576.736 59.56 576.4 60.024C576.024 60.504 575.464 60.944 574.728 61.344L575.096 61.824C575.912 61.368 576.528 60.856 576.936 60.28C577.28 59.768 577.544 59.072 577.736 58.2H579.728C579.688 59.448 579.6 60.256 579.456 60.64C579.32 61.008 579.04 61.192 578.608 61.192C578.192 61.192 577.752 61.184 577.288 61.168L577.448 61.736H578.904C579.304 61.712 579.592 61.584 579.768 61.352C579.952 61.112 580.08 60.68 580.16 60.072C580.24 59.456 580.288 58.648 580.312 57.648H575.536V58.2H577.152ZM579.144 54.528L578.648 54.808C579.136 56.072 580 57.104 581.24 57.904L581.624 57.448C580.432 56.736 579.608 55.76 579.144 54.528ZM586 59.496H588.536V60.056H586V59.496ZM588.536 59.048H586V58.456H588.536V59.048ZM586 60.496H588.536V60.968C588.536 61.16 588.44 61.264 588.256 61.264L587.656 61.232L587.8 61.744H588.424C588.864 61.744 589.088 61.52 589.088 61.088V57.976H585.456V61.784H586V60.496ZM587.008 54.464V54.976H585.128V55.448H587.008V56H585.4V56.464H587.008V57H584.888V57.056C584.76 56.6 584.608 56.192 584.448 55.832L584.032 55.96C584.232 56.424 584.4 56.912 584.528 57.416L584.888 57.328V57.48H589.672V57H587.584V56.464H589.176V56H587.584V55.448H589.44V54.976H587.584V54.464H587.008ZM582.56 56.008C582.544 56.776 582.456 57.512 582.296 58.208L582.736 58.328C582.896 57.608 582.992 56.848 583.008 56.04L582.56 56.008ZM583.376 54.488V61.768H583.936V54.488H583.376ZM592.888 54.84V58.104H593.944C593.864 59.592 593.208 60.656 591.976 61.296L592.296 61.8C593.664 61.032 594.4 59.8 594.496 58.104H595.272V60.984C595.272 61.416 595.48 61.632 595.912 61.632H596.744C597.024 61.632 597.232 61.552 597.368 61.392C597.512 61.216 597.616 60.704 597.672 59.864L597.152 59.704C597.12 60.384 597.064 60.792 596.976 60.936C596.912 61.048 596.8 61.112 596.64 61.112H596.08C595.904 61.112 595.816 61.024 595.816 60.864V58.104H596.912V54.84H592.888ZM596.352 57.568H593.448V55.392H596.352V57.568ZM590.888 54.752L590.424 55.04C591 55.696 591.448 56.288 591.776 56.824L592.232 56.504C591.912 56.008 591.464 55.424 590.888 54.752ZM591.776 58.04C591.376 59.184 590.896 60.304 590.344 61.392L590.864 61.624C591.384 60.568 591.856 59.44 592.28 58.24L591.776 58.04Z" fill="#C8C8C8"/>
<path d="M820.986 105.018V107.93H820.063V105.915H810.924V107.93H810.014V105.018H817.463C818.026 104.195 818.52 103.289 818.945 102.301L819.894 102.652C819.443 103.579 818.971 104.368 818.477 105.018H820.986ZM812.003 107.02H819.01V107.852C818.126 108.415 817.168 108.948 816.137 109.451V110.114H821.09V110.998H816.137V113.195C816.137 113.897 815.764 114.248 815.019 114.248H813.381L813.16 113.39C813.455 113.399 813.697 113.403 813.888 113.403C814.174 113.412 814.443 113.416 814.694 113.416C815.023 113.416 815.188 113.234 815.188 112.87V110.998H809.923V110.114H815.188V109.035C816.28 108.558 817.108 108.164 817.671 107.852H812.003V107.02ZM811.86 102.496C812.371 103.181 812.818 103.861 813.199 104.537L812.393 104.94C811.942 104.169 811.483 103.493 811.015 102.912L811.86 102.496ZM815.006 102.249C815.457 102.925 815.868 103.64 816.241 104.394L815.409 104.81C815.019 104.004 814.603 103.289 814.161 102.665L815.006 102.249ZM825.133 105.707C824.613 106.886 823.95 107.878 823.144 108.684L822.546 107.917C823.777 106.634 824.604 104.91 825.029 102.743L825.978 102.912C825.839 103.579 825.67 104.208 825.471 104.797H828.253V102.483H829.202V104.797H833.479V105.707H829.202V108.71H833.219V109.62H829.202V112.922H834.311V113.858H822.858V112.922H828.253V109.62H824.431V108.71H828.253V105.707H825.133ZM841.968 102.405C841.968 103.384 841.938 104.346 841.877 105.291C842.605 108.827 844.486 111.527 847.519 113.39L846.908 114.209C844.247 112.467 842.458 110.127 841.539 107.189C840.759 110.014 838.922 112.359 836.027 114.222L835.455 113.39C839.026 111.197 840.872 108.225 840.993 104.472C841.01 103.293 841.019 102.604 841.019 102.405H841.968ZM856.554 105.265C856.467 105.577 856.407 105.807 856.372 105.954C856.693 107.427 857.117 108.723 857.646 109.841C858.149 108.524 858.426 106.998 858.478 105.265H856.554ZM857.217 110.803C856.706 109.78 856.277 108.632 855.93 107.358C855.705 107.93 855.449 108.463 855.163 108.957L854.578 108.242C855.349 106.777 855.865 104.814 856.125 102.353L857.035 102.509C856.974 103.046 856.879 103.666 856.749 104.368H860.181V105.265H859.336C859.284 107.432 858.898 109.286 858.179 110.829C858.864 111.973 859.665 112.853 860.584 113.468L860.051 114.261C859.158 113.637 858.383 112.783 857.724 111.7C857.091 112.74 856.285 113.611 855.306 114.313L854.812 113.52C855.826 112.818 856.628 111.912 857.217 110.803ZM851.952 108.515L851.822 108.879L851.692 109.23H854.396V110.023C854.11 110.872 853.638 111.609 852.979 112.233C853.594 112.493 854.179 112.779 854.734 113.091L854.227 113.845C853.629 113.49 852.97 113.152 852.251 112.831C851.376 113.429 850.292 113.91 849.001 114.274L848.546 113.468C849.629 113.182 850.539 112.827 851.276 112.402L850.847 112.22L850.392 112.038C850.054 111.899 849.746 111.778 849.469 111.674C849.833 111.076 850.128 110.543 850.353 110.075H848.832V109.23H850.743L850.899 108.814L851.042 108.411L851.952 108.515ZM852.082 111.856C852.732 111.327 853.209 110.734 853.512 110.075H851.315C851.098 110.517 850.864 110.929 850.613 111.31C851.133 111.492 851.623 111.674 852.082 111.856ZM849.859 102.665C850.197 103.194 850.474 103.727 850.691 104.264L849.963 104.602C849.694 103.987 849.4 103.428 849.079 102.925L849.859 102.665ZM854.526 102.938C854.257 103.527 853.924 104.091 853.525 104.628L852.823 104.251C853.239 103.662 853.56 103.103 853.785 102.574L854.526 102.938ZM848.871 104.875H851.406V102.392H852.277V104.875H854.643V105.694H852.277V105.837C852.988 106.192 853.707 106.591 854.435 107.033L853.954 107.761C853.304 107.241 852.745 106.825 852.277 106.513V108.203H851.406V105.733C850.981 106.747 850.206 107.635 849.079 108.398L848.624 107.644C849.629 107.055 850.327 106.405 850.717 105.694H848.871V104.875Z" fill="#333333"/>
<path d="M502.508 124.483C503.305 125.133 503.999 125.813 504.588 126.524L503.925 127.2C503.388 126.515 502.694 125.822 501.845 125.12L502.508 124.483ZM502.17 127.655C503.054 128.322 503.812 129.007 504.445 129.709L503.782 130.385C503.245 129.726 502.486 129.029 501.507 128.292L502.17 127.655ZM504.614 131.425C504.016 133.141 503.362 134.727 502.651 136.183L501.78 135.793C502.534 134.328 503.206 132.768 503.795 131.113L504.614 131.425ZM504.796 127.798H513.337V128.656H510.763V130.047H512.934V135.013C512.934 135.793 512.57 136.183 511.842 136.183H510.763L510.529 135.351L511.569 135.39C511.916 135.39 512.089 135.204 512.089 134.831V130.879H510.763C510.763 131.113 510.75 131.334 510.724 131.542C511.123 132.105 511.487 132.647 511.816 133.167L511.387 133.804C511.118 133.215 510.863 132.695 510.62 132.244C510.386 133.388 509.901 134.424 509.164 135.351L508.553 134.805C509.48 133.652 509.957 132.344 509.983 130.879H508.267C508.25 131.104 508.232 131.269 508.215 131.373C508.666 131.954 509.021 132.439 509.281 132.829L508.852 133.466C508.627 133.015 508.375 132.547 508.098 132.062C507.873 133.007 507.478 133.865 506.915 134.636L506.291 134.09C507.01 133.119 507.409 132.049 507.487 130.879H506.161V136.235H505.316V130.047H507.5V128.656H504.796V127.798ZM508.28 130.047H509.983V128.656H508.28V130.047ZM505.082 125.445H507.032V124.418H507.942V125.445H510.178V124.418H511.088V125.445H513.142V126.329H511.088V127.239H510.178V126.329H507.942V127.252H507.032V126.329H505.082V125.445ZM518.992 134.597C517.805 135.074 516.422 135.472 514.845 135.793L514.741 134.883C516.353 134.58 517.77 134.19 518.992 133.713V134.597ZM517.718 124.704C517.094 126.368 516.448 127.711 515.781 128.734C516.379 128.656 516.96 128.565 517.523 128.461C517.679 128.166 517.917 127.698 518.238 127.057L519.07 127.382C517.943 129.549 516.99 131.109 516.21 132.062C517.085 131.88 517.991 131.624 518.927 131.295V132.14C517.575 132.591 516.301 132.898 515.105 133.063L514.871 132.231C515.053 132.153 515.187 132.071 515.274 131.984C515.733 131.499 516.327 130.61 517.055 129.319C516.561 129.414 515.846 129.527 514.91 129.657L514.689 128.825C514.819 128.756 514.945 128.643 515.066 128.487C515.751 127.282 516.344 125.909 516.847 124.366L517.718 124.704ZM519.473 125.081H522.307V124.392H523.217V125.081H526.012V125.861H523.217V126.693H525.713V127.421H523.217V128.266H526.337V129.072H519.161V128.266H522.307V127.421H519.798V126.693H522.307V125.861H519.473V125.081ZM525.544 129.982V134.064H524.66V130.801H520.877V134.103H519.98V129.982H525.544ZM523.269 131.464C523.269 132.487 523.078 133.358 522.697 134.077C522.203 135.013 521.081 135.78 519.33 136.378L518.745 135.663C520.279 135.186 521.293 134.58 521.787 133.843C522.177 133.202 522.372 132.409 522.372 131.464H523.269ZM523.438 134.012C524.573 134.445 525.6 134.97 526.519 135.585L526.012 136.339C525.007 135.637 523.993 135.095 522.97 134.714L523.438 134.012ZM533.968 124.405C533.968 125.384 533.938 126.346 533.877 127.291C534.605 130.827 536.486 133.527 539.519 135.39L538.908 136.209C536.247 134.467 534.458 132.127 533.539 129.189C532.759 132.014 530.922 134.359 528.027 136.222L527.455 135.39C531.026 133.197 532.872 130.225 532.993 126.472C533.01 125.293 533.019 124.604 533.019 124.405H533.968ZM548.554 127.265C548.467 127.577 548.407 127.807 548.372 127.954C548.693 129.427 549.117 130.723 549.646 131.841C550.149 130.524 550.426 128.998 550.478 127.265H548.554ZM549.217 132.803C548.706 131.78 548.277 130.632 547.93 129.358C547.705 129.93 547.449 130.463 547.163 130.957L546.578 130.242C547.349 128.777 547.865 126.814 548.125 124.353L549.035 124.509C548.974 125.046 548.879 125.666 548.749 126.368H552.181V127.265H551.336C551.284 129.432 550.898 131.286 550.179 132.829C550.864 133.973 551.665 134.853 552.584 135.468L552.051 136.261C551.158 135.637 550.383 134.783 549.724 133.7C549.091 134.74 548.285 135.611 547.306 136.313L546.812 135.52C547.826 134.818 548.628 133.912 549.217 132.803ZM543.952 130.515L543.822 130.879L543.692 131.23H546.396V132.023C546.11 132.872 545.638 133.609 544.979 134.233C545.594 134.493 546.179 134.779 546.734 135.091L546.227 135.845C545.629 135.49 544.97 135.152 544.251 134.831C543.376 135.429 542.292 135.91 541.001 136.274L540.546 135.468C541.629 135.182 542.539 134.827 543.276 134.402L542.847 134.22L542.392 134.038C542.054 133.899 541.746 133.778 541.469 133.674C541.833 133.076 542.128 132.543 542.353 132.075H540.832V131.23H542.743L542.899 130.814L543.042 130.411L543.952 130.515ZM544.082 133.856C544.732 133.327 545.209 132.734 545.512 132.075H543.315C543.098 132.517 542.864 132.929 542.613 133.31C543.133 133.492 543.623 133.674 544.082 133.856ZM541.859 124.665C542.197 125.194 542.474 125.727 542.691 126.264L541.963 126.602C541.694 125.987 541.4 125.428 541.079 124.925L541.859 124.665ZM546.526 124.938C546.257 125.527 545.924 126.091 545.525 126.628L544.823 126.251C545.239 125.662 545.56 125.103 545.785 124.574L546.526 124.938ZM540.871 126.875H543.406V124.392H544.277V126.875H546.643V127.694H544.277V127.837C544.988 128.192 545.707 128.591 546.435 129.033L545.954 129.761C545.304 129.241 544.745 128.825 544.277 128.513V130.203H543.406V127.733C542.981 128.747 542.206 129.635 541.079 130.398L540.624 129.644C541.629 129.055 542.327 128.405 542.717 127.694H540.871V126.875Z" fill="#333333"/>
<circle cx="492.269" cy="84.2692" r="4.26923" fill="#2C2C2C"/>
<circle cx="492.269" cy="98.5002" r="4.26923" fill="#2C2C2C"/>
<circle cx="492.269" cy="112.731" r="4.26923" fill="#2C2C2C"/>
<circle cx="663.038" cy="84.2692" r="4.26923" fill="#D9D9D9"/>
<circle cx="663.038" cy="98.5002" r="4.26923" fill="#D9D9D9"/>
<circle cx="663.038" cy="112.731" r="4.26923" fill="#D9D9D9"/>
<circle cx="577.654" cy="84.2692" r="4.26923" fill="#D9D9D9"/>
<circle cx="577.654" cy="98.5002" r="4.26923" fill="#D9D9D9"/>
<circle cx="577.654" cy="112.731" r="4.26923" fill="#D9D9D9"/>
<circle cx="748.423" cy="84.2692" r="4.26923" fill="#D9D9D9"/>
<circle cx="748.423" cy="98.5002" r="4.26923" fill="#D9D9D9"/>
<circle cx="748.423" cy="112.731" r="4.26923" fill="#D9D9D9"/>
<circle cx="534.962" cy="84.2692" r="4.26923" fill="#2C2C2C"/>
<circle cx="534.962" cy="98.5002" r="4.26923" fill="#2C2C2C"/>
<circle cx="534.962" cy="112.731" r="4.26923" fill="#D9D9D9"/>
<circle cx="705.731" cy="84.2692" r="4.26923" fill="#D9D9D9"/>
<circle cx="705.731" cy="98.5002" r="4.26923" fill="#D9D9D9"/>
<circle cx="705.731" cy="112.731" r="4.26923" fill="#D9D9D9"/>
<circle cx="620.346" cy="84.2692" r="4.26923" fill="#D9D9D9"/>
<circle cx="620.346" cy="98.5002" r="4.26923" fill="#D9D9D9"/>
<circle cx="620.346" cy="112.731" r="4.26923" fill="#D9D9D9"/>
<circle cx="791.115" cy="84.2692" r="4.26923" fill="#D9D9D9"/>
<circle cx="506.5" cy="84.2692" r="4.26923" fill="#2C2C2C"/>
<circle cx="506.5" cy="98.5002" r="4.26923" fill="#2C2C2C"/>
<circle cx="506.5" cy="112.731" r="4.26923" fill="#2C2C2C"/>
<circle cx="677.269" cy="84.2692" r="4.26923" fill="#D9D9D9"/>
<circle cx="677.269" cy="98.5002" r="4.26923" fill="#D9D9D9"/>
<circle cx="677.269" cy="112.731" r="4.26923" fill="#D9D9D9"/>
<circle cx="591.884" cy="84.2692" r="4.26923" fill="#D9D9D9"/>
<circle cx="591.884" cy="98.5002" r="4.26923" fill="#D9D9D9"/>
<circle cx="591.884" cy="112.731" r="4.26923" fill="#D9D9D9"/>
<circle cx="762.654" cy="84.2692" r="4.26923" fill="#D9D9D9"/>
<circle cx="762.654" cy="98.5002" r="4.26923" fill="#D9D9D9"/>
<circle cx="762.654" cy="112.731" r="4.26923" fill="#D9D9D9"/>
<circle cx="549.192" cy="84.2692" r="4.26923" fill="#D9D9D9"/>
<circle cx="549.192" cy="98.5002" r="4.26923" fill="#D9D9D9"/>
<circle cx="549.192" cy="112.731" r="4.26923" fill="#D9D9D9"/>
<circle cx="719.962" cy="84.2692" r="4.26923" fill="#D9D9D9"/>
<circle cx="719.962" cy="98.5002" r="4.26923" fill="#D9D9D9"/>
<circle cx="719.962" cy="112.731" r="4.26923" fill="#D9D9D9"/>
<circle cx="634.577" cy="84.2692" r="4.26923" fill="#D9D9D9"/>
<circle cx="634.577" cy="98.5002" r="4.26923" fill="#D9D9D9"/>
<circle cx="634.577" cy="112.731" r="4.26923" fill="#D9D9D9"/>
<circle cx="520.731" cy="84.2692" r="4.26923" fill="#2C2C2C"/>
<circle cx="520.731" cy="98.5002" r="4.26923" fill="#2C2C2C"/>
<circle cx="520.731" cy="112.731" r="4.26923" fill="#2C2C2C"/>
<circle cx="691.5" cy="84.2692" r="4.26923" fill="#D9D9D9"/>
<circle cx="691.5" cy="98.5002" r="4.26923" fill="#D9D9D9"/>
<circle cx="691.5" cy="112.731" r="4.26923" fill="#D9D9D9"/>
<circle cx="606.115" cy="84.2692" r="4.26923" fill="#D9D9D9"/>
<circle cx="606.115" cy="98.5002" r="4.26923" fill="#D9D9D9"/>
<circle cx="606.115" cy="112.731" r="4.26923" fill="#D9D9D9"/>
<circle cx="776.884" cy="84.2692" r="4.26923" fill="#D9D9D9"/>
<circle cx="776.884" cy="98.5002" r="4.26923" fill="#D9D9D9"/>
<circle cx="776.884" cy="112.731" r="4.26923" fill="#D9D9D9"/>
<circle cx="563.423" cy="84.2692" r="4.26923" fill="#D9D9D9"/>
<circle cx="563.423" cy="98.5002" r="4.26923" fill="#D9D9D9"/>
<circle cx="563.423" cy="112.731" r="4.26923" fill="#D9D9D9"/>
<circle cx="734.192" cy="84.2692" r="4.26923" fill="#D9D9D9"/>
<circle cx="734.192" cy="98.5002" r="4.26923" fill="#D9D9D9"/>
<circle cx="734.192" cy="112.731" r="4.26923" fill="#D9D9D9"/>
<circle cx="648.808" cy="84.2692" r="4.26923" fill="#D9D9D9"/>
<circle cx="648.808" cy="98.5002" r="4.26923" fill="#D9D9D9"/>
<circle cx="648.808" cy="112.731" r="4.26923" fill="#D9D9D9"/>
<path d="M436 46L436 192" stroke="#CACACA" stroke-width="0.8" stroke-linecap="round"/>
</svg>
