<svg width="26" height="26" viewBox="0 0 26 26" fill="none" xmlns="http://www.w3.org/2000/svg">
<path d="M17.8748 18.4167H9.74984C8.60057 18.4167 7.49837 17.9601 6.68571 17.1474C5.87305 16.3348 5.4165 15.2326 5.4165 14.0833C5.4165 12.934 5.87305 11.8318 6.68571 11.0192C7.49837 10.2065 8.60057 9.74999 9.74984 9.74999H9.84084C10.3233 9.07605 10.9603 8.52759 11.6984 8.15061C12.4366 7.77362 13.2543 7.57909 14.0832 7.58332C15.1761 7.58322 16.2432 7.91491 17.1435 8.5345C18.0438 9.15409 18.7347 10.0324 19.125 11.0532C19.8693 11.3075 20.5149 11.789 20.9709 12.4299C21.4269 13.0707 21.6702 13.8385 21.6665 14.625C21.6654 15.6302 21.2655 16.594 20.5547 17.3048C19.8439 18.0157 18.8801 18.4155 17.8748 18.4167ZM9.74984 11.9167C9.1752 11.9167 8.6241 12.1449 8.21777 12.5513C7.81144 12.9576 7.58317 13.5087 7.58317 14.0833C7.58317 14.658 7.81144 15.2091 8.21777 15.6154C8.6241 16.0217 9.1752 16.25 9.74984 16.25H17.8748C18.3056 16.2494 18.7186 16.078 19.0233 15.7734C19.3279 15.4688 19.4993 15.0558 19.4998 14.625C19.5005 14.2366 19.3608 13.861 19.1063 13.5676C18.8519 13.2741 18.4999 13.0825 18.1153 13.0282L17.3993 12.9209L17.2238 12.2178C17.0742 11.5843 16.7351 11.0114 16.2518 10.5754C15.7685 10.1394 15.1638 9.86093 14.5183 9.77716C13.8728 9.6934 13.217 9.80828 12.6384 10.1065C12.0598 10.4047 11.5858 10.8721 11.2795 11.4465L10.9567 11.9167H9.74984Z" fill="#B8B8B8"/>
<path d="M13 0L12.285 0.0325L16.4125 4.16L17.875 2.70833C21.3959 4.40917 23.9309 7.84333 24.3209 11.9167H25.9459C25.3934 5.24333 19.8142 0 13 0ZM0.0541992 14.0833C0.606699 20.7567 6.18587 26 13 26L13.715 25.9675L9.58753 21.84L8.12503 23.2917C4.6042 21.6017 2.0692 18.1567 1.6792 14.0833H0.0541992Z" fill="#B8B8B8"/>
</svg>
