<svg width="26" height="26" viewBox="0 0 26 26" fill="none" xmlns="http://www.w3.org/2000/svg">
<path d="M17.8748 18.4174H9.74984C8.60057 18.4174 7.49837 17.9608 6.68571 17.1482C5.87305 16.3355 5.4165 15.2333 5.4165 14.0841C5.4165 12.9348 5.87305 11.8326 6.68571 11.0199C7.49837 10.2073 8.60057 9.75072 9.74984 9.75072H9.84084C10.3233 9.07678 10.9603 8.52833 11.6984 8.15134C12.4366 7.77435 13.2543 7.57982 14.0832 7.58405C15.1761 7.58395 16.2432 7.91564 17.1435 8.53523C18.0438 9.15483 18.7347 10.0331 19.125 11.054C19.8693 11.3083 20.5149 11.7898 20.9709 12.4306C21.4269 13.0714 21.6702 13.8392 21.6665 14.6257C21.6654 15.631 21.2655 16.5947 20.5547 17.3056C19.8439 18.0164 18.8801 18.4162 17.8748 18.4174ZM9.74984 11.9174C9.1752 11.9174 8.6241 12.1457 8.21777 12.552C7.81144 12.9583 7.58317 13.5094 7.58317 14.0841C7.58317 14.6587 7.81144 15.2098 8.21777 15.6161C8.6241 16.0224 9.1752 16.2507 9.74984 16.2507H17.8748C18.3056 16.2501 18.7186 16.0788 19.0233 15.7741C19.3279 15.4695 19.4993 15.0565 19.4998 14.6257C19.5005 14.2373 19.3608 13.8618 19.1063 13.5683C18.8519 13.2748 18.4999 13.0833 18.1153 13.0289L17.3993 12.9216L17.2238 12.2186C17.0742 11.585 16.7351 11.0121 16.2518 10.5761C15.7685 10.1401 15.1638 9.86166 14.5183 9.7779C13.8728 9.69413 13.217 9.80901 12.6384 10.1072C12.0598 10.4055 11.5858 10.8729 11.2795 11.4472L10.9567 11.9174H9.74984Z" fill="#15C3A1"/>
<path d="M13 0L12.285 0.0325L16.4125 4.16L17.875 2.70833C21.3959 4.40917 23.9309 7.84333 24.3209 11.9167H25.9459C25.3934 5.24333 19.8142 0 13 0ZM0.0541992 14.0833C0.606699 20.7567 6.18587 26 13 26L13.715 25.9675L9.58753 21.84L8.12503 23.2917C4.6042 21.6017 2.0692 18.1567 1.6792 14.0833H0.0541992Z" fill="#15C3A1"/>
</svg>
