<svg width="26" height="26" viewBox="0 0 26 26" fill="none" xmlns="http://www.w3.org/2000/svg">
<path d="M13 0L12.285 0.0325L16.4125 4.16L17.875 2.70833C21.3959 4.40917 23.9309 7.84333 24.3209 11.9167H25.9459C25.3934 5.24333 19.8142 0 13 0ZM13 4.33333C10.9092 4.33333 9.20837 6.03417 9.20837 8.125C9.20837 10.2158 10.9092 11.9167 13 11.9167C15.0909 11.9167 16.7917 10.2158 16.7917 8.125C16.7917 6.03417 15.0909 4.33333 13 4.33333ZM0.0541992 14.0833C0.606699 20.7567 6.18587 26 13 26L13.715 25.9675L9.58753 21.84L8.12503 23.2917C4.6042 21.6017 2.0692 18.1567 1.6792 14.0833H0.0541992ZM13 14.0833C8.80753 14.0833 5.4167 15.7842 5.4167 17.875V19.5H20.5834V17.875C20.5834 15.7842 17.1925 14.0833 13 14.0833Z" fill="#B8B8B8"/>
</svg>
