<svg width="32" height="32" viewBox="0 0 32 32" fill="none" xmlns="http://www.w3.org/2000/svg">
<path d="M6.5 7H20.5C21.6935 7 22.8381 7.47411 23.682 8.31802C24.5259 9.16193 25 10.3065 25 11.5V25.5C25 26.6935 24.5259 27.8381 23.682 28.682C22.8381 29.5259 21.6935 30 20.5 30H6.5C5.30653 30 4.16193 29.5259 3.31802 28.682C2.47411 27.8381 2 26.6935 2 25.5V11.5C2 10.3065 2.47411 9.16193 3.31802 8.31802C4.16193 7.47411 5.30653 7 6.5 7ZM8.52813 19.5H12.5V23.4719C12.5 24.01 12.9138 24.4719 13.4519 24.4988C13.5871 24.5053 13.7222 24.4843 13.8491 24.437C13.9759 24.3898 14.0919 24.3172 14.1898 24.2239C14.2878 24.1305 14.3659 24.0182 14.4192 23.8937C14.4725 23.7693 14.5 23.6354 14.5 23.5V19.5H18.4719C19.01 19.5 19.4719 19.0862 19.4987 18.5481C19.5053 18.4129 19.4843 18.2778 19.437 18.1509C19.3898 18.0241 19.3172 17.9081 19.2239 17.8102C19.1305 17.7122 19.0182 17.6341 18.8937 17.5808C18.7693 17.5275 18.6354 17.5 18.5 17.5H14.5V13.5281C14.5 12.99 14.0862 12.5281 13.5481 12.5013C13.4129 12.4947 13.2778 12.5157 13.1509 12.563C13.0241 12.6102 12.9081 12.6828 12.8102 12.7761C12.7122 12.8695 12.6341 12.9818 12.5808 13.1063C12.5275 13.2307 12.5 13.3646 12.5 13.5V17.5H8.5C8.36453 17.4998 8.23044 17.5272 8.10587 17.5805C7.98129 17.6337 7.86884 17.7117 7.77532 17.8097C7.6818 17.9077 7.60918 18.0237 7.56185 18.1506C7.51452 18.2776 7.49348 18.4128 7.5 18.5481C7.52625 19.0862 7.99 19.5 8.52813 19.5Z" fill="#DCDCDC"/>
<path d="M7.2575 5C7.56863 4.12328 8.14341 3.3643 8.90298 2.82718C9.66255 2.29006 10.5697 2.00112 11.5 2H25.5C26.6935 2 27.8381 2.47411 28.682 3.31802C29.5259 4.16193 30 5.30653 30 6.5V20.5C29.9989 21.4303 29.7099 22.3374 29.1728 23.097C28.6357 23.8566 27.8767 24.4314 27 24.7425V10C27 8.67392 26.4732 7.40215 25.5355 6.46447C24.5979 5.52678 23.3261 5 22 5H7.2575Z" fill="#DCDCDC"/>
</svg>
