<svg width="80" height="260" viewBox="0 0 80 260" fill="none" xmlns="http://www.w3.org/2000/svg">
<path d="M51.5 0H59C70.598 0 80 9.40202 80 21V239C80 250.598 70.598 260 59 260H51.5C51.5 260 0.5 241.5 0.5 126C0.5 10.5 51.5 0 51.5 0Z" fill="#A6A6A6"/>
<path d="M32 148C30.9 148 29.9587 147.609 29.176 146.826C28.392 146.042 28 145.1 28 144V118C27.4333 118 26.958 117.809 26.574 117.426C26.1913 117.042 26 116.567 26 116C26 115.433 26.1913 114.958 26.574 114.574C26.958 114.191 27.4333 114 28 114H36C36 113.433 36.192 112.958 36.576 112.574C36.9587 112.191 37.4333 112 38 112H46C46.5667 112 47.042 112.191 47.426 112.574C47.8087 112.958 48 113.433 48 114H56C56.5667 114 57.0413 114.191 57.424 114.574C57.808 114.958 58 115.433 58 116C58 116.567 57.808 117.042 57.424 117.426C57.0413 117.809 56.5667 118 56 118V144C56 145.1 55.6087 146.042 54.826 146.826C54.042 147.609 53.1 148 52 148H32ZM36 138C36 138.567 36.192 139.041 36.576 139.424C36.9587 139.808 37.4333 140 38 140C38.5667 140 39.042 139.808 39.426 139.424C39.8087 139.041 40 138.567 40 138V124C40 123.433 39.8087 122.958 39.426 122.574C39.042 122.191 38.5667 122 38 122C37.4333 122 36.9587 122.191 36.576 122.574C36.192 122.958 36 123.433 36 124V138ZM44 138C44 138.567 44.192 139.041 44.576 139.424C44.9587 139.808 45.4333 140 46 140C46.5667 140 47.042 139.808 47.426 139.424C47.8087 139.041 48 138.567 48 138V124C48 123.433 47.8087 122.958 47.426 122.574C47.042 122.191 46.5667 122 46 122C45.4333 122 44.9587 122.191 44.576 122.574C44.192 122.958 44 123.433 44 124V138Z" fill="#C0C0C0"/>
</svg>
