<svg width="18" height="18" viewBox="0 0 18 18" fill="none" xmlns="http://www.w3.org/2000/svg">
<rect x="0.5" y="0.5" width="17" height="17" rx="1.5" fill="#15C3A1" stroke="black"/>
<path d="M13.678 5.46668L9.17804 3.96668C9.0628 3.92777 8.93797 3.92777 8.82273 3.96668L4.32273 5.46668C4.21535 5.50224 4.12119 5.56935 4.05254 5.65924C3.98389 5.74913 3.94393 5.85763 3.93788 5.97058C3.93737 5.98042 3.93737 5.99028 3.93788 6.00011V9.75011C3.93788 9.8993 3.99715 10.0424 4.10264 10.1479C4.20813 10.2534 4.3512 10.3126 4.50038 10.3126C4.64957 10.3126 4.79264 10.2534 4.89813 10.1479C5.00362 10.0424 5.06288 9.8993 5.06288 9.75011V6.78058L6.17429 7.1509C5.82936 7.81113 5.72686 8.5714 5.88463 9.29941C6.04239 10.0274 6.45043 10.6771 7.03773 11.1353C6.26918 11.5143 5.61874 12.096 5.15663 12.8176C5.11502 12.8795 5.08612 12.949 5.0716 13.0221C5.05708 13.0952 5.05725 13.1705 5.07208 13.2435C5.08691 13.3166 5.11611 13.386 5.15799 13.4476C5.19988 13.5093 5.2536 13.562 5.31603 13.6028C5.37847 13.6435 5.44838 13.6714 5.5217 13.6849C5.59502 13.6983 5.67029 13.6971 5.74312 13.6812C5.81596 13.6653 5.88491 13.6351 5.94598 13.5924C6.00704 13.5496 6.05899 13.4952 6.09882 13.4321C6.76773 12.4028 7.82851 11.8126 9.00038 11.8126C10.1723 11.8126 11.233 12.4028 11.9043 13.4321C11.9441 13.4952 11.9961 13.5496 12.0571 13.5924C12.1182 13.6351 12.1872 13.6653 12.26 13.6812C12.3328 13.6971 12.4081 13.6983 12.4814 13.6849C12.5547 13.6714 12.6246 13.6435 12.6871 13.6028C12.7495 13.562 12.8032 13.5093 12.8451 13.4476C12.887 13.386 12.9162 13.3166 12.931 13.2435C12.9459 13.1705 12.946 13.0952 12.9315 13.0221C12.917 12.949 12.8881 12.8795 12.8465 12.8176C12.3839 12.0951 11.7326 11.5129 10.963 11.1339C11.5503 10.6757 11.9584 10.026 12.1161 9.298C12.2739 8.57 12.1714 7.80972 11.8265 7.14949L13.678 6.53214C13.7899 6.49472 13.8872 6.42308 13.9561 6.32736C14.025 6.23163 14.0621 6.11666 14.0621 5.99871C14.0621 5.88075 14.025 5.76579 13.9561 5.67006C13.8872 5.57433 13.7899 5.50269 13.678 5.46527V5.46668ZM9.00038 5.09168L11.7215 6.00011L9.00038 6.90714L6.28163 6.00011L9.00038 5.09168ZM11.0629 8.62511C11.0629 8.94547 10.9884 9.26144 10.8451 9.54797C10.7018 9.8345 10.4937 10.0837 10.2374 10.2759C9.98106 10.468 9.68349 10.5978 9.36826 10.6549C9.05304 10.7121 8.72884 10.695 8.42137 10.6051C8.11389 10.5151 7.83159 10.3548 7.59685 10.1368C7.36211 9.91878 7.18138 9.64909 7.06898 9.3491C6.95659 9.0491 6.91562 8.72705 6.94934 8.40847C6.98305 8.08989 7.09051 7.78354 7.2632 7.51371L8.82273 8.03355C8.93799 8.07231 9.06277 8.07231 9.17804 8.03355L10.7376 7.51371C10.9503 7.84534 11.0632 8.23112 11.0629 8.62511Z" fill="black"/>
</svg>
