<svg width="18" height="18" viewBox="0 0 18 18" fill="none" xmlns="http://www.w3.org/2000/svg">
<rect x="0.5" y="0.5" width="17" height="17" rx="1.5" fill="#15C3A1" stroke="black"/>
<path d="M5.625 6.9375C5.625 6.78832 5.68426 6.64524 5.78975 6.53975C5.89524 6.43426 6.03832 6.375 6.1875 6.375H11.8125C11.9617 6.375 12.1048 6.43426 12.2102 6.53975C12.3157 6.64524 12.375 6.78832 12.375 6.9375V11.0625C12.375 11.2117 12.3157 11.3548 12.2102 11.4602C12.1048 11.5657 11.9617 11.625 11.8125 11.625C11.6633 11.625 11.5202 11.5657 11.4148 11.4602C11.3093 11.3548 11.25 11.2117 11.25 11.0625V7.5H6.1875C6.03832 7.5 5.89524 7.44074 5.78975 7.33525C5.68426 7.22976 5.625 7.08668 5.625 6.9375ZM14.0625 5.625V12.375C14.0625 12.6236 13.9637 12.8621 13.7879 13.0379C13.6121 13.2137 13.3736 13.3125 13.125 13.3125H9.99656C9.87806 13.3125 9.76259 13.275 9.66663 13.2055C9.57067 13.136 9.49912 13.0379 9.46219 12.9253C9.34451 12.5986 9.12889 12.3161 8.84476 12.1165C8.56062 11.9168 8.2218 11.8097 7.87453 11.8097C7.52726 11.8097 7.18844 11.9168 6.90431 12.1165C6.62017 12.3161 6.40456 12.5986 6.28688 12.9253C6.24999 13.0378 6.17858 13.1357 6.08281 13.2052C5.98704 13.2747 5.87178 13.3123 5.75344 13.3125H4.875C4.62636 13.3125 4.3879 13.2137 4.21209 13.0379C4.03627 12.8621 3.9375 12.6236 3.9375 12.375V5.625C3.9375 5.37636 4.03627 5.1379 4.21209 4.96209C4.3879 4.78627 4.62636 4.6875 4.875 4.6875H13.125C13.3736 4.6875 13.6121 4.78627 13.7879 4.96209C13.9637 5.1379 14.0625 5.37636 14.0625 5.625ZM7.875 10.6875C8.02334 10.6875 8.16834 10.6435 8.29168 10.5611C8.41501 10.4787 8.51114 10.3616 8.56791 10.2245C8.62468 10.0875 8.63953 9.93667 8.61059 9.79118C8.58165 9.6457 8.51022 9.51206 8.40533 9.40717C8.30044 9.30228 8.1668 9.23085 8.02132 9.20191C7.87583 9.17297 7.72503 9.18782 7.58799 9.24459C7.45094 9.30136 7.33381 9.39749 7.2514 9.52082C7.16899 9.64416 7.125 9.78916 7.125 9.9375C7.125 10.1364 7.20402 10.3272 7.34467 10.4678C7.48532 10.6085 7.67609 10.6875 7.875 10.6875ZM12.9375 5.8125H5.0625V12.1875H5.38687C5.62346 11.7408 5.97574 11.3658 6.40688 11.1019C6.18752 10.8258 6.05049 10.4934 6.0115 10.1429C5.97251 9.79242 6.03314 9.43804 6.18645 9.12047C6.33975 8.80289 6.57951 8.53499 6.87818 8.34751C7.17686 8.16003 7.52236 8.06058 7.875 8.06058C8.22764 8.06058 8.57314 8.16003 8.87182 8.34751C9.17049 8.53499 9.41025 8.80289 9.56355 9.12047C9.71686 9.43804 9.77749 9.79242 9.7385 10.1429C9.69951 10.4934 9.56248 10.8258 9.34313 11.1019C9.77426 11.3658 10.1265 11.7408 10.3631 12.1875H12.9375V5.8125Z" fill="black"/>
</svg>
