<svg width="18" height="18" viewBox="0 0 18 18" fill="none" xmlns="http://www.w3.org/2000/svg">
<rect x="0.5" y="0.5" width="17" height="17" rx="1.5" fill="#15C3A1" stroke="black"/>
<path d="M12.6359 8C12.5693 8 12.5151 7.98117 12.4734 7.9435C12.4318 7.90584 12.4026 7.858 12.3859 7.8L12.3234 7.475C12.2484 7.45 12.1798 7.41867 12.1174 7.381C12.0551 7.34334 11.9988 7.29967 11.9484 7.25L11.6109 7.3625C11.5526 7.37917 11.4984 7.377 11.4484 7.356C11.3984 7.335 11.3568 7.29967 11.3234 7.25L11.1734 7C11.1401 6.95 11.1276 6.89584 11.1359 6.8375C11.1443 6.77917 11.1734 6.72917 11.2234 6.6875L11.4984 6.45C11.4818 6.40834 11.4734 6.375 11.4734 6.35V6.15C11.4734 6.125 11.4818 6.09167 11.4984 6.05L11.2234 5.8125C11.1734 5.77084 11.1443 5.72084 11.1359 5.6625C11.1276 5.60417 11.1401 5.55 11.1734 5.5L11.3234 5.25C11.3568 5.2 11.3984 5.1645 11.4484 5.1435C11.4984 5.1225 11.5526 5.1205 11.6109 5.1375L11.9484 5.25C11.9984 5.2 12.0548 5.15617 12.1174 5.1185C12.1801 5.08084 12.2488 5.04967 12.3234 5.025L12.3859 4.7C12.4026 4.64167 12.4318 4.59367 12.4734 4.556C12.5151 4.51834 12.5693 4.49967 12.6359 4.5H12.9109C12.9776 4.5 13.0318 4.51884 13.0734 4.5565C13.1151 4.59417 13.1443 4.642 13.1609 4.7L13.2234 5.025C13.2984 5.05 13.3673 5.08134 13.4299 5.119C13.4926 5.15667 13.5488 5.20034 13.5984 5.25L13.9359 5.1375C13.9943 5.12084 14.0484 5.123 14.0984 5.144C14.1484 5.165 14.1901 5.20034 14.2234 5.25L14.3734 5.5C14.4068 5.55 14.4193 5.60417 14.4109 5.6625C14.4026 5.72084 14.3734 5.77084 14.3234 5.8125L14.0484 6.05C14.0651 6.09167 14.0734 6.125 14.0734 6.15V6.35C14.0734 6.375 14.0651 6.40834 14.0484 6.45L14.3234 6.6875C14.3734 6.72917 14.4026 6.77917 14.4109 6.8375C14.4193 6.89584 14.4068 6.95 14.3734 7L14.2234 7.25C14.1901 7.3 14.1484 7.3355 14.0984 7.3565C14.0484 7.3775 13.9943 7.3795 13.9359 7.3625L13.5984 7.25C13.5484 7.3 13.4923 7.34384 13.4299 7.3815C13.3676 7.41917 13.2988 7.45034 13.2234 7.475L13.1609 7.8C13.1443 7.85834 13.1151 7.90634 13.0734 7.944C13.0318 7.98167 12.9776 8.00034 12.9109 8H12.6359ZM12.7734 6.875C12.9484 6.875 13.0964 6.8145 13.2174 6.6935C13.3384 6.5725 13.3988 6.42467 13.3984 6.25C13.3984 6.075 13.3379 5.927 13.2169 5.806C13.0959 5.685 12.9481 5.62467 12.7734 5.625C12.5984 5.625 12.4504 5.6855 12.3294 5.8065C12.2084 5.9275 12.1481 6.07534 12.1484 6.25C12.1484 6.425 12.2089 6.573 12.3299 6.694C12.4509 6.815 12.5988 6.87534 12.7734 6.875ZM11.3734 10.5C11.3568 10.5 11.3151 10.4667 11.2484 10.4L11.1984 10.125C11.1484 10.1083 11.1004 10.0895 11.0544 10.0685C11.0084 10.0475 10.9648 10.0163 10.9234 9.975L10.6734 10.0625L10.5234 10.0125L10.3734 9.7375C10.3651 9.72917 10.3734 9.67917 10.3984 9.5875L10.5984 9.4V9.1L10.3984 8.9125C10.3901 8.90417 10.3818 8.85417 10.3734 8.7625L10.5234 8.4875L10.6734 8.4375L10.9234 8.525C10.9568 8.49167 10.9984 8.4625 11.0484 8.4375C11.0984 8.4125 11.1484 8.39167 11.1984 8.375L11.2484 8.1C11.2484 8.08334 11.2901 8.05 11.3734 8H11.6734C11.6901 8 11.7318 8.03334 11.7984 8.1L11.8484 8.375C11.8984 8.39167 11.9484 8.4125 11.9984 8.4375C12.0484 8.4625 12.0901 8.49167 12.1234 8.525L12.3734 8.4375L12.5234 8.4875L12.6734 8.7625C12.6818 8.77084 12.6734 8.82084 12.6484 8.9125L12.4484 9.1V9.4L12.6484 9.5875C12.6568 9.59584 12.6651 9.64584 12.6734 9.7375L12.5234 10.0125L12.3734 10.0625L12.1234 9.975C12.0818 10.0167 12.0381 10.048 11.9924 10.069C11.9468 10.09 11.8988 10.1087 11.8484 10.125L11.7984 10.4C11.7984 10.4167 11.7568 10.45 11.6734 10.5H11.3734ZM11.5234 9.625C11.6234 9.625 11.7109 9.5875 11.7859 9.5125C11.8609 9.4375 11.8984 9.35 11.8984 9.25C11.8984 9.15 11.8609 9.0625 11.7859 8.9875C11.7109 8.9125 11.6234 8.875 11.5234 8.875C11.4234 8.875 11.3359 8.9125 11.2609 8.9875C11.1859 9.0625 11.1484 9.15 11.1484 9.25C11.1484 9.35 11.1859 9.4375 11.2609 9.5125C11.3359 9.5875 11.4234 9.625 11.5234 9.625ZM7.52344 9.5C6.97344 9.5 6.5026 9.30417 6.11094 8.9125C5.71927 8.52084 5.52344 8.05 5.52344 7.5H5.39844C5.32344 7.5 5.2631 7.477 5.21744 7.431C5.17177 7.385 5.14877 7.32467 5.14844 7.25C5.14844 7.175 5.17144 7.1145 5.21744 7.0685C5.26344 7.0225 5.32377 6.99967 5.39844 7H5.52344C5.52344 6.625 5.6151 6.2875 5.79844 5.9875C5.98177 5.6875 6.22344 5.45 6.52344 5.275V5.75C6.52344 5.825 6.54644 5.8855 6.59244 5.9315C6.63844 5.9775 6.69877 6.00034 6.77344 6C6.84844 6 6.90894 5.977 6.95494 5.931C7.00094 5.885 7.02377 5.82467 7.02344 5.75V5.075C7.09844 5.05 7.1776 5.03117 7.26094 5.0185C7.34427 5.00584 7.43177 4.99967 7.52344 5C7.6151 5 7.7026 5.00634 7.78594 5.019C7.86927 5.03167 7.94844 5.05034 8.02344 5.075V5.75C8.02344 5.825 8.04644 5.8855 8.09244 5.9315C8.13844 5.9775 8.19877 6.00034 8.27344 6C8.34844 6 8.40894 5.977 8.45494 5.931C8.50094 5.885 8.52377 5.82467 8.52344 5.75V5.275C8.82344 5.45 9.0651 5.6875 9.24844 5.9875C9.43177 6.2875 9.52344 6.625 9.52344 7H9.64844C9.72344 7 9.78394 7.023 9.82994 7.069C9.87594 7.115 9.89877 7.17534 9.89844 7.25C9.89844 7.325 9.87544 7.3855 9.82944 7.4315C9.78344 7.4775 9.7231 7.50034 9.64844 7.5H9.52344C9.52344 8.05 9.3276 8.52084 8.93594 8.9125C8.54427 9.30417 8.07344 9.5 7.52344 9.5ZM7.52344 8.5C7.79844 8.5 8.03394 8.402 8.22994 8.206C8.42594 8.01 8.52377 7.77467 8.52344 7.5H6.52344C6.52344 7.775 6.62144 8.0105 6.81744 8.2065C7.01344 8.4025 7.24877 8.50034 7.52344 8.5ZM3.52344 13.5V12.1C3.52344 11.825 3.59427 11.5667 3.73594 11.325C3.8776 11.0833 4.07344 10.9 4.32344 10.775C4.74844 10.5583 5.2276 10.375 5.76094 10.225C6.29427 10.075 6.88177 10 7.52344 10C8.1651 10 8.7526 10.075 9.28594 10.225C9.81927 10.375 10.2984 10.5583 10.7234 10.775C10.9734 10.9 11.1693 11.0833 11.3109 11.325C11.4526 11.5667 11.5234 11.825 11.5234 12.1V13.5H3.52344ZM4.52344 12.5H10.5234V12.1C10.5234 12.0083 10.5004 11.925 10.4544 11.85C10.4084 11.775 10.3481 11.7167 10.2734 11.675C9.97344 11.525 9.58794 11.375 9.11694 11.225C8.64594 11.075 8.11477 11 7.52344 11C6.93177 11 6.40044 11.075 5.92944 11.225C5.45844 11.375 5.0731 11.525 4.77344 11.675C4.69844 11.7167 4.6381 11.775 4.59244 11.85C4.54677 11.925 4.52377 12.0083 4.52344 12.1V12.5Z" fill="black"/>
</svg>
