<svg width="1216" height="676" viewBox="0 0 1216 676" fill="none" xmlns="http://www.w3.org/2000/svg">
<rect width="1216" height="676" rx="20" fill="white"/>
<path d="M0 55H1216" stroke="#BCBCBC" stroke-width="0.8"/>
<path d="M0 95H1216" stroke="#E1E1E1" stroke-width="0.4"/>
<path d="M0 15H1216" stroke="#E1E1E1" stroke-width="0.4"/>
<path d="M0 255H1216" stroke="#E1E1E1" stroke-width="0.4"/>
<path d="M0 415H1216" stroke="#E1E1E1" stroke-width="0.4"/>
<path d="M0 575H1216" stroke="#E1E1E1" stroke-width="0.4"/>
<path d="M0 175H1216" stroke="#E1E1E1" stroke-width="0.4"/>
<path d="M0 335H1216" stroke="#E1E1E1" stroke-width="0.4"/>
<path d="M0 495H1216" stroke="#E1E1E1" stroke-width="0.4"/>
<path d="M0 656L1216 655" stroke="#E1E1E1" stroke-width="0.4"/>
<path d="M0 135H1216" stroke="#E1E1E1" stroke-width="0.4"/>
<path d="M0 295H1216" stroke="#E1E1E1" stroke-width="0.4"/>
<path d="M0 455H1216" stroke="#E1E1E1" stroke-width="0.4"/>
<path d="M0 615H1216" stroke="#E1E1E1" stroke-width="0.4"/>
<path d="M0 75H1216" stroke="#E1E1E1" stroke-width="0.4"/>
<path d="M0 235H1216" stroke="#E1E1E1" stroke-width="0.4"/>
<path d="M0 395H1216" stroke="#E1E1E1" stroke-width="0.4"/>
<path d="M0 555H1216" stroke="#E1E1E1" stroke-width="0.4"/>
<path d="M0 155H1216" stroke="#E1E1E1" stroke-width="0.4"/>
<path d="M0 315H1216" stroke="#E1E1E1" stroke-width="0.4"/>
<path d="M0 475H1216" stroke="#E1E1E1" stroke-width="0.4"/>
<path d="M0 635H1216" stroke="#E1E1E1" stroke-width="0.4"/>
<path d="M0 115H1216" stroke="#E1E1E1" stroke-width="0.4"/>
<path d="M0 35H1216" stroke="#E1E1E1" stroke-width="0.4"/>
<path d="M0 275H1216" stroke="#E1E1E1" stroke-width="0.4"/>
<path d="M0 435H1216" stroke="#E1E1E1" stroke-width="0.4"/>
<path d="M0 595H1216" stroke="#E1E1E1" stroke-width="0.4"/>
<path d="M0 195H1216" stroke="#E1E1E1" stroke-width="0.4"/>
<path d="M0 355H1216" stroke="#E1E1E1" stroke-width="0.4"/>
<path d="M0 515H1216" stroke="#E1E1E1" stroke-width="0.4"/>
<path d="M0 215H1216" stroke="#BCBCBC" stroke-width="0.8"/>
<path d="M0 375H1216" stroke="#BCBCBC" stroke-width="0.8"/>
<path d="M0 535H1216" stroke="#BCBCBC" stroke-width="0.8"/>
<path d="M5 676L5 2.01464e-05" stroke="#E1E1E1" stroke-width="0.4"/>
<path d="M165 676L165 2.01464e-05" stroke="#E1E1E1" stroke-width="0.4"/>
<path d="M325 676L325 2.01464e-05" stroke="#E1E1E1" stroke-width="0.4"/>
<path d="M485 676L485 2.01464e-05" stroke="#E1E1E1" stroke-width="0.4"/>
<path d="M646 676V2.01464e-05" stroke="#E1E1E1" stroke-width="0.4"/>
<path d="M807 676V2.01464e-05" stroke="#E1E1E1" stroke-width="0.4"/>
<path d="M968 676V2.01464e-05" stroke="#E1E1E1" stroke-width="0.4"/>
<path d="M1129 676V2.01464e-05" stroke="#E1E1E1" stroke-width="0.4"/>
<path d="M85 676L85 2.01464e-05" stroke="#E1E1E1" stroke-width="0.4"/>
<path d="M245 676L245 2.01464e-05" stroke="#E1E1E1" stroke-width="0.4"/>
<path d="M405 676L405 2.01464e-05" stroke="#E1E1E1" stroke-width="0.4"/>
<path d="M566 676L564.911 0.000149847" stroke="#E1E1E1" stroke-width="0.4"/>
<path d="M727 676L725.911 0.000149847" stroke="#E1E1E1" stroke-width="0.4"/>
<path d="M888 676L886.911 0.000149847" stroke="#E1E1E1" stroke-width="0.4"/>
<path d="M1049 676L1047.91 0.000149847" stroke="#E1E1E1" stroke-width="0.4"/>
<path d="M1210 676L1208.91 0.000149847" stroke="#E1E1E1" stroke-width="0.4"/>
<path d="M45 676L45 2.01464e-05" stroke="#E1E1E1" stroke-width="0.4"/>
<path d="M205 676L205 2.01464e-05" stroke="#E1E1E1" stroke-width="0.4"/>
<path d="M365 676L365 2.01464e-05" stroke="#E1E1E1" stroke-width="0.4"/>
<path d="M525 676V2.01464e-05" stroke="#E1E1E1" stroke-width="0.4"/>
<path d="M686 676V2.01464e-05" stroke="#E1E1E1" stroke-width="0.4"/>
<path d="M847 676V2.01464e-05" stroke="#E1E1E1" stroke-width="0.4"/>
<path d="M1008 676V2.01464e-05" stroke="#E1E1E1" stroke-width="0.4"/>
<path d="M1169 676V2.01464e-05" stroke="#E1E1E1" stroke-width="0.4"/>
<path d="M145 676L145 2.01464e-05" stroke="#E1E1E1" stroke-width="0.4"/>
<path d="M305 676L305 2.01464e-05" stroke="#E1E1E1" stroke-width="0.4"/>
<path d="M465 676L465 2.01464e-05" stroke="#E1E1E1" stroke-width="0.4"/>
<path d="M626 676V2.01464e-05" stroke="#E1E1E1" stroke-width="0.4"/>
<path d="M787 676V2.01464e-05" stroke="#E1E1E1" stroke-width="0.4"/>
<path d="M948 676V2.01464e-05" stroke="#E1E1E1" stroke-width="0.4"/>
<path d="M1109 676V2.01464e-05" stroke="#E1E1E1" stroke-width="0.4"/>
<path d="M65 676L65 2.01464e-05" stroke="#E1E1E1" stroke-width="0.4"/>
<path d="M225 676L225 2.01464e-05" stroke="#E1E1E1" stroke-width="0.4"/>
<path d="M385 676L385 2.01464e-05" stroke="#E1E1E1" stroke-width="0.4"/>
<path d="M545 676V2.01464e-05" stroke="#E1E1E1" stroke-width="0.4"/>
<path d="M706 676V2.01464e-05" stroke="#E1E1E1" stroke-width="0.4"/>
<path d="M867 676V2.01464e-05" stroke="#E1E1E1" stroke-width="0.4"/>
<path d="M1028 676V2.01464e-05" stroke="#E1E1E1" stroke-width="0.4"/>
<path d="M1189 676V2.01464e-05" stroke="#E1E1E1" stroke-width="0.4"/>
<path d="M586 676V2.01464e-05" stroke="#E1E1E1" stroke-width="0.4"/>
<path d="M747 676V2.01464e-05" stroke="#E1E1E1" stroke-width="0.4"/>
<path d="M908 676V2.01464e-05" stroke="#E1E1E1" stroke-width="0.4"/>
<path d="M1069 676V2.01464e-05" stroke="#E1E1E1" stroke-width="0.4"/>
<path d="M25 676L25 2.01464e-05" stroke="#E1E1E1" stroke-width="0.4"/>
<path d="M185 676L185 2.01464e-05" stroke="#E1E1E1" stroke-width="0.4"/>
<path d="M345 676L345 2.01464e-05" stroke="#E1E1E1" stroke-width="0.4"/>
<path d="M505 676L505 2.01464e-05" stroke="#E1E1E1" stroke-width="0.4"/>
<path d="M666 676V2.01464e-05" stroke="#E1E1E1" stroke-width="0.4"/>
<path d="M827 676V2.01464e-05" stroke="#E1E1E1" stroke-width="0.4"/>
<path d="M988 676V2.01464e-05" stroke="#E1E1E1" stroke-width="0.4"/>
<path d="M1149 676V2.01464e-05" stroke="#E1E1E1" stroke-width="0.4"/>
<path d="M105 676L105 2.01464e-05" stroke="#E1E1E1" stroke-width="0.4"/>
<path d="M265 676L265 2.01464e-05" stroke="#E1E1E1" stroke-width="0.4"/>
<path d="M425 676L425 2.01464e-05" stroke="#E1E1E1" stroke-width="0.4"/>
<path d="M125 676L125 2.01464e-05" stroke="#BCBCBC" stroke-width="0.8"/>
<path d="M285 676L285 2.01464e-05" stroke="#BCBCBC" stroke-width="0.8"/>
<path d="M445 676L445 2.01464e-05" stroke="#BCBCBC" stroke-width="0.8"/>
<path d="M606 676V2.01464e-05" stroke="#BCBCBC" stroke-width="0.8"/>
<path d="M767 676V2.01464e-05" stroke="#BCBCBC" stroke-width="0.8"/>
<path d="M928 676V2.01464e-05" stroke="#BCBCBC" stroke-width="0.8"/>
<path d="M1089 676V2.01464e-05" stroke="#BCBCBC" stroke-width="0.8"/>
<rect x="1015.2" y="20.2" width="165.6" height="28.6" rx="11.8" fill="white" stroke="#C0C0C0" stroke-width="0.4"/>
<path d="M1052.05 27.856C1051.49 28.92 1050.88 29.83 1050.21 30.614C1049.44 31.496 1048.57 32.21 1047.62 32.756L1048.16 33.638C1049.32 32.854 1050.26 32.056 1050.96 31.244C1051.62 30.502 1052.28 29.55 1052.94 28.388L1052.05 27.856ZM1052.52 34.1C1052.22 35.416 1051.79 36.48 1051.2 37.292C1050.54 38.132 1049.56 38.902 1048.27 39.602L1048.92 40.442C1050.35 39.644 1051.42 38.748 1052.14 37.74C1052.74 36.844 1053.2 35.626 1053.54 34.1H1057.02C1056.95 36.284 1056.8 37.698 1056.55 38.37C1056.31 39.014 1055.82 39.336 1055.06 39.336C1054.34 39.336 1053.57 39.322 1052.75 39.294L1053.03 40.288H1055.58C1056.28 40.246 1056.79 40.022 1057.09 39.616C1057.42 39.196 1057.64 38.44 1057.78 37.376C1057.92 36.298 1058 34.884 1058.05 33.134H1049.69V34.1H1052.52ZM1056 27.674L1055.13 28.164C1055.99 30.376 1057.5 32.182 1059.67 33.582L1060.34 32.784C1058.26 31.538 1056.81 29.83 1056 27.674ZM1067.45 27.562V29.396H1062.01V30.376H1067.45V32.518H1063.07V33.456H1064.15C1064.37 34.212 1064.74 34.926 1065.24 35.57C1065.79 36.27 1066.43 36.9 1067.16 37.446C1065.65 38.342 1063.83 39.042 1061.7 39.546L1062.27 40.442C1064.5 39.84 1066.4 39.042 1068 38.034C1068.7 38.482 1069.48 38.888 1070.34 39.252C1071.42 39.7 1072.56 40.092 1073.77 40.414L1074.36 39.532C1073.22 39.252 1072.16 38.93 1071.16 38.552C1070.32 38.216 1069.55 37.838 1068.85 37.446C1070.34 36.326 1071.47 34.982 1072.26 33.414V32.518H1068.49V30.376H1073.99V29.396H1068.49V27.562H1067.45ZM1067.99 36.9C1067.37 36.48 1066.81 35.99 1066.32 35.43C1065.79 34.856 1065.4 34.198 1065.14 33.456H1071.12C1070.39 34.8 1069.34 35.948 1067.99 36.9ZM1081.34 31.482H1082.87V30.642H1081.34V29.298C1082.01 29.046 1082.6 28.794 1083.08 28.542L1082.5 27.8C1081.85 28.192 1081.15 28.486 1080.42 28.682V33.736H1083.62V34.968H1080.33V35.878H1080.92C1081.45 36.858 1082.21 37.712 1083.22 38.426C1082.17 38.874 1080.91 39.238 1079.45 39.518L1079.96 40.414C1081.59 40.05 1082.99 39.574 1084.17 39.014C1085.25 39.602 1086.55 40.064 1088.08 40.386L1088.44 39.448C1087.21 39.196 1086.13 38.86 1085.21 38.44C1086.35 37.712 1087.19 36.844 1087.7 35.822V34.968H1084.56V33.736H1087.74V28.248H1085.29V29.116H1086.83V30.642H1085.36V31.482H1086.83V32.868H1084.56V27.618H1083.62V32.868H1081.34V31.482ZM1081.96 35.878H1086.61C1086.07 36.662 1085.28 37.348 1084.23 37.936C1083.26 37.362 1082.5 36.676 1081.96 35.878ZM1077.31 40.274C1078.07 40.274 1078.46 39.868 1078.46 39.07V35.01C1078.93 34.786 1079.41 34.562 1079.87 34.324V33.344C1079.41 33.596 1078.93 33.834 1078.46 34.044V31.216H1079.76V30.25H1078.46V27.632H1077.48V30.25H1075.92V31.216H1077.48V34.436C1076.89 34.66 1076.29 34.842 1075.67 35.01L1075.9 35.962C1076.43 35.794 1076.95 35.612 1077.48 35.416V38.818C1077.48 39.196 1077.3 39.392 1076.96 39.392C1076.6 39.392 1076.2 39.364 1075.78 39.322L1075.99 40.274H1077.31ZM1090.76 28.668V29.592H1095.48V30.81H1090.19V33.358H1091.17V31.692H1095.34C1094.53 32.392 1093.66 33.008 1092.75 33.526C1092.54 33.638 1092.33 33.722 1092.12 33.764L1092.32 34.534C1093.54 34.506 1094.61 34.464 1095.57 34.436C1094.33 35.136 1093.16 35.64 1092.01 35.962C1091.73 35.962 1091.44 35.948 1091.14 35.934L1091.34 36.844C1092.63 36.816 1094.04 36.76 1095.58 36.69V39.084C1095.58 39.364 1095.41 39.518 1095.1 39.518C1094.74 39.518 1094.35 39.49 1093.96 39.448L1094.17 40.386H1095.44C1096.2 40.386 1096.59 40.022 1096.59 39.322V36.648C1097.6 36.592 1098.66 36.522 1099.79 36.452C1100.07 36.788 1100.33 37.124 1100.55 37.46L1101.31 36.914C1100.76 36.158 1099.98 35.29 1098.95 34.296L1098.23 34.758C1098.56 35.094 1098.88 35.416 1099.19 35.752C1097.37 35.878 1095.57 35.976 1093.75 36.032C1095.65 35.36 1097.41 34.422 1099.07 33.19L1098.25 32.644C1097.75 33.008 1097.25 33.358 1096.76 33.694C1095.97 33.75 1094.92 33.778 1093.63 33.806C1094.54 33.316 1095.41 32.742 1096.25 32.07L1095.48 31.692H1100.83V33.372H1101.81V30.81H1096.52V29.592H1101.24V28.668H1096.52V27.562H1095.48V28.668H1090.76ZM1098.07 37.39L1097.57 38.132C1098.91 38.622 1100.23 39.294 1101.52 40.134L1102.03 39.322C1100.84 38.566 1099.53 37.922 1098.07 37.39ZM1093.66 37.362C1092.67 38.118 1091.41 38.734 1089.88 39.196L1090.3 40.092C1091.88 39.546 1093.2 38.86 1094.25 38.02L1093.66 37.362Z" fill="#E7E7E7"/>
<path d="M1030.85 38.5694C1033.46 38.5694 1035.57 36.4552 1035.57 33.8472C1035.57 31.2392 1033.46 29.125 1030.85 29.125C1028.24 29.125 1026.12 31.2392 1026.12 33.8472C1026.12 36.4552 1028.24 38.5694 1030.85 38.5694Z" stroke="#E7E7E7" stroke-linecap="round" stroke-linejoin="round"/>
<path d="M1036.75 39.7498L1034.18 37.1821" stroke="#E7E7E7" stroke-linecap="round" stroke-linejoin="round"/>
<path d="M537.5 390C510.3 383.6 486.167 351 477.5 335.5L476 336C484.667 351.5 508.8 384.1 536 390.5C570 398.5 557.5 436.5 573 444C585.4 450 611.833 453.167 623.5 454V453.5C611.833 452.667 586.9 449.5 574.5 443.5C559 436 571.5 398 537.5 390Z" fill="#D9D9D9" stroke="#484848" stroke-width="0.4" stroke-linecap="round"/>
<path d="M531.5 341.5C517.9 337.9 490.5 335.333 478.5 334.5L478 336C490 336.833 517.4 339.4 531 343C548 347.5 551.5 366 569 367.5C583 368.7 612.167 359.667 625 355L625.5 353.5C612.667 358.167 583.5 367.2 569.5 366C552 364.5 548.5 346 531.5 341.5Z" fill="#D9D9D9" stroke="#484848" stroke-width="0.4"/>
<path d="M551.453 283.071C517.896 292.186 489.169 318.821 479 331L480 332C490.169 319.821 518.896 293.186 552.453 284.071C586.011 274.957 613.467 260.893 623 255L622 254C612.467 259.893 585.011 273.957 551.453 283.071Z" fill="#D9D9D9" stroke="#484848" stroke-width="0.4"/>
<rect x="285" y="295" width="210" height="53" rx="8" fill="url(#paint0_linear_407_674)"/>
<path d="M285 303C285 298.582 288.582 295 293 295H487C491.418 295 495 298.582 495 303V317H285V303Z" fill="#6B6B6B"/>
<path d="M311.708 302.469C311.546 301.65 311.286 300.882 310.939 300.051L309.872 300.41C310.232 301.167 310.48 301.985 310.641 302.828L311.708 302.469ZM313.245 311.992H314.287L314.696 308.036C314.882 309.611 315.514 311 316.258 311.744L316.903 310.938C316.196 310.157 315.601 308.942 315.378 307.627H317.114L317.226 306.61H314.845L314.944 305.618H316.978L317.436 301.278C317.486 300.869 317.325 300.423 316.618 300.423H312.476L311.931 305.618H313.915L313.816 306.61H311.484L311.385 307.627H312.91C312.526 308.917 311.67 310.169 310.765 310.926L311.472 311.732C312.476 310.74 313.245 309.438 313.667 307.95L313.245 311.992ZM313.258 302.568L313.382 301.365H314.398L314.274 302.568H313.258ZM315.229 302.568L315.353 301.365H316.432L316.296 302.568H315.229ZM313.034 304.676L313.171 303.399H314.188L314.064 304.676H313.034ZM315.006 304.676L315.142 303.399H316.209L316.072 304.676H315.006ZM309.19 311.397C310.158 310.802 311.063 310.082 311.943 309.239L311.373 308.421C311.125 308.669 310.877 308.904 310.616 309.128L311.088 304.688C311.15 304.143 310.84 303.659 310.12 303.659H309.252L309.153 304.713H309.996L309.426 310.033C309.203 310.194 308.967 310.343 308.732 310.492L309.19 311.397ZM319.12 309.71C319.641 308.557 320.038 307.33 320.36 305.953L319.629 311.992H320.646L321.204 306.846C321.352 307.082 321.514 307.342 321.675 307.64L322.357 306.982C321.997 306.437 321.687 306.003 321.34 305.569L321.464 304.391H322.307L322.419 303.349H321.613L321.824 301.316C322.109 301.216 322.394 301.117 322.667 301.006L322.295 300.063C321.551 300.361 320.571 300.646 319.703 300.844L320.013 301.849C320.249 301.787 320.497 301.725 320.745 301.663L320.571 303.349H319.443L319.331 304.391H320.15C319.765 306.288 319.22 307.788 318.5 309.165L319.12 309.71ZM327.118 301.402C327.18 300.807 326.92 300.398 326.201 300.398H323.287L322.853 304.44H326.784L327.118 301.402ZM324.018 303.386L324.217 301.464H326.052L325.841 303.386H324.018ZM326.771 310.69H324.713L324.886 308.991H326.573L326.684 307.95H324.998L325.159 306.424H326.945L327.056 305.383H322.369L322.258 306.424H324.118L323.956 307.95H322.22L322.109 308.991H323.845L323.671 310.69H321.538L321.427 311.732H326.66L326.771 310.69ZM329.15 307.764C329.683 307.602 330.179 307.429 330.662 307.243L330.191 311.719H335.87L336.342 307.392C336.404 306.784 336.131 306.362 335.362 306.362H332.584C334.519 305.321 335.895 304.044 336.528 302.692C336.8 302.109 336.54 301.526 335.759 301.526L333.167 301.514C333.44 301.167 333.688 300.82 333.899 300.46L332.944 299.964C332.188 301.204 330.786 302.58 329.249 303.535L329.906 304.44C330.377 304.13 330.811 303.796 331.22 303.473C331.741 303.944 332.287 304.49 332.77 305.048C331.667 305.718 330.29 306.325 328.728 306.821L329.15 307.764ZM331.94 302.828C332.051 302.729 332.163 302.63 332.262 302.518L335.387 302.531C335.04 303.213 334.432 303.87 333.614 304.478C333.105 303.895 332.522 303.324 331.94 302.828ZM331.419 310.653L331.754 307.429H335.226L334.866 310.653H331.419ZM341.956 304.279L342.837 304.837C343.246 304.143 343.593 303.411 343.891 302.68L346.197 302.692C345.962 303.349 345.664 303.982 345.317 304.602L346.272 304.936C346.668 304.242 347.028 303.424 347.264 302.68C347.474 302.171 347.276 301.663 346.532 301.663L344.25 301.65C344.412 301.142 344.548 300.658 344.635 300.187L343.618 300.038C343.407 301.229 342.75 303.014 341.956 304.279ZM338.807 309.81C339.328 308.594 339.712 307.33 340.01 306.052L339.34 311.992H340.295L340.878 306.462C341.014 306.648 341.163 306.846 341.324 307.069L341.795 306.313C341.51 305.953 341.262 305.656 340.989 305.358L341.113 304.18H341.82L341.919 303.2H341.225L341.423 301.34C341.721 301.241 342.018 301.117 342.304 301.006L341.932 300.063C341.212 300.348 340.245 300.646 339.402 300.844L339.712 301.849C339.948 301.787 340.183 301.725 340.431 301.663L340.258 303.2H339.266L339.154 304.18H339.799C339.414 306.028 338.794 307.826 338.088 309.45L338.807 309.81ZM345.007 303.672H344.002L343.296 310.281C343.246 310.802 343.097 311.05 342.849 311.05C342.663 311.05 342.477 310.926 342.366 310.281L341.46 310.504C341.597 311.558 342.142 312.066 342.8 312.066C343.593 312.066 344.176 311.608 344.3 310.392L345.007 303.672ZM341.944 309.896C342.638 308.446 343.097 306.896 343.358 305.482L342.44 305.308C342.18 306.648 341.758 308.074 341.088 309.438L341.944 309.896ZM345.342 305.594C345.317 307.094 345.354 308.954 345.602 310.405L346.532 310.12C346.309 308.793 346.222 307.044 346.222 305.494L345.342 305.594Z" fill="white"/>
<path d="M472.714 310.24L473.61 303.896L473.098 303.856C472.874 304.048 472.458 304.24 472.154 304.288L472.106 304.912C472.314 304.904 472.514 304.872 472.698 304.816L471.938 310.24H472.714ZM475.355 310.32C476.451 310.32 477.035 309.328 477.331 307.064C477.635 304.768 477.411 303.776 476.179 303.776C475.107 303.776 474.539 304.768 474.211 307.064C473.891 309.328 474.155 310.32 475.355 310.32ZM475.427 309.6C474.843 309.6 474.739 308.832 475.011 307.064C475.283 305.272 475.531 304.496 476.131 304.496C476.723 304.496 476.803 305.272 476.531 307.064C476.259 308.832 476.035 309.6 475.427 309.6ZM479.277 310.32C480.373 310.32 480.957 309.328 481.253 307.064C481.557 304.768 481.333 303.776 480.101 303.776C479.029 303.776 478.461 304.768 478.133 307.064C477.813 309.328 478.077 310.32 479.277 310.32ZM479.349 309.6C478.765 309.6 478.661 308.832 478.933 307.064C479.205 305.272 479.453 304.496 480.053 304.496C480.645 304.496 480.725 305.272 480.453 307.064C480.181 308.832 479.957 309.6 479.349 309.6Z" fill="#E7E7E7"/>
<rect x="298" y="327" width="11" height="11" rx="4" fill="white"/>
<rect x="471" y="327" width="11" height="11" rx="4" fill="white"/>
<g clip-path="url(#clip0_407_674)">
<path d="M355.042 300.833H351.833C351.59 300.833 351.357 300.93 351.185 301.102C351.013 301.274 350.917 301.507 350.917 301.75V308.167C350.917 308.41 351.013 308.643 351.185 308.815C351.357 308.987 351.59 309.083 351.833 309.083H358.25C358.493 309.083 358.726 308.987 358.898 308.815C359.07 308.643 359.167 308.41 359.167 308.167V304.958" stroke="white" stroke-width="0.8" stroke-linecap="round" stroke-linejoin="round"/>
<path d="M358.479 300.146C358.662 299.963 358.909 299.861 359.167 299.861C359.425 299.861 359.672 299.963 359.854 300.146C360.037 300.328 360.139 300.575 360.139 300.833C360.139 301.091 360.037 301.338 359.854 301.521L355.5 305.875L353.667 306.333L354.125 304.5L358.479 300.146Z" stroke="white" stroke-width="0.8" stroke-linecap="round" stroke-linejoin="round"/>
</g>
<rect x="467.1" y="301.1" width="19.8" height="11.8" rx="1.9" stroke="white" stroke-width="0.2"/>
<path d="M488.676 312.731L486.397 313.108L487.863 314.893L488.676 312.731ZM488.763 311.091C488.783 311.2 488.887 311.272 488.996 311.252C489.105 311.232 489.177 311.128 489.157 311.019L488.763 311.091ZM487.222 313.684C486.627 313.88 485.955 313.835 485.367 313.502L485.17 313.85C485.86 314.241 486.65 314.294 487.347 314.064L487.222 313.684ZM485.367 313.502C484.262 312.876 483.873 311.473 484.498 310.368L484.15 310.171C483.416 311.468 483.873 313.116 485.17 313.85L485.367 313.502ZM484.498 310.368C485.124 309.262 486.527 308.873 487.633 309.498L487.83 309.15C486.532 308.416 484.885 308.873 484.15 310.171L484.498 310.368ZM487.633 309.498C488.251 309.848 488.646 310.442 488.763 311.091L489.157 311.019C489.019 310.258 488.556 309.561 487.83 309.15L487.633 309.498Z" fill="white"/>
<path d="M461 332.5H468" stroke="white" stroke-width="1.4" stroke-linecap="round"/>
<path d="M464.5 336V329" stroke="white" stroke-width="1.4" stroke-linecap="round"/>
<rect x="606" y="215" width="210" height="53" rx="8" fill="url(#paint1_linear_407_674)"/>
<path d="M606 223C606 218.582 609.582 215 614 215H808C812.418 215 816 218.582 816 223V237H606V223Z" fill="#C4C4C4"/>
<path d="M606 223C606 218.582 609.582 215 614 215H653L638.255 237H606V223Z" fill="url(#paint2_linear_407_674)"/>
<path d="M638.585 223.672C637.978 222.233 637.258 220.894 636.576 219.927L635.659 220.51C636.378 221.514 637.048 222.754 637.593 224.316L638.585 223.672ZM631.058 224.428C632.112 223.374 633.117 221.936 633.737 220.398L632.745 220.001C632.174 221.39 631.331 222.63 630.364 223.56L631.058 224.428ZM633.166 223.424L632.088 223.647C632.15 225.308 632.584 226.883 633.352 228.26C632.36 229.338 631.133 230.182 629.608 231.012L630.24 231.992C631.703 231.174 632.943 230.355 633.985 229.264C634.778 230.368 635.82 231.298 637.06 231.967L637.668 230.876C636.49 230.281 635.473 229.487 634.704 228.408C635.597 227.23 636.316 225.742 636.886 223.684L635.82 223.312C635.386 224.998 634.816 226.288 634.072 227.342C633.551 226.276 633.241 224.974 633.166 223.424ZM644.299 231.992H645.341L646.308 222.89C646.494 222.456 646.655 222.01 646.816 221.551H648.59L648.714 220.373H643.803L643.679 221.551H645.775C645.006 223.771 643.778 225.668 642.352 226.995L643.059 227.813C643.754 227.144 644.411 226.325 644.994 225.395L644.299 231.992ZM639.773 230.64C640.84 230.268 641.856 229.81 642.836 229.227L642.39 228.272C642.154 228.421 641.906 228.557 641.67 228.681L641.993 225.581H642.848L642.96 224.527H642.104L642.402 221.663H643.245L643.357 220.609H640.616L640.505 221.663H641.36L641.063 224.527H640.257L640.145 225.581H640.951L640.567 229.202C640.195 229.363 639.81 229.512 639.426 229.636L639.773 230.64ZM647.449 223.932L646.506 224.316C646.878 225.271 647.263 226.66 647.461 228.012L648.441 227.702C648.255 226.35 647.908 224.998 647.449 223.932ZM652.233 223.56H653.336L653.46 222.332H655.544L655.42 223.56H656.523L656.647 222.332H658.52L658.644 221.204H656.771L656.895 220.001H655.792L655.668 221.204H653.584L653.708 220.001H652.605L652.481 221.204H650.509L650.385 222.332H652.357L652.233 223.56ZM652.394 231.992H653.485L654.204 225.172H656.635L656.337 227.987C656.25 228.855 656.102 229.14 655.779 229.14C655.531 229.14 655.333 228.904 655.221 228.322L654.378 228.545C654.539 229.574 655.085 230.157 655.829 230.157C656.536 230.157 657.193 229.748 657.354 228.284L657.701 225.085C657.763 224.465 657.441 224.118 656.883 224.118H650.584L650.472 225.172H653.113L652.394 231.992ZM668.264 224.639H659.894L659.77 225.792H668.14L668.264 224.639Z" fill="white"/>
<path d="M795.409 230.24L796.305 223.896L795.793 223.856C795.569 224.048 795.153 224.24 794.849 224.288L794.801 224.912C795.009 224.904 795.209 224.872 795.393 224.816L794.633 230.24H795.409ZM796.978 227.24L797.546 227.36C797.674 226.968 797.938 226.712 798.266 226.712C798.642 226.712 798.914 227.096 798.73 228.248C798.586 229.128 798.322 229.6 797.802 229.6C797.362 229.6 797.178 229.152 797.194 228.616L796.474 228.712C796.442 229.656 796.834 230.32 797.738 230.32C798.77 230.32 799.346 229.504 799.522 228.184C799.698 226.872 799.386 226.064 798.53 226.064C798.258 226.064 798.01 226.176 797.826 226.352L798.162 224.56H799.73L799.882 223.856H797.586L796.978 227.24Z" fill="#E7E7E7"/>
<rect x="619" y="247" width="11" height="11" rx="4" fill="white"/>
<rect x="792" y="247" width="11" height="11" rx="4" fill="white"/>
<path d="M619 228L615.5 224" stroke="#AFAFAF" stroke-width="0.6" stroke-linecap="round"/>
<path d="M615.5 224L612 228" stroke="#AFAFAF" stroke-width="0.6" stroke-linecap="round"/>
<g clip-path="url(#clip1_407_674)">
<path d="M676.042 220.833H672.833C672.59 220.833 672.357 220.93 672.185 221.102C672.013 221.274 671.917 221.507 671.917 221.75V228.167C671.917 228.41 672.013 228.643 672.185 228.815C672.357 228.987 672.59 229.083 672.833 229.083H679.25C679.493 229.083 679.726 228.987 679.898 228.815C680.07 228.643 680.167 228.41 680.167 228.167V224.958" stroke="white" stroke-width="0.8" stroke-linecap="round" stroke-linejoin="round"/>
<path d="M679.479 220.146C679.662 219.963 679.909 219.861 680.167 219.861C680.425 219.861 680.672 219.963 680.854 220.146C681.037 220.328 681.139 220.575 681.139 220.833C681.139 221.091 681.037 221.338 680.854 221.521L676.5 225.875L674.667 226.333L675.125 224.5L679.479 220.146Z" stroke="white" stroke-width="0.8" stroke-linecap="round" stroke-linejoin="round"/>
</g>
<rect x="788.1" y="221.1" width="19.8" height="11.8" rx="1.9" stroke="white" stroke-width="0.2"/>
<path d="M809.676 232.731L807.397 233.108L808.863 234.893L809.676 232.731ZM809.763 231.091C809.783 231.2 809.887 231.272 809.996 231.252C810.105 231.232 810.177 231.128 810.157 231.019L809.763 231.091ZM808.222 233.684C807.627 233.88 806.955 233.835 806.367 233.502L806.17 233.85C806.86 234.241 807.65 234.294 808.347 234.064L808.222 233.684ZM806.367 233.502C805.262 232.876 804.873 231.473 805.498 230.368L805.15 230.171C804.416 231.468 804.873 233.116 806.17 233.85L806.367 233.502ZM805.498 230.368C806.124 229.262 807.527 228.873 808.633 229.498L808.83 229.15C807.532 228.416 805.885 228.873 805.15 230.171L805.498 230.368ZM808.633 229.498C809.251 229.848 809.646 230.442 809.763 231.091L810.157 231.019C810.019 230.258 809.556 229.561 808.83 229.15L808.633 229.498Z" fill="white"/>
<path d="M782 252.5H789" stroke="white" stroke-width="1.4" stroke-linecap="round"/>
<path d="M785.5 256V249" stroke="white" stroke-width="1.4" stroke-linecap="round"/>
<rect x="606" y="315" width="210" height="53" rx="8" fill="url(#paint3_linear_407_674)"/>
<path d="M606 323C606 318.582 609.582 315 614 315H808C812.418 315 816 318.582 816 323V337H606V323Z" fill="#C4C4C4"/>
<path d="M606 323C606 318.582 609.582 315 614 315H754L707.569 337H606V323Z" fill="url(#paint4_linear_407_674)"/>
<path d="M638.585 323.672C637.978 322.233 637.258 320.894 636.576 319.927L635.659 320.51C636.378 321.514 637.048 322.754 637.593 324.316L638.585 323.672ZM631.058 324.428C632.112 323.374 633.117 321.936 633.737 320.398L632.745 320.001C632.174 321.39 631.331 322.63 630.364 323.56L631.058 324.428ZM633.166 323.424L632.088 323.647C632.15 325.308 632.584 326.883 633.352 328.26C632.36 329.338 631.133 330.182 629.608 331.012L630.24 331.992C631.703 331.174 632.943 330.355 633.985 329.264C634.778 330.368 635.82 331.298 637.06 331.967L637.668 330.876C636.49 330.281 635.473 329.487 634.704 328.408C635.597 327.23 636.316 325.742 636.886 323.684L635.82 323.312C635.386 324.998 634.816 326.288 634.072 327.342C633.551 326.276 633.241 324.974 633.166 323.424ZM644.299 331.992H645.341L646.308 322.89C646.494 322.456 646.655 322.01 646.816 321.551H648.59L648.714 320.373H643.803L643.679 321.551H645.775C645.006 323.771 643.778 325.668 642.352 326.995L643.059 327.813C643.754 327.144 644.411 326.325 644.994 325.395L644.299 331.992ZM639.773 330.64C640.84 330.268 641.856 329.81 642.836 329.227L642.39 328.272C642.154 328.421 641.906 328.557 641.67 328.681L641.993 325.581H642.848L642.96 324.527H642.104L642.402 321.663H643.245L643.357 320.609H640.616L640.505 321.663H641.36L641.063 324.527H640.257L640.145 325.581H640.951L640.567 329.202C640.195 329.363 639.81 329.512 639.426 329.636L639.773 330.64ZM647.449 323.932L646.506 324.316C646.878 325.271 647.263 326.66 647.461 328.012L648.441 327.702C648.255 326.35 647.908 324.998 647.449 323.932ZM652.233 323.56H653.336L653.46 322.332H655.544L655.42 323.56H656.523L656.647 322.332H658.52L658.644 321.204H656.771L656.895 320.001H655.792L655.668 321.204H653.584L653.708 320.001H652.605L652.481 321.204H650.509L650.385 322.332H652.357L652.233 323.56ZM652.394 331.992H653.485L654.204 325.172H656.635L656.337 327.987C656.25 328.855 656.102 329.14 655.779 329.14C655.531 329.14 655.333 328.904 655.221 328.322L654.378 328.545C654.539 329.574 655.085 330.157 655.829 330.157C656.536 330.157 657.193 329.748 657.354 328.284L657.701 325.085C657.763 324.465 657.441 324.118 656.883 324.118H650.584L650.472 325.172H653.113L652.394 331.992ZM667.817 320.956H661.072L660.935 322.171H667.681L667.817 320.956ZM667.606 330.219H659.522L659.398 331.422H667.482L667.606 330.219Z" fill="white"/>
<path d="M793.873 327.24L794.441 327.36C794.569 326.968 794.833 326.712 795.161 326.712C795.537 326.712 795.809 327.096 795.625 328.248C795.481 329.128 795.217 329.6 794.697 329.6C794.257 329.6 794.073 329.152 794.089 328.616L793.369 328.712C793.337 329.656 793.729 330.32 794.633 330.32C795.664 330.32 796.241 329.504 796.417 328.184C796.593 326.872 796.281 326.064 795.424 326.064C795.153 326.064 794.905 326.176 794.721 326.352L795.057 324.56H796.625L796.777 323.856H794.481L793.873 327.24ZM798.398 330.32C799.494 330.32 800.078 329.328 800.374 327.064C800.678 324.768 800.454 323.776 799.222 323.776C798.15 323.776 797.582 324.768 797.254 327.064C796.934 329.328 797.198 330.32 798.398 330.32ZM798.47 329.6C797.886 329.6 797.782 328.832 798.054 327.064C798.326 325.272 798.574 324.496 799.174 324.496C799.766 324.496 799.846 325.272 799.574 327.064C799.302 328.832 799.078 329.6 798.47 329.6Z" fill="#E7E7E7"/>
<rect x="619" y="347" width="11" height="11" rx="4" fill="white"/>
<rect x="792" y="347" width="11" height="11" rx="4" fill="white"/>
<path d="M619 328L615.5 324" stroke="#AFAFAF" stroke-width="0.6" stroke-linecap="round"/>
<path d="M615.5 324L612 328" stroke="#AFAFAF" stroke-width="0.6" stroke-linecap="round"/>
<g clip-path="url(#clip2_407_674)">
<path d="M676.042 320.833H672.833C672.59 320.833 672.357 320.93 672.185 321.102C672.013 321.274 671.917 321.507 671.917 321.75V328.167C671.917 328.41 672.013 328.643 672.185 328.815C672.357 328.987 672.59 329.083 672.833 329.083H679.25C679.493 329.083 679.726 328.987 679.898 328.815C680.07 328.643 680.167 328.41 680.167 328.167V324.958" stroke="white" stroke-width="0.8" stroke-linecap="round" stroke-linejoin="round"/>
<path d="M679.479 320.146C679.662 319.963 679.909 319.861 680.167 319.861C680.425 319.861 680.672 319.963 680.854 320.146C681.037 320.328 681.139 320.575 681.139 320.833C681.139 321.091 681.037 321.338 680.854 321.521L676.5 325.875L674.667 326.333L675.125 324.5L679.479 320.146Z" stroke="white" stroke-width="0.8" stroke-linecap="round" stroke-linejoin="round"/>
</g>
<rect x="788.1" y="321.1" width="19.8" height="11.8" rx="1.9" stroke="white" stroke-width="0.2"/>
<path d="M809.676 332.731L807.397 333.108L808.863 334.893L809.676 332.731ZM809.763 331.091C809.783 331.2 809.887 331.272 809.996 331.252C810.105 331.232 810.177 331.128 810.157 331.019L809.763 331.091ZM808.222 333.684C807.627 333.88 806.955 333.835 806.367 333.502L806.17 333.85C806.86 334.241 807.65 334.294 808.347 334.064L808.222 333.684ZM806.367 333.502C805.262 332.876 804.873 331.473 805.498 330.368L805.15 330.171C804.416 331.468 804.873 333.116 806.17 333.85L806.367 333.502ZM805.498 330.368C806.124 329.262 807.527 328.873 808.633 329.498L808.83 329.15C807.532 328.416 805.885 328.873 805.15 330.171L805.498 330.368ZM808.633 329.498C809.251 329.848 809.646 330.442 809.763 331.091L810.157 331.019C810.019 330.258 809.556 329.561 808.83 329.15L808.633 329.498Z" fill="white"/>
<path d="M782 352.5H789" stroke="white" stroke-width="1.4" stroke-linecap="round"/>
<path d="M785.5 356V349" stroke="white" stroke-width="1.4" stroke-linecap="round"/>
<rect x="606" y="415" width="210" height="53" rx="8" fill="url(#paint5_linear_407_674)"/>
<path d="M606 423C606 418.582 609.582 415 614 415H808C812.418 415 816 418.582 816 423V437H606V423Z" fill="#C4C4C4"/>
<path d="M606 423C606 418.582 609.582 415 614 415H679L656.098 437H606V423Z" fill="url(#paint6_linear_407_674)"/>
<path d="M638.585 423.672C637.978 422.233 637.258 420.894 636.576 419.927L635.659 420.51C636.378 421.514 637.048 422.754 637.593 424.316L638.585 423.672ZM631.058 424.428C632.112 423.374 633.117 421.936 633.737 420.398L632.745 420.001C632.174 421.39 631.331 422.63 630.364 423.56L631.058 424.428ZM633.166 423.424L632.088 423.647C632.15 425.308 632.584 426.883 633.352 428.26C632.36 429.338 631.133 430.182 629.608 431.012L630.24 431.992C631.703 431.174 632.943 430.355 633.985 429.264C634.778 430.368 635.82 431.298 637.06 431.967L637.668 430.876C636.49 430.281 635.473 429.487 634.704 428.408C635.597 427.23 636.316 425.742 636.886 423.684L635.82 423.312C635.386 424.998 634.816 426.288 634.072 427.342C633.551 426.276 633.241 424.974 633.166 423.424ZM644.299 431.992H645.341L646.308 422.89C646.494 422.456 646.655 422.01 646.816 421.551H648.59L648.714 420.373H643.803L643.679 421.551H645.775C645.006 423.771 643.778 425.668 642.352 426.995L643.059 427.813C643.754 427.144 644.411 426.325 644.994 425.395L644.299 431.992ZM639.773 430.64C640.84 430.268 641.856 429.81 642.836 429.227L642.39 428.272C642.154 428.421 641.906 428.557 641.67 428.681L641.993 425.581H642.848L642.96 424.527H642.104L642.402 421.663H643.245L643.357 420.609H640.616L640.505 421.663H641.36L641.063 424.527H640.257L640.145 425.581H640.951L640.567 429.202C640.195 429.363 639.81 429.512 639.426 429.636L639.773 430.64ZM647.449 423.932L646.506 424.316C646.878 425.271 647.263 426.66 647.461 428.012L648.441 427.702C648.255 426.35 647.908 424.998 647.449 423.932ZM652.233 423.56H653.336L653.46 422.332H655.544L655.42 423.56H656.523L656.647 422.332H658.52L658.644 421.204H656.771L656.895 420.001H655.792L655.668 421.204H653.584L653.708 420.001H652.605L652.481 421.204H650.509L650.385 422.332H652.357L652.233 423.56ZM652.394 431.992H653.485L654.204 425.172H656.635L656.337 427.987C656.25 428.855 656.102 429.14 655.779 429.14C655.531 429.14 655.333 428.904 655.221 428.322L654.378 428.545C654.539 429.574 655.085 430.157 655.829 430.157C656.536 430.157 657.193 429.748 657.354 428.284L657.701 425.085C657.763 424.465 657.441 424.118 656.883 424.118H650.584L650.472 425.172H653.113L652.394 431.992ZM668.016 420.671H661.158L661.034 421.836H667.892L668.016 420.671ZM667.185 425.432H660.985L660.861 426.598H667.061L667.185 425.432ZM667.569 430.541H659.571L659.447 431.707H667.445L667.569 430.541Z" fill="white"/>
<path d="M794.823 428.624L794.103 428.72C794.055 429.896 794.647 430.32 795.327 430.32C796.191 430.32 796.863 429.68 797.063 428.36C797.191 427.488 797.015 426.832 796.343 426.632C796.807 426.384 797.167 425.952 797.287 425.376C797.455 424.552 797.063 423.776 796.087 423.776C795.319 423.776 794.879 424.28 794.647 424.912L795.351 425.072C795.503 424.68 795.719 424.48 796.031 424.48C796.479 424.48 796.607 424.944 796.503 425.392C796.375 425.936 795.855 426.336 795.215 426.44L795.071 427.056C796.087 426.968 796.471 427.4 796.271 428.424C796.111 429.248 795.815 429.6 795.415 429.6C795.087 429.6 794.791 429.288 794.823 428.624ZM798.06 427.24L798.628 427.36C798.756 426.968 799.02 426.712 799.348 426.712C799.724 426.712 799.996 427.096 799.812 428.248C799.668 429.128 799.404 429.6 798.884 429.6C798.444 429.6 798.26 429.152 798.276 428.616L797.556 428.712C797.524 429.656 797.916 430.32 798.82 430.32C799.852 430.32 800.428 429.504 800.604 428.184C800.78 426.872 800.468 426.064 799.612 426.064C799.34 426.064 799.092 426.176 798.908 426.352L799.244 424.56H800.812L800.964 423.856H798.668L798.06 427.24Z" fill="#E7E7E7"/>
<rect x="619" y="447" width="11" height="11" rx="4" fill="white"/>
<rect x="792" y="447" width="11" height="11" rx="4" fill="white"/>
<path d="M619 428L615.5 424" stroke="#AFAFAF" stroke-width="0.6" stroke-linecap="round"/>
<path d="M615.5 424L612 428" stroke="#AFAFAF" stroke-width="0.6" stroke-linecap="round"/>
<g clip-path="url(#clip3_407_674)">
<path d="M676.042 420.833H672.833C672.59 420.833 672.357 420.93 672.185 421.102C672.013 421.274 671.917 421.507 671.917 421.75V428.167C671.917 428.41 672.013 428.643 672.185 428.815C672.357 428.987 672.59 429.083 672.833 429.083H679.25C679.493 429.083 679.726 428.987 679.898 428.815C680.07 428.643 680.167 428.41 680.167 428.167V424.958" stroke="white" stroke-width="0.8" stroke-linecap="round" stroke-linejoin="round"/>
<path d="M679.479 420.146C679.662 419.963 679.909 419.861 680.167 419.861C680.425 419.861 680.672 419.963 680.854 420.146C681.037 420.328 681.139 420.575 681.139 420.833C681.139 421.091 681.037 421.338 680.854 421.521L676.5 425.875L674.667 426.333L675.125 424.5L679.479 420.146Z" stroke="white" stroke-width="0.8" stroke-linecap="round" stroke-linejoin="round"/>
</g>
<rect x="788.1" y="421.1" width="19.8" height="11.8" rx="1.9" stroke="white" stroke-width="0.2"/>
<path d="M809.676 432.731L807.397 433.108L808.863 434.893L809.676 432.731ZM809.763 431.091C809.783 431.2 809.887 431.272 809.996 431.252C810.105 431.232 810.177 431.128 810.157 431.019L809.763 431.091ZM808.222 433.684C807.627 433.88 806.955 433.835 806.367 433.502L806.17 433.85C806.86 434.241 807.65 434.294 808.347 434.064L808.222 433.684ZM806.367 433.502C805.262 432.876 804.873 431.473 805.498 430.368L805.15 430.171C804.416 431.468 804.873 433.116 806.17 433.85L806.367 433.502ZM805.498 430.368C806.124 429.262 807.527 428.873 808.633 429.498L808.83 429.15C807.532 428.416 805.885 428.873 805.15 430.171L805.498 430.368ZM808.633 429.498C809.251 429.848 809.646 430.442 809.763 431.091L810.157 431.019C810.019 430.258 809.556 429.561 808.83 429.15L808.633 429.498Z" fill="white"/>
<path d="M782 452.5H789" stroke="white" stroke-width="1.4" stroke-linecap="round"/>
<path d="M785.5 456V449" stroke="white" stroke-width="1.4" stroke-linecap="round"/>
<rect x="35.2" y="20.2" width="99.6" height="28.6" rx="14.3" fill="white" stroke="#DDDDDD" stroke-width="0.4"/>
<path d="M64.1496 30.2208V30.8864H67.2216V35.9296H63.7784V36.5824H67.2216V41.2544H67.9128V36.5824H71.4072V35.9296H67.9128V30.8864H71.0104V30.2208H64.1496ZM69.9736 31.6416C69.692 32.9472 69.3464 34.0352 68.9624 34.88L69.5512 35.0848C69.9736 34.1376 70.3192 33.0496 70.6008 31.808L69.9736 31.6416ZM64.9688 31.7184L64.38 31.9232C64.8152 32.9472 65.1864 34.0096 65.468 35.1104L66.0696 34.9696C65.7496 33.7408 65.3784 32.6656 64.9688 31.7184ZM61.1032 29.7088L60.604 30.1824C61.5512 30.8992 62.3064 31.5904 62.8696 32.2304L63.3432 31.744C62.7288 31.0656 61.9864 30.3872 61.1032 29.7088ZM59.6952 33.5616V34.24H61.6536V39.6544C61.6536 39.8208 61.564 39.9744 61.3976 40.128L61.6664 40.7552C62.4856 40.192 63.2664 39.5392 63.9832 38.8224L63.804 38.08C63.2792 38.592 62.7928 39.0528 62.332 39.4368V33.5616H59.6952ZM74.7096 33.6256V41.2416H75.4008V32.4224C75.8104 31.6416 76.156 30.7968 76.4376 29.9008L75.7976 29.6064C75.2216 31.552 74.2744 33.3056 72.9688 34.8544L73.1864 35.584C73.7496 34.9696 74.2488 34.3168 74.7096 33.6256ZM81.66 34.0352V41.1264H82.3384V34.0352H81.66ZM78.3064 34.0736V36.0192C78.2808 38.208 77.7048 39.808 76.5528 40.8064L77.0776 41.2672C78.3192 40.1536 78.9592 38.4 78.9848 36.0192V34.0736H78.3064ZM79.9576 29.6192C78.9976 31.5776 77.6536 33.1648 75.9128 34.3936L76.2968 34.9824C77.884 33.8816 79.2024 32.3328 80.252 30.3104C81.1608 32.1024 82.5304 33.6128 84.3736 34.8288L84.7576 34.24C82.7864 32.9088 81.3784 31.3728 80.5592 29.6192H79.9576ZM87.3176 29.8368L86.8312 30.2976C87.74 31.0016 88.4696 31.6672 89.0072 32.3072L89.4936 31.808C88.9048 31.1552 88.188 30.5024 87.3176 29.8368ZM94.844 41.0112H97.7496L97.916 40.3072C97.5832 40.32 97.1224 40.3328 96.5336 40.3584H94.7416C93.7432 40.3584 92.924 40.3456 92.284 40.3328C91.5416 40.3072 90.9656 40.2176 90.556 40.064C90.172 39.8848 89.8264 39.6032 89.5192 39.2192C89.3912 39.0528 89.2504 38.9376 89.1224 38.8736V34.0736H86.5752V34.7392H88.4696V38.8352C87.9448 39.0144 87.3304 39.6672 86.6136 40.7808L87.1384 41.2416C87.8808 40.0512 88.4312 39.4624 88.7768 39.4624C88.9304 39.4624 89.0968 39.5648 89.2632 39.7952C89.6728 40.2816 90.1208 40.5888 90.62 40.7424C91.1064 40.8832 91.772 40.96 92.5912 40.9856C93.3976 40.9984 94.1528 41.0112 94.844 41.0112ZM90.492 31.6672V32.32H92.0664V33.408C92.0664 33.9968 92.028 34.56 91.9512 35.072H90.044V35.7376H91.836C91.5416 37.0816 90.9656 38.0672 90.0952 38.6944L90.5048 39.2448C91.516 38.5024 92.1816 37.3248 92.5144 35.7376H94.972V39.5392H95.6632V35.7376H97.7752V35.072H95.6632V32.32H97.3528V31.6672H95.6632V29.5808H94.972V31.6672H92.7448V29.5552H92.0664V31.6672H90.492ZM92.7448 32.32H94.972V35.072H92.6296C92.7064 34.5088 92.7448 33.9072 92.7448 33.2544V32.32ZM105.225 30.0928V33.6384H110.268V30.0928H105.225ZM109.602 33.0112H105.903V30.72H109.602V33.0112ZM104.623 34.9824V35.6224H107.35V37.5168H104.93V38.144H107.35V40.1152H104.111V40.768H111.228V40.1152H108.041V38.144H110.537V37.5168H108.041V35.6224H110.921V34.9824H104.623ZM99.8488 33.1648V33.8176H101.718C101.308 35.4048 100.578 36.8128 99.5544 38.0544L99.8616 38.8096C100.681 37.7088 101.334 36.4672 101.794 35.0848V41.2032H102.447V35.2256C102.87 35.7376 103.369 36.4416 103.958 37.3376L104.354 36.7488C103.714 35.9424 103.074 35.2256 102.447 34.5984V33.8176H104.252V33.1648H102.447V30.9504C103.126 30.8096 103.766 30.6432 104.367 30.464L104.124 29.8112C102.895 30.2208 101.462 30.4896 99.836 30.6432L99.9768 31.3088C100.604 31.2448 101.206 31.168 101.794 31.0656V33.1648H99.8488Z" fill="#333333"/>
<rect x="147.2" y="20.2" width="99.6" height="28.6" rx="14.3" fill="white" stroke="#DDDDDD" stroke-width="0.4"/>
<path d="M175.15 30.2208V30.8864H178.222V35.9296H174.778V36.5824H178.222V41.2544H178.913V36.5824H182.407V35.9296H178.913V30.8864H182.01V30.2208H175.15ZM180.974 31.6416C180.692 32.9472 180.346 34.0352 179.962 34.88L180.551 35.0848C180.974 34.1376 181.319 33.0496 181.601 31.808L180.974 31.6416ZM175.969 31.7184L175.38 31.9232C175.815 32.9472 176.186 34.0096 176.468 35.1104L177.07 34.9696C176.75 33.7408 176.378 32.6656 175.969 31.7184ZM172.103 29.7088L171.604 30.1824C172.551 30.8992 173.306 31.5904 173.87 32.2304L174.343 31.744C173.729 31.0656 172.986 30.3872 172.103 29.7088ZM170.695 33.5616V34.24H172.654V39.6544C172.654 39.8208 172.564 39.9744 172.398 40.128L172.666 40.7552C173.486 40.192 174.266 39.5392 174.983 38.8224L174.804 38.08C174.279 38.592 173.793 39.0528 173.332 39.4368V33.5616H170.695ZM185.71 33.6256V41.2416H186.401V32.4224C186.81 31.6416 187.156 30.7968 187.438 29.9008L186.798 29.6064C186.222 31.552 185.274 33.3056 183.969 34.8544L184.186 35.584C184.75 34.9696 185.249 34.3168 185.71 33.6256ZM192.66 34.0352V41.1264H193.338V34.0352H192.66ZM189.306 34.0736V36.0192C189.281 38.208 188.705 39.808 187.553 40.8064L188.078 41.2672C189.319 40.1536 189.959 38.4 189.985 36.0192V34.0736H189.306ZM190.958 29.6192C189.998 31.5776 188.654 33.1648 186.913 34.3936L187.297 34.9824C188.884 33.8816 190.202 32.3328 191.252 30.3104C192.161 32.1024 193.53 33.6128 195.374 34.8288L195.758 34.24C193.786 32.9088 192.378 31.3728 191.559 29.6192H190.958ZM202.03 38.8096C200.737 39.3088 199.226 39.7056 197.498 39.9872L197.588 40.6656C199.252 40.3584 200.724 39.9616 202.03 39.4752V38.8096ZM199.802 29.5552C199.239 31.1552 198.586 32.5504 197.831 33.7408C197.742 33.8688 197.639 33.9584 197.537 34.0096L197.703 34.6496C198.484 34.5472 199.278 34.432 200.071 34.304C199.303 35.6096 198.625 36.5568 198.062 37.12C197.985 37.1968 197.882 37.2608 197.754 37.312L197.946 37.9648C199.201 37.7856 200.519 37.4656 201.876 37.0176V36.3776C200.852 36.736 199.828 37.0048 198.778 37.1968C199.585 36.3008 200.609 34.7008 201.85 32.3968L201.236 32.1664C200.967 32.6784 200.698 33.1776 200.442 33.6512C199.751 33.7792 199.06 33.8816 198.369 33.9584C199.06 32.96 199.764 31.5776 200.455 29.8112L199.802 29.5552ZM201.914 31.2448V31.9104H205.063V34.0352H202.337V34.7008H208.519V34.0352H205.754V31.9104H208.89V31.2448H205.754V29.6064H205.063V31.2448H201.914ZM208.071 36.1984H202.81V41.2032H203.489V40.5248H207.406V41.2032H208.071V36.1984ZM203.489 39.8592V36.864H207.406V39.8592H203.489ZM212.282 30.144V34.9184H216.122V36.2752H210.977V36.928H215.418C214.471 38.2592 212.897 39.36 210.695 40.2176L211.079 40.8448C213.383 39.8208 215.022 38.5152 215.982 36.928H216.122V41.2544H216.814V36.928H216.954C217.85 38.3616 219.45 39.6672 221.754 40.8448L222.241 40.256C220.001 39.2832 218.426 38.1696 217.53 36.928H221.959V36.2752H216.814V34.9184H220.59V30.144H212.282ZM219.886 34.3168H216.814V32.8576H219.886V34.3168ZM216.122 34.3168H212.974V32.8576H216.122V34.3168ZM212.974 32.2432V30.7712H216.122V32.2432H212.974ZM216.814 30.7712H219.886V32.2432H216.814V30.7712Z" fill="#333333"/>
<g filter="url(#filter0_b_407_674)">
<rect x="1015" y="58" width="166" height="200" rx="12" fill="#F5F5F5" fill-opacity="0.4"/>
<rect x="1015.2" y="58.2" width="165.6" height="199.6" rx="11.8" stroke="#C0C0C0" stroke-width="0.4"/>
</g>
<path d="M1027 73L1023 79.5504L1027 86" stroke="#333333" stroke-linecap="round"/>
<path d="M1059.09 75.0416V79.9312H1061.81V81.1216H1058.45V81.9792H1060.98C1060.37 83.1824 1059.41 84.1808 1058.11 84.9744L1058.58 85.7552C1060.03 84.7696 1061.07 83.5152 1061.69 81.9792H1061.81V86.2416H1062.67V81.9792H1062.78C1063.36 83.3488 1064.36 84.6032 1065.78 85.7296L1066.36 85C1065.03 84.104 1064.09 83.1056 1063.51 81.9792H1066.04V81.1216H1062.67V79.9312H1065.4V75.0416H1059.09ZM1064.56 79.1504H1062.67V77.8832H1064.56V79.1504ZM1061.81 79.1504H1059.94V77.8832H1061.81V79.1504ZM1059.94 77.128V75.848H1061.81V77.128H1059.94ZM1062.67 75.848H1064.56V77.128H1062.67V75.848ZM1056.09 74.6832L1055.43 75.3104C1056.34 75.9888 1057.06 76.6288 1057.58 77.2432L1058.21 76.616C1057.64 75.976 1056.93 75.3232 1056.09 74.6832ZM1054.54 78.4592V79.3424H1056.32V84.296C1056.32 84.5008 1056.23 84.68 1056.05 84.8336L1056.41 85.6528C1057.19 85.0896 1057.93 84.4624 1058.62 83.7712L1058.38 82.824C1057.97 83.2336 1057.58 83.6048 1057.21 83.9376V78.4592H1054.54ZM1072.83 75.016V78.7152H1078.14V75.016H1072.83ZM1077.24 77.8832H1073.74V75.8352H1077.24V77.8832ZM1072.33 79.9056V80.7504H1074.95V82.3888H1072.62V83.2208H1074.95V84.9488H1071.82V85.8192H1079V84.9488H1075.9V83.2208H1078.29V82.3888H1075.9V80.7504H1078.69V79.9056H1072.33ZM1067.54 78.0496V78.9328H1069.32C1068.91 80.392 1068.22 81.6848 1067.25 82.824L1067.64 83.848C1068.37 82.8368 1068.96 81.7104 1069.41 80.456V86.2288H1070.29V80.456C1070.65 80.9296 1071.1 81.5696 1071.61 82.3632L1072.12 81.5952C1071.51 80.8656 1070.9 80.2 1070.29 79.6112V78.9328H1071.95V78.0496H1070.29V76.04C1070.93 75.912 1071.55 75.7712 1072.12 75.6048L1071.8 74.7344C1070.58 75.1184 1069.16 75.3872 1067.56 75.5408L1067.73 76.4112C1068.31 76.3472 1068.87 76.2704 1069.41 76.1936V78.0496H1067.54ZM1084.14 85.4864H1089.87V86.2416H1090.8V80.84H1085.46C1087.87 79.7264 1089.52 78.2928 1090.44 76.5392V75.72H1085.45C1085.71 75.3744 1085.94 75.016 1086.14 74.632L1085.13 74.5168C1084.36 75.8736 1082.89 77.0256 1080.7 77.96L1081.32 78.7536C1082.67 78.1136 1083.77 77.3968 1084.64 76.5904H1089.38C1088.78 77.64 1087.83 78.5488 1086.52 79.3296C1085.97 78.856 1085.21 78.3184 1084.23 77.7168L1083.44 78.216C1084.41 78.7664 1085.18 79.2784 1085.74 79.752C1084.27 80.4944 1082.43 81.0832 1080.21 81.544L1080.7 82.4272C1081.6 82.2096 1082.43 81.9792 1083.22 81.7232V86.2416H1084.14V85.4864ZM1089.87 84.5904H1084.14V81.6976H1089.87V84.5904ZM1093.14 78.0496V78.9328H1094.91C1094.5 80.392 1093.81 81.6848 1092.84 82.824L1093.23 83.848C1093.97 82.824 1094.58 81.6848 1095.01 80.4304V86.2416H1095.89V80.456C1096.28 80.904 1096.75 81.5056 1097.29 82.2736L1097.8 81.5056C1097.16 80.8144 1096.53 80.2 1095.89 79.6368V78.9328H1097.47V78.0496H1095.89V76.0784C1096.55 75.9504 1097.16 75.7968 1097.72 75.6432L1097.4 74.7728C1096.18 75.1568 1094.78 75.4128 1093.19 75.5536L1093.37 76.424C1093.94 76.3728 1094.47 76.296 1095.01 76.2192V78.0496H1093.14ZM1100.41 86.216C1101.14 86.216 1101.51 85.832 1101.51 85.064V78.2928H1100.57V84.8336C1100.57 85.2048 1100.4 85.3968 1100.09 85.3968C1099.75 85.3968 1099.38 85.3712 1098.99 85.3328L1099.18 86.216H1100.41ZM1098.8 80.136C1098.48 81.6208 1097.98 82.9904 1097.29 84.2192L1098.08 84.7184C1098.76 83.4768 1099.29 82.0048 1099.66 80.3024L1098.8 80.136ZM1103.18 80.0464L1102.35 80.3152C1102.88 81.6336 1103.38 83.144 1103.83 84.8464L1104.68 84.4752C1104.25 82.9008 1103.75 81.4288 1103.18 80.0464ZM1099.67 77.2048H1103.33C1103.18 77.9472 1102.99 78.6128 1102.76 79.2144L1103.65 79.4832C1103.91 78.6384 1104.1 77.7808 1104.25 76.9104V76.3088H1100.02C1100.2 75.7712 1100.35 75.208 1100.46 74.6192L1099.56 74.504C1099.25 76.1424 1098.65 77.5248 1097.78 78.6512L1098.34 79.3808C1098.86 78.7408 1099.31 78.0112 1099.67 77.2048Z" fill="#333333"/>
<circle cx="1040" cy="80" r="3" fill="#333333"/>
<circle cx="1040" cy="104" r="3" fill="#D9D9D9"/>
<circle cx="1040" cy="130" r="3" fill="#D9D9D9"/>
<circle cx="1041" cy="156" r="3" fill="#D9D9D9"/>
<path d="M1061.14 98.568L1060.58 98.9136C1062.18 100.552 1063.43 102.05 1064.35 103.406L1064.94 102.997C1064.06 101.742 1062.79 100.258 1061.14 98.568ZM1061.84 101.934C1061.22 103.509 1060.39 104.878 1059.35 106.03C1058.35 104.981 1057.54 103.752 1056.93 102.344L1056.34 102.677C1056.99 104.136 1057.84 105.416 1058.89 106.517C1057.49 107.899 1055.74 108.923 1053.64 109.602L1054.05 110.203C1056.14 109.525 1057.92 108.462 1059.37 107.003C1060.81 108.386 1062.61 109.448 1064.76 110.19L1065.17 109.602C1063.05 108.91 1061.27 107.874 1059.84 106.517C1060.91 105.339 1061.79 103.906 1062.5 102.216L1061.84 101.934ZM1057.06 98.7088C1056.34 100.514 1055.29 101.947 1053.9 102.997L1054.45 103.47C1055.79 102.446 1056.88 100.949 1057.7 98.9776L1057.06 98.7088ZM1075.5 102.677L1074.96 103.022C1076.07 104.328 1076.94 105.531 1077.58 106.606L1078.15 106.197C1077.54 105.198 1076.65 104.021 1075.5 102.677ZM1066.71 103.317V103.97H1068.21V107.49C1067.62 107.643 1067 107.784 1066.38 107.912L1066.54 108.565C1068.03 108.232 1069.41 107.822 1070.7 107.323V106.645C1070.11 106.875 1069.51 107.093 1068.9 107.285V103.97H1070.43V103.317H1068.9V100.322H1070.61V99.656H1066.52V100.322H1068.21V103.317H1066.71ZM1071.18 99.2848V99.9504H1074.59C1073.86 102.395 1072.53 104.482 1070.59 106.21L1071.01 106.76C1072.21 105.685 1073.21 104.456 1073.98 103.074V110.242H1074.67V101.64C1074.9 101.102 1075.09 100.539 1075.26 99.9504H1077.63V99.2848H1071.18ZM1083.76 103.342V110.216H1084.44V103.342H1088.74C1088.72 104.61 1088.71 105.429 1088.7 105.787C1088.66 106.53 1088.55 107.003 1088.37 107.195C1088.19 107.387 1087.92 107.49 1087.55 107.49C1087.09 107.49 1086.63 107.477 1086.18 107.477L1086.36 108.155C1086.89 108.155 1087.36 108.142 1087.71 108.142C1088.3 108.142 1088.7 108.002 1088.93 107.746C1089.13 107.49 1089.26 106.99 1089.31 106.261C1089.35 105.877 1089.39 104.686 1089.44 102.664H1080.03V103.342H1083.76ZM1079.47 99.8992V100.59H1082.53V101.883H1083.23V100.59H1086.77V101.896H1087.47V100.59H1090.53V99.8992H1087.47V98.568H1086.77V99.8992H1083.23V98.568H1082.53V99.8992H1079.47ZM1092.07 103.957V104.648H1103.52V103.957H1092.07Z" fill="#333333"/>
<path d="M1061.14 124.568L1060.58 124.914C1062.18 126.552 1063.43 128.05 1064.35 129.406L1064.94 128.997C1064.06 127.742 1062.79 126.258 1061.14 124.568ZM1061.84 127.934C1061.22 129.509 1060.39 130.878 1059.35 132.03C1058.35 130.981 1057.54 129.752 1056.93 128.344L1056.34 128.677C1056.99 130.136 1057.84 131.416 1058.89 132.517C1057.49 133.899 1055.74 134.923 1053.64 135.602L1054.05 136.203C1056.14 135.525 1057.92 134.462 1059.37 133.003C1060.81 134.386 1062.61 135.448 1064.76 136.19L1065.17 135.602C1063.05 134.91 1061.27 133.874 1059.84 132.517C1060.91 131.339 1061.79 129.906 1062.5 128.216L1061.84 127.934ZM1057.06 124.709C1056.34 126.514 1055.29 127.947 1053.9 128.997L1054.45 129.47C1055.79 128.446 1056.88 126.949 1057.7 124.978L1057.06 124.709ZM1075.5 128.677L1074.96 129.022C1076.07 130.328 1076.94 131.531 1077.58 132.606L1078.15 132.197C1077.54 131.198 1076.65 130.021 1075.5 128.677ZM1066.71 129.317V129.97H1068.21V133.49C1067.62 133.643 1067 133.784 1066.38 133.912L1066.54 134.565C1068.03 134.232 1069.41 133.822 1070.7 133.323V132.645C1070.11 132.875 1069.51 133.093 1068.9 133.285V129.97H1070.43V129.317H1068.9V126.322H1070.61V125.656H1066.52V126.322H1068.21V129.317H1066.71ZM1071.18 125.285V125.95H1074.59C1073.86 128.395 1072.53 130.482 1070.59 132.21L1071.01 132.76C1072.21 131.685 1073.21 130.456 1073.98 129.074V136.242H1074.67V127.64C1074.9 127.102 1075.09 126.539 1075.26 125.95H1077.63V125.285H1071.18ZM1083.76 129.342V136.216H1084.44V129.342H1088.74C1088.72 130.61 1088.71 131.429 1088.7 131.787C1088.66 132.53 1088.55 133.003 1088.37 133.195C1088.19 133.387 1087.92 133.49 1087.55 133.49C1087.09 133.49 1086.63 133.477 1086.18 133.477L1086.36 134.155C1086.89 134.155 1087.36 134.142 1087.71 134.142C1088.3 134.142 1088.7 134.002 1088.93 133.746C1089.13 133.49 1089.26 132.99 1089.31 132.261C1089.35 131.877 1089.39 130.686 1089.44 128.664H1080.03V129.342H1083.76ZM1079.47 125.899V126.59H1082.53V127.883H1083.23V126.59H1086.77V127.896H1087.47V126.59H1090.53V125.899H1087.47V124.568H1086.77V125.899H1083.23V124.568H1082.53V125.899H1079.47ZM1093.29 126.091V126.77H1102.31V126.091H1093.29ZM1092.12 134.142V134.821H1103.47V134.142H1092.12Z" fill="#333333"/>
<path d="M1062.14 150.568L1061.58 150.914C1063.18 152.552 1064.43 154.05 1065.35 155.406L1065.94 154.997C1065.06 153.742 1063.79 152.258 1062.14 150.568ZM1062.84 153.934C1062.22 155.509 1061.39 156.878 1060.35 158.03C1059.35 156.981 1058.54 155.752 1057.93 154.344L1057.34 154.677C1057.99 156.136 1058.84 157.416 1059.89 158.517C1058.49 159.899 1056.74 160.923 1054.64 161.602L1055.05 162.203C1057.14 161.525 1058.92 160.462 1060.37 159.003C1061.81 160.386 1063.61 161.448 1065.76 162.19L1066.17 161.602C1064.05 160.91 1062.27 159.874 1060.84 158.517C1061.91 157.339 1062.79 155.906 1063.5 154.216L1062.84 153.934ZM1058.06 150.709C1057.34 152.514 1056.29 153.947 1054.9 154.997L1055.45 155.47C1056.79 154.446 1057.88 152.949 1058.7 150.978L1058.06 150.709ZM1076.5 154.677L1075.96 155.022C1077.07 156.328 1077.94 157.531 1078.58 158.606L1079.15 158.197C1078.54 157.198 1077.65 156.021 1076.5 154.677ZM1067.71 155.317V155.97H1069.21V159.49C1068.62 159.643 1068 159.784 1067.38 159.912L1067.54 160.565C1069.03 160.232 1070.41 159.822 1071.7 159.323V158.645C1071.11 158.875 1070.51 159.093 1069.9 159.285V155.97H1071.43V155.317H1069.9V152.322H1071.61V151.656H1067.52V152.322H1069.21V155.317H1067.71ZM1072.18 151.285V151.95H1075.59C1074.86 154.395 1073.53 156.482 1071.59 158.21L1072.01 158.76C1073.21 157.685 1074.21 156.456 1074.98 155.074V162.242H1075.67V153.64C1075.9 153.102 1076.09 152.539 1076.26 151.95H1078.63V151.285H1072.18ZM1084.76 155.342V162.216H1085.44V155.342H1089.74C1089.72 156.61 1089.71 157.429 1089.7 157.787C1089.66 158.53 1089.55 159.003 1089.37 159.195C1089.19 159.387 1088.92 159.49 1088.55 159.49C1088.09 159.49 1087.63 159.477 1087.18 159.477L1087.36 160.155C1087.89 160.155 1088.36 160.142 1088.71 160.142C1089.3 160.142 1089.7 160.002 1089.93 159.746C1090.13 159.49 1090.26 158.99 1090.31 158.261C1090.35 157.877 1090.39 156.686 1090.44 154.664H1081.03V155.342H1084.76ZM1080.47 151.899V152.59H1083.53V153.883H1084.23V152.59H1087.77V153.896H1088.47V152.59H1091.53V151.899H1088.47V150.568H1087.77V151.899H1084.23V150.568H1083.53V151.899H1080.47ZM1094 151.618V152.296H1103.63V151.618H1094ZM1094.87 156.059V156.75H1102.74V156.059H1094.87ZM1093.04 160.834V161.525H1104.56V160.834H1093.04Z" fill="#333333"/>
<g filter="url(#filter1_b_407_674)">
<circle cx="1115" cy="316" r="34" fill="#3D3D3D" fill-opacity="0.6"/>
</g>
<g filter="url(#filter2_b_407_674)">
<circle cx="1155" cy="385" r="25" fill="#3D3D3D" fill-opacity="0.6"/>
</g>
<path d="M1105.5 309H1119.5C1120.69 309 1121.84 309.474 1122.68 310.318C1123.53 311.162 1124 312.307 1124 313.5V327.5C1124 328.693 1123.53 329.838 1122.68 330.682C1121.84 331.526 1120.69 332 1119.5 332H1105.5C1104.31 332 1103.16 331.526 1102.32 330.682C1101.47 329.838 1101 328.693 1101 327.5V313.5C1101 312.307 1101.47 311.162 1102.32 310.318C1103.16 309.474 1104.31 309 1105.5 309ZM1107.53 321.5H1111.5V325.472C1111.5 326.01 1111.91 326.472 1112.45 326.499C1112.59 326.505 1112.72 326.484 1112.85 326.437C1112.98 326.39 1113.09 326.317 1113.19 326.224C1113.29 326.13 1113.37 326.018 1113.42 325.894C1113.47 325.769 1113.5 325.635 1113.5 325.5V321.5H1117.47C1118.01 321.5 1118.47 321.086 1118.5 320.548C1118.51 320.413 1118.48 320.278 1118.44 320.151C1118.39 320.024 1118.32 319.908 1118.22 319.81C1118.13 319.712 1118.02 319.634 1117.89 319.581C1117.77 319.528 1117.64 319.5 1117.5 319.5H1113.5V315.528C1113.5 314.99 1113.09 314.528 1112.55 314.501C1112.41 314.495 1112.28 314.516 1112.15 314.563C1112.02 314.61 1111.91 314.683 1111.81 314.776C1111.71 314.87 1111.63 314.982 1111.58 315.106C1111.53 315.231 1111.5 315.365 1111.5 315.5V319.5H1107.5C1107.36 319.5 1107.23 319.527 1107.11 319.58C1106.98 319.634 1106.87 319.712 1106.78 319.81C1106.68 319.908 1106.61 320.024 1106.56 320.151C1106.51 320.278 1106.49 320.413 1106.5 320.548C1106.53 321.086 1106.99 321.5 1107.53 321.5Z" fill="#DCDCDC"/>
<path d="M1106.26 307C1106.57 306.123 1107.14 305.364 1107.9 304.827C1108.66 304.29 1109.57 304.001 1110.5 304H1124.5C1125.69 304 1126.84 304.474 1127.68 305.318C1128.53 306.162 1129 307.307 1129 308.5V322.5C1129 323.43 1128.71 324.337 1128.17 325.097C1127.64 325.857 1126.88 326.431 1126 326.742V312C1126 310.674 1125.47 309.402 1124.54 308.464C1123.6 307.527 1122.33 307 1121 307H1106.26Z" fill="#DCDCDC"/>
<path d="M1150 394C1149.45 394 1148.98 393.804 1148.59 393.413C1148.2 393.021 1148 392.55 1148 392V379C1147.72 379 1147.48 378.904 1147.29 378.713C1147.1 378.521 1147 378.283 1147 378C1147 377.717 1147.1 377.479 1147.29 377.287C1147.48 377.096 1147.72 377 1148 377H1152C1152 376.717 1152.1 376.479 1152.29 376.287C1152.48 376.096 1152.72 376 1153 376H1157C1157.28 376 1157.52 376.096 1157.71 376.287C1157.9 376.479 1158 376.717 1158 377H1162C1162.28 377 1162.52 377.096 1162.71 377.287C1162.9 377.479 1163 377.717 1163 378C1163 378.283 1162.9 378.521 1162.71 378.713C1162.52 378.904 1162.28 379 1162 379V392C1162 392.55 1161.8 393.021 1161.41 393.413C1161.02 393.804 1160.55 394 1160 394H1150ZM1152 389C1152 389.283 1152.1 389.521 1152.29 389.712C1152.48 389.904 1152.72 390 1153 390C1153.28 390 1153.52 389.904 1153.71 389.712C1153.9 389.521 1154 389.283 1154 389V382C1154 381.717 1153.9 381.479 1153.71 381.287C1153.52 381.096 1153.28 381 1153 381C1152.72 381 1152.48 381.096 1152.29 381.287C1152.1 381.479 1152 381.717 1152 382V389ZM1156 389C1156 389.283 1156.1 389.521 1156.29 389.712C1156.48 389.904 1156.72 390 1157 390C1157.28 390 1157.52 389.904 1157.71 389.712C1157.9 389.521 1158 389.283 1158 389V382C1158 381.717 1157.9 381.479 1157.71 381.287C1157.52 381.096 1157.28 381 1157 381C1156.72 381 1156.48 381.096 1156.29 381.287C1156.1 381.479 1156 381.717 1156 382V389Z" fill="#DCDCDC"/>
<g filter="url(#filter3_b_407_674)">
<circle cx="25" cy="25" r="25" transform="matrix(-1 0 0 1 85 323)" fill="#3D3D3D" fill-opacity="0.6"/>
</g>
<path d="M71.1842 347.7C71.1561 347.625 70.3592 345.863 68.5967 344.091C66.2436 341.747 63.2717 340.5 59.9998 340.5C56.7279 340.5 53.7561 341.747 51.4029 344.091C49.6404 345.863 48.8436 347.625 48.8154 347.7C48.7736 347.794 48.752 347.897 48.752 348C48.752 348.103 48.7736 348.206 48.8154 348.3C48.8436 348.375 49.6404 350.137 51.4029 351.909C53.7561 354.253 56.7279 355.5 59.9998 355.5C63.2717 355.5 66.2436 354.253 68.5967 351.909C70.3592 350.137 71.1561 348.375 71.1842 348.3C71.226 348.206 71.2477 348.103 71.2477 348C71.2477 347.897 71.226 347.794 71.1842 347.7ZM59.9998 344.625C60.6673 344.625 61.3198 344.823 61.8749 345.194C62.4299 345.565 62.8625 346.092 63.1179 346.708C63.3733 347.325 63.4402 348.004 63.31 348.658C63.1797 349.313 62.8583 349.914 62.3863 350.386C61.9143 350.858 61.3129 351.18 60.6582 351.31C60.0036 351.44 59.325 351.374 58.7083 351.118C58.0916 350.863 57.5644 350.43 57.1936 349.875C56.8227 349.32 56.6248 348.668 56.6248 348C56.6248 347.105 56.9804 346.246 57.6133 345.614C58.2463 344.981 59.1047 344.625 59.9998 344.625Z" fill="#B8B8B8"/>
<defs>
<filter id="filter0_b_407_674" x="1014" y="57" width="168" height="202" filterUnits="userSpaceOnUse" color-interpolation-filters="sRGB">
<feFlood flood-opacity="0" result="BackgroundImageFix"/>
<feGaussianBlur in="BackgroundImageFix" stdDeviation="0.5"/>
<feComposite in2="SourceAlpha" operator="in" result="effect1_backgroundBlur_407_674"/>
<feBlend mode="normal" in="SourceGraphic" in2="effect1_backgroundBlur_407_674" result="shape"/>
</filter>
<filter id="filter1_b_407_674" x="1080" y="281" width="70" height="70" filterUnits="userSpaceOnUse" color-interpolation-filters="sRGB">
<feFlood flood-opacity="0" result="BackgroundImageFix"/>
<feGaussianBlur in="BackgroundImageFix" stdDeviation="0.5"/>
<feComposite in2="SourceAlpha" operator="in" result="effect1_backgroundBlur_407_674"/>
<feBlend mode="normal" in="SourceGraphic" in2="effect1_backgroundBlur_407_674" result="shape"/>
</filter>
<filter id="filter2_b_407_674" x="1129" y="359" width="52" height="52" filterUnits="userSpaceOnUse" color-interpolation-filters="sRGB">
<feFlood flood-opacity="0" result="BackgroundImageFix"/>
<feGaussianBlur in="BackgroundImageFix" stdDeviation="0.5"/>
<feComposite in2="SourceAlpha" operator="in" result="effect1_backgroundBlur_407_674"/>
<feBlend mode="normal" in="SourceGraphic" in2="effect1_backgroundBlur_407_674" result="shape"/>
</filter>
<filter id="filter3_b_407_674" x="34" y="322" width="52" height="52" filterUnits="userSpaceOnUse" color-interpolation-filters="sRGB">
<feFlood flood-opacity="0" result="BackgroundImageFix"/>
<feGaussianBlur in="BackgroundImageFix" stdDeviation="0.5"/>
<feComposite in2="SourceAlpha" operator="in" result="effect1_backgroundBlur_407_674"/>
<feBlend mode="normal" in="SourceGraphic" in2="effect1_backgroundBlur_407_674" result="shape"/>
</filter>
<linearGradient id="paint0_linear_407_674" x1="285" y1="326.5" x2="495" y2="326.5" gradientUnits="userSpaceOnUse">
<stop stop-color="#D9D9D9" stop-opacity="0.6"/>
<stop offset="0.175" stop-color="#D9D9D9"/>
<stop offset="0.815625" stop-color="#D9D9D9"/>
<stop offset="1" stop-color="#D9D9D9" stop-opacity="0.6"/>
</linearGradient>
<linearGradient id="paint1_linear_407_674" x1="606" y1="246.5" x2="816" y2="246.5" gradientUnits="userSpaceOnUse">
<stop stop-color="#D9D9D9" stop-opacity="0.6"/>
<stop offset="0.175" stop-color="#D9D9D9"/>
<stop offset="0.815625" stop-color="#D9D9D9"/>
<stop offset="1" stop-color="#D9D9D9" stop-opacity="0.6"/>
</linearGradient>
<linearGradient id="paint2_linear_407_674" x1="608.15" y1="217" x2="643.103" y2="220.451" gradientUnits="userSpaceOnUse">
<stop stop-color="#6A6A6A"/>
<stop offset="1" stop-color="#6A6A6A" stop-opacity="0"/>
</linearGradient>
<linearGradient id="paint3_linear_407_674" x1="606" y1="346.5" x2="816" y2="346.5" gradientUnits="userSpaceOnUse">
<stop stop-color="#D9D9D9" stop-opacity="0.6"/>
<stop offset="0.175" stop-color="#D9D9D9"/>
<stop offset="0.815625" stop-color="#D9D9D9"/>
<stop offset="1" stop-color="#D9D9D9" stop-opacity="0.6"/>
</linearGradient>
<linearGradient id="paint4_linear_407_674" x1="612.771" y1="317" x2="714.112" y2="348.509" gradientUnits="userSpaceOnUse">
<stop stop-color="#6A6A6A"/>
<stop offset="1" stop-color="#6A6A6A" stop-opacity="0"/>
</linearGradient>
<linearGradient id="paint5_linear_407_674" x1="606" y1="446.5" x2="816" y2="446.5" gradientUnits="userSpaceOnUse">
<stop stop-color="#D9D9D9" stop-opacity="0.6"/>
<stop offset="0.175" stop-color="#D9D9D9"/>
<stop offset="0.815625" stop-color="#D9D9D9"/>
<stop offset="1" stop-color="#D9D9D9" stop-opacity="0.6"/>
</linearGradient>
<linearGradient id="paint6_linear_407_674" x1="609.34" y1="417" x2="662.898" y2="425.214" gradientUnits="userSpaceOnUse">
<stop stop-color="#6A6A6A"/>
<stop offset="1" stop-color="#6A6A6A" stop-opacity="0"/>
</linearGradient>
<clipPath id="clip0_407_674">
<rect width="11" height="11" fill="white" transform="translate(350 299)"/>
</clipPath>
<clipPath id="clip1_407_674">
<rect width="11" height="11" fill="white" transform="translate(671 219)"/>
</clipPath>
<clipPath id="clip2_407_674">
<rect width="11" height="11" fill="white" transform="translate(671 319)"/>
</clipPath>
<clipPath id="clip3_407_674">
<rect width="11" height="11" fill="white" transform="translate(671 419)"/>
</clipPath>
</defs>
</svg>
