<svg width="10" height="10" viewBox="0 0 10 10" fill="none" xmlns="http://www.w3.org/2000/svg">
<rect x="0.95" y="0.95" width="8.1" height="8.1" rx="4.05" fill="white" stroke="url(#paint0_linear_625_43179)" stroke-width="0.1"/>
<mask id="mask0_625_43179" style="mask-type:alpha" maskUnits="userSpaceOnUse" x="1" y="1" width="8" height="8">
<rect x="1.05" y="1.05" width="7.9" height="7.9" rx="3.95" fill="#7F7F7F" stroke="url(#paint1_linear_625_43179)" stroke-width="0.1"/>
</mask>
<g mask="url(#mask0_625_43179)">
<path d="M5.0001 5.23853C4.61463 5.23853 4.2419 5.06961 3.95017 4.76305C3.66649 4.46404 3.49325 4.0653 3.46269 3.64061C3.43007 3.18758 3.57088 2.77099 3.85905 2.46738C4.14722 2.16377 4.55013 2 5.0001 2C5.44689 2 5.85093 2.16671 6.13817 2.46959C6.42821 2.77541 6.56939 3.19126 6.53677 3.64042C6.50546 4.06567 6.3324 4.46423 6.04929 4.76287C5.75831 5.06961 5.38577 5.23853 5.0001 5.23853ZM7.4706 9.99999H2.52745C2.44798 10.0004 2.36946 9.98293 2.29796 9.94889C2.22645 9.91485 2.16385 9.86517 2.11498 9.80366C2.06313 9.73698 2.02851 8.13672 2.01143 8.05453C1.99435 7.97235 1.99644 7.88744 2.01753 7.80617C2.17539 7.18404 2.5665 6.66808 3.14846 6.31423C3.665 6.00032 4.32252 5.82735 5.0001 5.82735C5.691 5.82735 6.33128 5.99296 6.85081 6.30669C7.43409 6.6587 7.82575 7.1776 7.98287 7.80727C8.00371 7.88861 8.00556 7.97351 7.98829 8.05565C7.97102 8.13779 7.9339 9.73798 7.88195 9.80458C7.83313 9.8658 7.77068 9.91524 7.69938 9.94912C7.62807 9.98299 7.54982 10.0004 7.4706 9.99999Z" fill="#E7E7E7"/>
</g>
<defs>
<linearGradient id="paint0_linear_625_43179" x1="9" y1="6.5" x2="1" y2="3.5" gradientUnits="userSpaceOnUse">
<stop stop-color="#A4A4A4"/>
<stop offset="1" stop-color="#AEAEAE" stop-opacity="0"/>
</linearGradient>
<linearGradient id="paint1_linear_625_43179" x1="9" y1="6.5" x2="1" y2="3.5" gradientUnits="userSpaceOnUse">
<stop stop-color="#A4A4A4"/>
<stop offset="1" stop-color="#AEAEAE" stop-opacity="0"/>
</linearGradient>
</defs>
</svg>
